kMon40V7.ufo
<glyph name="percent" format="2">
  <advance width="1796"/>
  <unicode hex="0025"/>
  <outline>
    <contour>
      <point x="367" y="1474" type="curve" smooth="yes"/>
      <point x="172" y="1474"/>
      <point x="64" y="1271"/>
      <point x="64" y="1076" type="curve" smooth="yes"/>
      <point x="64" y="881"/>
      <point x="169" y="694"/>
      <point x="367" y="694" type="curve" smooth="yes"/>
      <point x="566" y="694"/>
      <point x="671" y="881"/>
      <point x="671" y="1076" type="curve" smooth="yes"/>
      <point x="671" y="1271"/>
      <point x="566" y="1474"/>
    </contour>
    <contour>
      <point x="371" y="1417" type="curve" smooth="yes"/>
      <point x="487" y="1417"/>
      <point x="502" y="1166"/>
      <point x="502" y="1076" type="curve" smooth="yes"/>
      <point x="502" y="982"/>
      <point x="491" y="746"/>
      <point x="367" y="746" type="curve" smooth="yes"/>
      <point x="240" y="746"/>
      <point x="232" y="986"/>
      <point x="232" y="1076" type="curve" smooth="yes"/>
      <point x="232" y="1170"/>
      <point x="247" y="1417"/>
    </contour>
    <contour>
      <point x="1429" y="746" type="curve" smooth="yes"/>
      <point x="1234" y="746"/>
      <point x="1125" y="544"/>
      <point x="1125" y="349" type="curve" smooth="yes"/>
      <point x="1125" y="157"/>
      <point x="1230" y="-34"/>
      <point x="1429" y="-34" type="curve" smooth="yes"/>
      <point x="1627" y="-34"/>
      <point x="1732" y="157"/>
      <point x="1732" y="349" type="curve" smooth="yes"/>
      <point x="1732" y="544"/>
      <point x="1627" y="746"/>
    </contour>
    <contour>
      <point x="1432" y="694" type="curve" smooth="yes"/>
      <point x="1549" y="694"/>
      <point x="1564" y="439"/>
      <point x="1564" y="349" type="curve" smooth="yes"/>
      <point x="1564" y="255"/>
      <point x="1552" y="22"/>
      <point x="1429" y="22" type="curve" smooth="yes"/>
      <point x="1301" y="22"/>
      <point x="1290" y="259"/>
      <point x="1290" y="349" type="curve" smooth="yes"/>
      <point x="1290" y="446"/>
      <point x="1305" y="694"/>
    </contour>
    <contour>
      <point x="1462" y="1474" type="line"/>
      <point x="1369" y="1474" type="line"/>
      <point x="334" y="-34" type="line"/>
      <point x="431" y="-34" type="line"/>
    </contour>
  </outline>
</glyph>
<glyph name="quotesingle" format="2">
  <advance width="356"/>
  <unicode hex="0027"/>
  <outline>
    <contour>
      <point x="202" y="853" type="line"/>
      <point x="229" y="1067"/>
      <point x="289" y="1187"/>
      <point x="289" y="1362" type="curve" smooth="yes"/>
      <point x="289" y="1422"/>
      <point x="239" y="1471"/>
      <point x="176" y="1471" type="curve" smooth="yes"/>
      <point x="116" y="1471"/>
      <point x="67" y="1422"/>
      <point x="67" y="1362" type="curve" smooth="yes"/>
      <point x="67" y="1187"/>
      <point x="123" y="1067"/>
      <point x="154" y="853" type="curve"/>
    </contour>
  </outline>
</glyph>
<glyph name="parenleft" format="2">
  <advance width="975"/>
  <unicode hex="0028"/>
  <outline>
    <contour>
      <point x="450" y="720" type="curve" smooth="yes"/>
      <point x="450" y="930"/>
      <point x="581" y="1444"/>
      <point x="731" y="1552" type="curve"/>
      <point x="742" y="1564"/>
      <point x="750" y="1571"/>
      <point x="750" y="1579" type="curve" smooth="yes"/>
      <point x="750" y="1586"/>
      <point x="742" y="1590"/>
      <point x="731" y="1590" type="curve"/>
      <point x="619" y="1560"/>
      <point x="300" y="1114"/>
      <point x="300" y="720" type="curve" smooth="yes"/>
      <point x="300" y="334"/>
      <point x="619" y="-120"/>
      <point x="731" y="-150" type="curve"/>
      <point x="742" y="-150"/>
      <point x="750" y="-146"/>
      <point x="750" y="-139" type="curve" smooth="yes"/>
      <point x="750" y="-131"/>
      <point x="742" y="-124"/>
      <point x="731" y="-113" type="curve"/>
      <point x="581" y="-4"/>
      <point x="450" y="510"/>
    </contour>
  </outline>
</glyph>
<glyph name="four" format="2">
  <advance width="1080"/>
  <unicode hex="0034"/>
  <outline>
    <contour>
      <point x="660" y="0" type="line"/>
      <point x="844" y="0" type="line"/>
      <point x="844" y="371" type="line"/>
      <point x="1031" y="371" type="line"/>
      <point x="1031" y="529" type="line"/>
      <point x="844" y="529" type="line"/>
      <point x="844" y="1474" type="line"/>
      <point x="720" y="1474" type="line"/>
      <point x="34" y="502" type="line"/>
      <point x="34" y="371" type="line"/>
      <point x="660" y="371" type="line"/>
    </contour>
    <contour>
      <point x="660" y="1237" type="line"/>
      <point x="660" y="529" type="line"/>
      <point x="161" y="529" type="line"/>
    </contour>
  </outline>
</glyph>
<glyph name="five" format="2">
  <advance width="1080"/>
  <unicode hex="0035"/>
  <outline>
    <contour>
      <point x="967" y="1440" type="line"/>
      <point x="454" y="1440" type="line"/>
      <point x="172" y="877" type="line"/>
      <point x="566" y="877"/>
      <point x="821" y="701"/>
      <point x="821" y="435" type="curve" smooth="yes"/>
      <point x="821" y="240"/>
      <point x="679" y="79"/>
      <point x="510" y="79" type="curve" smooth="yes"/>
      <point x="360" y="79"/>
      <point x="334" y="187"/>
      <point x="229" y="187" type="curve" smooth="yes"/>
      <point x="180" y="187"/>
      <point x="139" y="161"/>
      <point x="139" y="109" type="curve" smooth="yes"/>
      <point x="139" y="30"/>
      <point x="236" y="-34"/>
      <point x="382" y="-34" type="curve" smooth="yes"/>
      <point x="709" y="-34"/>
      <point x="967" y="206"/>
      <point x="967" y="502" type="curve"/>
      <point x="967" y="829"/>
      <point x="690" y="1069"/>
      <point x="364" y="1069" type="curve"/>
      <point x="461" y="1264" type="line"/>
      <point x="885" y="1264" type="line"/>
    </contour>
  </outline>
</glyph>
<glyph name="six" format="2">
  <advance width="1080"/>
  <unicode hex="0036"/>
  <outline>
    <contour>
      <point x="967" y="1474" type="line"/>
      <point x="431" y="1474"/>
      <point x="79" y="1042"/>
      <point x="79" y="540" type="curve" smooth="yes"/>
      <point x="79" y="221"/>
      <point x="270" y="-34"/>
      <point x="544" y="-34" type="curve" smooth="yes"/>
      <point x="799" y="-34"/>
      <point x="1009" y="195"/>
      <point x="1009" y="476" type="curve" smooth="yes"/>
      <point x="1009" y="716"/>
      <point x="840" y="907"/>
      <point x="630" y="907" type="curve" smooth="yes"/>
      <point x="499" y="907"/>
      <point x="401" y="859"/>
      <point x="319" y="791" type="curve"/>
      <point x="386" y="1121"/>
      <point x="652" y="1406"/>
      <point x="967" y="1436" type="curve"/>
    </contour>
    <contour>
      <point x="315" y="727" type="curve"/>
      <point x="375" y="780"/>
      <point x="465" y="814"/>
      <point x="529" y="814" type="curve" smooth="yes"/>
      <point x="682" y="814"/>
      <point x="806" y="619"/>
      <point x="806" y="379" type="curve" smooth="yes"/>
      <point x="806" y="191"/>
      <point x="701" y="37"/>
      <point x="570" y="37" type="curve" smooth="yes"/>
      <point x="386" y="37"/>
      <point x="300" y="270"/>
      <point x="300" y="532" type="curve" smooth="yes"/>
      <point x="300" y="596"/>
      <point x="304" y="664"/>
    </contour>
  </outline>
</glyph>
<glyph name="colon" format="2">
  <advance width="570"/>
  <unicode hex="003A"/>
  <outline>
    <contour>
      <point x="255" y="994" type="curve" smooth="yes"/>
      <point x="191" y="994"/>
      <point x="139" y="941"/>
      <point x="139" y="877" type="curve" smooth="yes"/>
      <point x="139" y="814"/>
      <point x="191" y="765"/>
      <point x="255" y="765" type="curve" smooth="yes"/>
      <point x="322" y="765"/>
      <point x="375" y="814"/>
      <point x="375" y="877" type="curve" smooth="yes"/>
      <point x="375" y="941"/>
      <point x="322" y="994"/>
    </contour>
    <contour>
      <point x="255" y="195" type="curve" smooth="yes"/>
      <point x="191" y="195"/>
      <point x="139" y="142"/>
      <point x="139" y="79" type="curve" smooth="yes"/>
      <point x="139" y="19"/>
      <point x="191" y="-34"/>
      <point x="255" y="-34" type="curve" smooth="yes"/>
      <point x="322" y="-34"/>
      <point x="375" y="19"/>
      <point x="375" y="79" type="curve" smooth="yes"/>
      <point x="375" y="142"/>
      <point x="322" y="195"/>
    </contour>
  </outline>
</glyph>
<glyph name="equal" format="2">
  <advance width="1050"/>
  <unicode hex="003D"/>
  <outline>
    <contour>
      <point x="150" y="911" type="line"/>
      <point x="150" y="761" type="line"/>
      <point x="900" y="761" type="line"/>
      <point x="900" y="911" type="line"/>
    </contour>
    <contour>
      <point x="150" y="532" type="line"/>
      <point x="150" y="382" type="line"/>
      <point x="900" y="382" type="line"/>
      <point x="900" y="532" type="line"/>
    </contour>
  </outline>
</glyph>
<glyph name="at" format="2">
  <advance width="2051"/>
  <unicode hex="0040"/>
  <outline>
    <contour>
      <point x="1286" y="814" type="line"/>
      <point x="1275" y="900"/>
      <point x="1219" y="994"/>
      <point x="1129" y="994" type="curve" smooth="yes"/>
      <point x="821" y="994"/>
      <point x="532" y="510"/>
      <point x="532" y="217" type="curve" smooth="yes"/>
      <point x="532" y="90"/>
      <point x="592" y="-34"/>
      <point x="727" y="-34" type="curve" smooth="yes"/>
      <point x="877" y="-34"/>
      <point x="1028" y="150"/>
      <point x="1132" y="274" type="curve"/>
      <point x="1117" y="214"/>
      <point x="1114" y="165"/>
      <point x="1114" y="127" type="curve" smooth="yes"/>
      <point x="1114" y="4"/>
      <point x="1207" y="-34"/>
      <point x="1327" y="-34" type="curve" smooth="yes"/>
      <point x="1601" y="-34"/>
      <point x="1860" y="322"/>
      <point x="1860" y="724" type="curve" smooth="yes"/>
      <point x="1860" y="1174"/>
      <point x="1556" y="1474"/>
      <point x="1136" y="1474" type="curve" smooth="yes"/>
      <point x="555" y="1474"/>
      <point x="127" y="1057"/>
      <point x="127" y="502" type="curve" smooth="yes"/>
      <point x="127" y="-30"/>
      <point x="476" y="-450"/>
      <point x="1054" y="-450" type="curve" smooth="yes"/>
      <point x="1526" y="-450"/>
      <point x="1789" y="-199"/>
      <point x="1965" y="199" type="curve"/>
      <point x="1901" y="199" type="line"/>
      <point x="1770" y="-120"/>
      <point x="1515" y="-386"/>
      <point x="1065" y="-386" type="curve" smooth="yes"/>
      <point x="559" y="-386"/>
      <point x="221" y="26"/>
      <point x="221" y="480" type="curve" smooth="yes"/>
      <point x="221" y="994"/>
      <point x="592" y="1414"/>
      <point x="1140" y="1414" type="curve" smooth="yes"/>
      <point x="1485" y="1414"/>
      <point x="1789" y="1121"/>
      <point x="1789" y="731" type="curve" smooth="yes"/>
      <point x="1789" y="379"/>
      <point x="1567" y="37"/>
      <point x="1354" y="37" type="curve" smooth="yes"/>
      <point x="1297" y="37"/>
      <point x="1279" y="86"/>
      <point x="1279" y="142" type="curve" smooth="yes"/>
      <point x="1279" y="199"/>
      <point x="1290" y="259"/>
      <point x="1305" y="300" type="curve"/>
      <point x="1504" y="971" type="line"/>
      <point x="1331" y="952" type="line"/>
    </contour>
    <contour>
      <point x="795" y="101" type="curve" smooth="yes"/>
      <point x="697" y="101"/>
      <point x="679" y="191"/>
      <point x="679" y="251" type="curve" smooth="yes"/>
      <point x="679" y="476"/>
      <point x="866" y="937"/>
      <point x="1102" y="937" type="curve" smooth="yes"/>
      <point x="1159" y="937"/>
      <point x="1237" y="862"/>
      <point x="1237" y="780" type="curve" smooth="yes"/>
      <point x="1237" y="536"/>
      <point x="1005" y="101"/>
    </contour>
  </outline>
</glyph>
<glyph name="B" format="2">
  <advance width="1421"/>
  <unicode hex="0042"/>
  <outline>
    <contour>
      <point x="247" y="229" type="line"/>
      <point x="247" y="75"/>
      <point x="191" y="37"/>
      <point x="41" y="37" type="curve"/>
      <point x="41" y="0" type="line"/>
      <point x="859" y="0" type="line" smooth="yes"/>
      <point x="1136" y="0"/>
      <point x="1316" y="172"/>
      <point x="1316" y="390" type="curve" smooth="yes"/>
      <point x="1316" y="581"/>
      <point x="1192" y="712"/>
      <point x="1009" y="742" type="curve"/>
      <point x="1009" y="746" type="line"/>
      <point x="1192" y="844"/>
      <point x="1249" y="930"/>
      <point x="1249" y="1087" type="curve" smooth="yes"/>
      <point x="1249" y="1297"/>
      <point x="1054" y="1440"/>
      <point x="772" y="1440" type="curve" smooth="yes"/>
      <point x="41" y="1440" type="line"/>
      <point x="41" y="1402" type="line"/>
      <point x="191" y="1402"/>
      <point x="247" y="1365"/>
      <point x="247" y="1211" type="curve" smooth="yes"/>
    </contour>
    <contour>
      <point x="465" y="1346" type="line"/>
      <point x="540" y="1365"/>
      <point x="611" y="1369"/>
      <point x="645" y="1369" type="curve" smooth="yes"/>
      <point x="907" y="1369"/>
      <point x="1024" y="1234"/>
      <point x="1024" y="1065" type="curve" smooth="yes"/>
      <point x="1024" y="907"/>
      <point x="919" y="784"/>
      <point x="742" y="784" type="curve" smooth="yes"/>
      <point x="690" y="784"/>
      <point x="521" y="784"/>
      <point x="465" y="799" type="curve"/>
    </contour>
    <contour>
      <point x="465" y="697" type="line"/>
      <point x="551" y="709"/>
      <point x="656" y="712"/>
      <point x="694" y="712" type="curve" smooth="yes"/>
      <point x="975" y="712"/>
      <point x="1076" y="562"/>
      <point x="1076" y="382" type="curve" smooth="yes"/>
      <point x="1076" y="217"/>
      <point x="960" y="82"/>
      <point x="705" y="82" type="curve" smooth="yes"/>
      <point x="626" y="82"/>
      <point x="517" y="94"/>
      <point x="465" y="105" type="curve"/>
    </contour>
  </outline>
</glyph>
<glyph name="L" format="2">
  <advance width="1331"/>
  <unicode hex="004C"/>
  <outline>
    <contour>
      <point x="247" y="229" type="line" smooth="yes"/>
      <point x="247" y="75"/>
      <point x="191" y="37"/>
      <point x="41" y="37" type="curve"/>
      <point x="41" y="0" type="line"/>
      <point x="1166" y="0" type="line"/>
      <point x="1290" y="390" type="line"/>
      <point x="1249" y="401" type="line"/>
      <point x="1189" y="217"/>
      <point x="1061" y="71"/>
      <point x="817" y="71" type="curve" smooth="yes"/>
      <point x="547" y="71" type="line" smooth="yes"/>
      <point x="502" y="71"/>
      <point x="465" y="120"/>
      <point x="465" y="180" type="curve" smooth="yes"/>
      <point x="465" y="1211" type="line" smooth="yes"/>
      <point x="465" y="1365"/>
      <point x="521" y="1402"/>
      <point x="667" y="1402" type="curve"/>
      <point x="667" y="1440" type="line"/>
      <point x="41" y="1440" type="line"/>
      <point x="41" y="1402" type="line"/>
      <point x="191" y="1402"/>
      <point x="247" y="1365"/>
      <point x="247" y="1211" type="curve" smooth="yes"/>
    </contour>
  </outline>
</glyph>
<glyph name="O" format="2">
  <advance width="1579"/>
  <unicode hex="004F"/>
  <outline>
    <contour>
      <point x="791" y="-34" type="curve" smooth="yes"/>
      <point x="1196" y="-34"/>
      <point x="1511" y="307"/>
      <point x="1511" y="727" type="curve" smooth="yes"/>
      <point x="1511" y="1140"/>
      <point x="1196" y="1474"/>
      <point x="791" y="1474" type="curve" smooth="yes"/>
      <point x="382" y="1474"/>
      <point x="67" y="1140"/>
      <point x="67" y="727" type="curve" smooth="yes"/>
      <point x="67" y="307"/>
      <point x="382" y="-34"/>
    </contour>
    <contour>
      <point x="791" y="37" type="curve" smooth="yes"/>
      <point x="484" y="37"/>
      <point x="326" y="330"/>
      <point x="326" y="727" type="curve" smooth="yes"/>
      <point x="326" y="1125"/>
      <point x="484" y="1402"/>
      <point x="791" y="1402" type="curve" smooth="yes"/>
      <point x="1087" y="1402"/>
      <point x="1252" y="1125"/>
      <point x="1252" y="727" type="curve" smooth="yes"/>
      <point x="1252" y="330"/>
      <point x="1087" y="37"/>
    </contour>
  </outline>
</glyph>
<glyph name="P" format="2">
  <advance width="1219"/>
  <unicode hex="0050"/>
  <outline>
    <contour>
      <point x="247" y="229" type="line"/>
      <point x="247" y="75"/>
      <point x="191" y="37"/>
      <point x="41" y="37" type="curve"/>
      <point x="41" y="0" type="line"/>
      <point x="667" y="0" type="line"/>
      <point x="667" y="37" type="line"/>
      <point x="521" y="37"/>
      <point x="465" y="75"/>
      <point x="465" y="229" type="curve" smooth="yes"/>
      <point x="465" y="667" type="line"/>
      <point x="514" y="652"/>
      <point x="630" y="641"/>
      <point x="724" y="641" type="curve" smooth="yes"/>
      <point x="937" y="641"/>
      <point x="1151" y="765"/>
      <point x="1151" y="1027" type="curve" smooth="yes"/>
      <point x="1151" y="1290"/>
      <point x="934" y="1440"/>
      <point x="660" y="1440" type="curve" smooth="yes"/>
      <point x="41" y="1440" type="line"/>
      <point x="41" y="1402" type="line"/>
      <point x="191" y="1402"/>
      <point x="247" y="1365"/>
      <point x="247" y="1211" type="curve" smooth="yes"/>
    </contour>
    <contour>
      <point x="465" y="1339" type="line"/>
      <point x="532" y="1361"/>
      <point x="581" y="1361"/>
      <point x="622" y="1361" type="curve" smooth="yes"/>
      <point x="787" y="1361"/>
      <point x="915" y="1207"/>
      <point x="915" y="1012" type="curve" smooth="yes"/>
      <point x="915" y="847"/>
      <point x="821" y="716"/>
      <point x="634" y="716" type="curve" smooth="yes"/>
      <point x="574" y="716"/>
      <point x="514" y="731"/>
      <point x="465" y="746" type="curve"/>
    </contour>
  </outline>
</glyph>
<glyph name="grave" format="2">
  <advance width="427"/>
  <unicode hex="0060"/>
  <outline>
    <contour>
      <point x="22" y="1474" type="line"/>
      <point x="341" y="1099" type="line"/>
      <point x="401" y="1099" type="line"/>
      <point x="289" y="1474" type="line"/>
    </contour>
  </outline>
</glyph>
<glyph name="b" format="2">
  <advance width="1072"/>
  <unicode hex="0062"/>
  <outline>
    <contour>
      <point x="157" y="94" type="line"/>
      <point x="247" y="19"/>
      <point x="367" y="-23"/>
      <point x="499" y="-23" type="curve" smooth="yes"/>
      <point x="772" y="-23"/>
      <point x="990" y="240"/>
      <point x="990" y="559" type="curve" smooth="yes"/>
      <point x="990" y="799"/>
      <point x="844" y="994"/>
      <point x="637" y="994" type="curve" smooth="yes"/>
      <point x="529" y="994"/>
      <point x="390" y="904"/>
      <point x="334" y="791" type="curve"/>
      <point x="334" y="1474" type="line"/>
      <point x="281" y="1474" type="line"/>
      <point x="-8" y="1346" type="line"/>
      <point x="7" y="1305" type="line"/>
      <point x="45" y="1317"/>
      <point x="71" y="1324"/>
      <point x="94" y="1324" type="curve" smooth="yes"/>
      <point x="157" y="1324"/>
      <point x="157" y="1275"/>
      <point x="157" y="1166" type="curve" smooth="yes"/>
    </contour>
    <contour>
      <point x="334" y="727" type="line"/>
      <point x="375" y="791"/>
      <point x="469" y="844"/>
      <point x="547" y="844" type="curve" smooth="yes"/>
      <point x="690" y="844"/>
      <point x="806" y="690"/>
      <point x="806" y="499" type="curve" smooth="yes"/>
      <point x="806" y="244"/>
      <point x="697" y="60"/>
      <point x="532" y="60" type="curve" smooth="yes"/>
      <point x="435" y="60"/>
      <point x="379" y="112"/>
      <point x="334" y="157" type="curve"/>
    </contour>
  </outline>
</glyph>
<glyph name="g" format="2">
  <advance width="1057"/>
  <unicode hex="0067"/>
  <outline>
    <contour>
      <point x="750" y="922" type="line"/>
      <point x="712" y="960"/>
      <point x="607" y="994"/>
      <point x="502" y="994" type="curve" smooth="yes"/>
      <point x="285" y="994"/>
      <point x="112" y="836"/>
      <point x="112" y="645" type="curve" smooth="yes"/>
      <point x="112" y="514"/>
      <point x="184" y="412"/>
      <point x="304" y="356" type="curve"/>
      <point x="202" y="315"/>
      <point x="124" y="221"/>
      <point x="124" y="142" type="curve" smooth="yes"/>
      <point x="124" y="86"/>
      <point x="172" y="45"/>
      <point x="240" y="22" type="curve"/>
      <point x="150" y="-54"/>
      <point x="41" y="-143"/>
      <point x="41" y="-251" type="curve" smooth="yes"/>
      <point x="41" y="-371"/>
      <point x="187" y="-450"/>
      <point x="480" y="-450" type="curve" smooth="yes"/>
      <point x="806" y="-450"/>
      <point x="1005" y="-304"/>
      <point x="1005" y="-75" type="curve" smooth="yes"/>
      <point x="1005" y="52"/>
      <point x="941" y="132"/>
      <point x="731" y="142" type="curve" smooth="yes"/>
      <point x="405" y="157" type="line" smooth="yes"/>
      <point x="334" y="160"/>
      <point x="292" y="187"/>
      <point x="292" y="225" type="curve" smooth="yes"/>
      <point x="292" y="266"/>
      <point x="319" y="307"/>
      <point x="352" y="337" type="curve"/>
      <point x="386" y="326"/>
      <point x="439" y="315"/>
      <point x="484" y="315" type="curve" smooth="yes"/>
      <point x="724" y="315"/>
      <point x="892" y="454"/>
      <point x="892" y="652" type="curve" smooth="yes"/>
      <point x="892" y="720"/>
      <point x="870" y="791"/>
      <point x="836" y="844" type="curve"/>
      <point x="1005" y="844" type="line"/>
      <point x="1005" y="922" type="line"/>
    </contour>
    <contour>
      <point x="292" y="7" type="curve"/>
      <point x="341" y="-4"/>
      <point x="532" y="-23"/>
      <point x="701" y="-23" type="curve" smooth="yes"/>
      <point x="840" y="-23"/>
      <point x="922" y="-60"/>
      <point x="922" y="-146" type="curve" smooth="yes"/>
      <point x="922" y="-233"/>
      <point x="780" y="-323"/>
      <point x="547" y="-323" type="curve" smooth="yes"/>
      <point x="322" y="-323"/>
      <point x="210" y="-244"/>
      <point x="210" y="-158" type="curve" smooth="yes"/>
      <point x="210" y="-105"/>
      <point x="240" y="-34"/>
    </contour>
    <contour>
      <point x="514" y="367" type="curve" smooth="yes"/>
      <point x="390" y="367"/>
      <point x="307" y="502"/>
      <point x="307" y="679" type="curve" smooth="yes"/>
      <point x="307" y="829"/>
      <point x="364" y="941"/>
      <point x="480" y="941" type="curve" smooth="yes"/>
      <point x="600" y="941"/>
      <point x="701" y="795"/>
      <point x="701" y="607" type="curve" smooth="yes"/>
      <point x="701" y="472"/>
      <point x="611" y="367"/>
    </contour>
  </outline>
</glyph>
<glyph name="bar" format="2">
  <advance width="547"/>
  <unicode hex="007C"/>
  <outline>
    <contour>
      <point x="214" y="1440" type="line"/>
      <point x="214" y="-488" type="line"/>
      <point x="315" y="-488" type="line"/>
      <point x="315" y="1440" type="line"/>
    </contour>
  </outline>
</glyph>
<glyph name="asciitilde" format="2">
  <advance width="1286"/>
  <unicode hex="007E"/>
  <outline>
    <contour>
      <point x="1140" y="892" type="line"/>
      <point x="1106" y="791"/>
      <point x="1061" y="697"/>
      <point x="941" y="697" type="curve" smooth="yes"/>
      <point x="806" y="697"/>
      <point x="592" y="892"/>
      <point x="401" y="892" type="curve" smooth="yes"/>
      <point x="199" y="892"/>
      <point x="79" y="772"/>
      <point x="79" y="551" type="curve"/>
      <point x="131" y="551" type="line"/>
      <point x="150" y="652"/>
      <point x="244" y="746"/>
      <point x="349" y="746" type="curve" smooth="yes"/>
      <point x="510" y="746"/>
      <point x="652" y="551"/>
      <point x="896" y="551" type="curve" smooth="yes"/>
      <point x="1076" y="551"/>
      <point x="1192" y="667"/>
      <point x="1192" y="892" type="curve"/>
    </contour>
  </outline>
</glyph>
<glyph name="yen" format="2">
  <advance width="1286"/>
  <unicode hex="00A5"/>
  <outline>
    <contour>
      <point x="506" y="229" type="line"/>
      <point x="506" y="75"/>
      <point x="461" y="37"/>
      <point x="304" y="37" type="curve"/>
      <point x="304" y="0" type="line"/>
      <point x="945" y="0" type="line"/>
      <point x="945" y="37" type="line"/>
      <point x="795" y="37"/>
      <point x="742" y="75"/>
      <point x="742" y="229" type="curve" smooth="yes"/>
      <point x="742" y="626" type="line"/>
      <point x="791" y="731" type="line"/>
      <point x="1170" y="731" type="line"/>
      <point x="1170" y="814" type="line"/>
      <point x="829" y="814" type="line"/>
      <point x="926" y="1024" type="line"/>
      <point x="1170" y="1024" type="line"/>
      <point x="1170" y="1106" type="line"/>
      <point x="960" y="1106" type="line"/>
      <point x="1012" y="1222" type="line" smooth="yes"/>
      <point x="1075" y="1362"/>
      <point x="1159" y="1402"/>
      <point x="1286" y="1402" type="curve"/>
      <point x="1286" y="1440" type="line"/>
      <point x="780" y="1440" type="line"/>
      <point x="780" y="1402" type="line"/>
      <point x="881" y="1402"/>
      <point x="930" y="1364"/>
      <point x="930" y="1304" type="curve" smooth="yes"/>
      <point x="930" y="1280"/>
      <point x="922" y="1252"/>
      <point x="907" y="1222" type="curve"/>
      <point x="859" y="1106" type="line"/>
      <point x="532" y="1106" type="line"/>
      <point x="495" y="1204" type="line" smooth="yes"/>
      <point x="477" y="1251"/>
      <point x="465" y="1290"/>
      <point x="465" y="1320" type="curve" smooth="yes"/>
      <point x="465" y="1375"/>
      <point x="505" y="1402"/>
      <point x="626" y="1402" type="curve"/>
      <point x="626" y="1440" type="line"/>
      <point x="0" y="1440" type="line"/>
      <point x="0" y="1402" type="line"/>
      <point x="112" y="1402"/>
      <point x="186" y="1339"/>
      <point x="229" y="1241" type="curve" smooth="yes"/>
      <point x="289" y="1106" type="line"/>
      <point x="94" y="1106" type="line"/>
      <point x="94" y="1024" type="line"/>
      <point x="322" y="1024" type="line"/>
      <point x="412" y="814" type="line"/>
      <point x="94" y="814" type="line"/>
      <point x="94" y="731" type="line"/>
      <point x="450" y="731" type="line"/>
      <point x="506" y="600" type="line"/>
    </contour>
    <contour>
      <point x="562" y="1024" type="line"/>
      <point x="821" y="1024" type="line"/>
      <point x="686" y="712" type="line"/>
    </contour>
  </outline>
</glyph>
<glyph name="dieresis" format="2">
  <advance width="945"/>
  <unicode hex="00A8"/>
  <outline>
    <contour>
      <point x="187" y="1376" type="curve" smooth="yes"/>
      <point x="187" y="1320"/>
      <point x="236" y="1271"/>
      <point x="292" y="1271" type="curve" smooth="yes"/>
      <point x="349" y="1271"/>
      <point x="397" y="1320"/>
      <point x="397" y="1376" type="curve" smooth="yes"/>
      <point x="397" y="1432"/>
      <point x="349" y="1481"/>
      <point x="292" y="1481" type="curve" smooth="yes"/>
      <point x="236" y="1481"/>
      <point x="187" y="1432"/>
    </contour>
    <contour>
      <point x="562" y="1376" type="curve" smooth="yes"/>
      <point x="562" y="1320"/>
      <point x="611" y="1271"/>
      <point x="667" y="1271" type="curve" smooth="yes"/>
      <point x="724" y="1271"/>
      <point x="772" y="1320"/>
      <point x="772" y="1376" type="curve" smooth="yes"/>
      <point x="772" y="1432"/>
      <point x="724" y="1481"/>
      <point x="667" y="1481" type="curve" smooth="yes"/>
      <point x="611" y="1481"/>
      <point x="562" y="1432"/>
    </contour>
  </outline>
</glyph>
<glyph name="registered" format="2">
  <advance width="1612"/>
  <unicode hex="00AE"/>
  <outline>
    <contour>
      <point x="506" y="450" type="line"/>
      <point x="506" y="337"/>
      <point x="454" y="307"/>
      <point x="390" y="307" type="curve"/>
      <point x="390" y="270" type="line"/>
      <point x="799" y="270" type="line"/>
      <point x="799" y="307" type="line"/>
      <point x="724" y="307"/>
      <point x="664" y="337"/>
      <point x="664" y="450" type="curve" smooth="yes"/>
      <point x="664" y="697" type="line"/>
      <point x="750" y="697" type="line"/>
      <point x="1076" y="270" type="line"/>
      <point x="1290" y="270" type="line"/>
      <point x="1290" y="307" type="line"/>
      <point x="1217" y="307"/>
      <point x="1196" y="337"/>
      <point x="1132" y="424" type="curve" smooth="yes"/>
      <point x="919" y="716" type="line"/>
      <point x="1046" y="746"/>
      <point x="1166" y="814"/>
      <point x="1166" y="956" type="curve" smooth="yes"/>
      <point x="1166" y="1129"/>
      <point x="994" y="1192"/>
      <point x="806" y="1192" type="curve" smooth="yes"/>
      <point x="401" y="1192" type="line"/>
      <point x="401" y="1155" type="line"/>
      <point x="484" y="1155"/>
      <point x="506" y="1136"/>
      <point x="506" y="1031" type="curve" smooth="yes"/>
    </contour>
    <contour>
      <point x="664" y="746" type="line"/>
      <point x="664" y="1132" type="line"/>
      <point x="697" y="1144"/>
      <point x="731" y="1147"/>
      <point x="761" y="1147" type="curve" smooth="yes"/>
      <point x="889" y="1147"/>
      <point x="982" y="1061"/>
      <point x="982" y="941" type="curve" smooth="yes"/>
      <point x="982" y="780"/>
      <point x="817" y="746"/>
      <point x="686" y="746" type="curve" smooth="yes"/>
    </contour>
    <contour>
      <point x="1556" y="724" type="curve" smooth="yes"/>
      <point x="1556" y="1140"/>
      <point x="1219" y="1474"/>
      <point x="799" y="1474" type="curve" smooth="yes"/>
      <point x="382" y="1474"/>
      <point x="45" y="1140"/>
      <point x="45" y="724" type="curve" smooth="yes"/>
      <point x="45" y="304"/>
      <point x="382" y="-34"/>
      <point x="799" y="-34" type="curve" smooth="yes"/>
      <point x="1219" y="-34"/>
      <point x="1556" y="304"/>
    </contour>
    <contour>
      <point x="1492" y="724" type="curve" smooth="yes"/>
      <point x="1492" y="330"/>
      <point x="1181" y="30"/>
      <point x="799" y="30" type="curve" smooth="yes"/>
      <point x="420" y="30"/>
      <point x="109" y="341"/>
      <point x="109" y="724" type="curve" smooth="yes"/>
      <point x="109" y="1102"/>
      <point x="420" y="1410"/>
      <point x="799" y="1410" type="curve" smooth="yes"/>
      <point x="1181" y="1410"/>
      <point x="1492" y="1102"/>
    </contour>
  </outline>
</glyph>
<glyph name="plusminus" format="2">
  <advance width="1271"/>
  <unicode hex="00B1"/>
  <outline>
    <contour>
      <point x="90" y="221" type="line"/>
      <point x="1181" y="221" type="line"/>
      <point x="1181" y="311" type="line"/>
      <point x="682" y="311" type="line"/>
      <point x="682" y="712" type="line"/>
      <point x="1181" y="712" type="line"/>
      <point x="1181" y="799" type="line"/>
      <point x="682" y="799" type="line"/>
      <point x="682" y="1282" type="line"/>
      <point x="589" y="1282" type="line"/>
      <point x="589" y="799" type="line"/>
      <point x="90" y="799" type="line"/>
      <point x="90" y="712" type="line"/>
      <point x="589" y="712" type="line"/>
      <point x="589" y="311" type="line"/>
      <point x="90" y="311" type="line"/>
    </contour>
  </outline>
</glyph>
<glyph name="twosuperior" format="2">
  <advance width="754"/>
  <unicode hex="00B2"/>
  <outline>
    <contour>
      <point x="64" y="709" type="line"/>
      <point x="604" y="709" type="line"/>
      <point x="667" y="870" type="line"/>
      <point x="615" y="870" type="line"/>
      <point x="592" y="817"/>
      <point x="536" y="806"/>
      <point x="472" y="806" type="curve" smooth="yes"/>
      <point x="240" y="806" type="line"/>
      <point x="367" y="911"/>
      <point x="619" y="1087"/>
      <point x="619" y="1260" type="curve" smooth="yes"/>
      <point x="619" y="1391"/>
      <point x="521" y="1474"/>
      <point x="356" y="1474" type="curve" smooth="yes"/>
      <point x="232" y="1474"/>
      <point x="120" y="1372"/>
      <point x="101" y="1252" type="curve"/>
      <point x="150" y="1252" type="line"/>
      <point x="176" y="1331"/>
      <point x="236" y="1372"/>
      <point x="319" y="1372" type="curve" smooth="yes"/>
      <point x="412" y="1372"/>
      <point x="484" y="1312"/>
      <point x="484" y="1222" type="curve" smooth="yes"/>
      <point x="484" y="1050"/>
      <point x="202" y="847"/>
      <point x="64" y="746" type="curve"/>
    </contour>
  </outline>
</glyph>
<glyph name="mu" format="2">
  <advance width="1110"/>
  <unicode hex="00B5"/>
  <unicode hex="03BC"/>
  <outline>
    <contour>
      <point x="277" y="971" type="line"/>
      <point x="277" y="379" type="line"/>
      <point x="277" y="202"/>
      <point x="330" y="97"/>
      <point x="442" y="97" type="curve" smooth="yes"/>
      <point x="544" y="97"/>
      <point x="641" y="169"/>
      <point x="701" y="240" type="curve"/>
      <point x="701" y="971" type="line"/>
      <point x="877" y="971" type="line"/>
      <point x="877" y="259" type="line"/>
      <point x="877" y="206"/>
      <point x="900" y="79"/>
      <point x="960" y="79" type="curve" smooth="yes"/>
      <point x="1020" y="79"/>
      <point x="1046" y="169"/>
      <point x="1050" y="214" type="curve"/>
      <point x="1099" y="214" type="line"/>
      <point x="1099" y="86"/>
      <point x="1024" y="-34"/>
      <point x="877" y="-34" type="curve"/>
      <point x="750" y="-34"/>
      <point x="709" y="64"/>
      <point x="701" y="169" type="curve"/>
      <point x="615" y="67"/>
      <point x="499" y="-34"/>
      <point x="352" y="-34" type="curve"/>
      <point x="274" y="-34"/>
      <point x="225" y="-4"/>
      <point x="184" y="52" type="curve"/>
      <point x="180" y="52" type="line"/>
      <point x="180" y="-135"/>
      <point x="225" y="-229"/>
      <point x="225" y="-330" type="curve"/>
      <point x="225" y="-386"/>
      <point x="199" y="-450"/>
      <point x="135" y="-450" type="curve" smooth="yes"/>
      <point x="67" y="-450"/>
      <point x="41" y="-383"/>
      <point x="41" y="-326" type="curve" smooth="yes"/>
      <point x="41" y="-206"/>
      <point x="101" y="-139"/>
      <point x="101" y="142" type="curve" smooth="yes"/>
      <point x="101" y="971" type="line"/>
    </contour>
  </outline>
</glyph>
<glyph name="threequarters" format="2">
  <advance width="1744"/>
  <unicode hex="00BE"/>
  <outline>
    <contour>
      <point x="202" y="1069" type="line"/>
      <point x="341" y="1069"/>
      <point x="454" y="1024"/>
      <point x="454" y="892" type="curve" smooth="yes"/>
      <point x="454" y="814"/>
      <point x="386" y="746"/>
      <point x="307" y="746" type="curve" smooth="yes"/>
      <point x="232" y="746"/>
      <point x="186" y="822"/>
      <point x="130" y="822" type="curve" smooth="yes"/>
      <point x="100" y="822"/>
      <point x="70" y="811"/>
      <point x="70" y="781" type="curve" smooth="yes"/>
      <point x="70" y="721"/>
      <point x="190" y="686"/>
      <point x="281" y="686" type="curve" smooth="yes"/>
      <point x="390" y="686"/>
      <point x="570" y="765"/>
      <point x="570" y="956" type="curve" smooth="yes"/>
      <point x="570" y="1057"/>
      <point x="517" y="1117"/>
      <point x="427" y="1151" type="curve"/>
      <point x="480" y="1189"/>
      <point x="525" y="1252"/>
      <point x="525" y="1316" type="curve" smooth="yes"/>
      <point x="525" y="1425"/>
      <point x="420" y="1474"/>
      <point x="322" y="1474" type="curve" smooth="yes"/>
      <point x="202" y="1474"/>
      <point x="112" y="1410"/>
      <point x="67" y="1309" type="curve"/>
      <point x="109" y="1290" type="line"/>
      <point x="142" y="1342"/>
      <point x="202" y="1384"/>
      <point x="270" y="1384" type="curve" smooth="yes"/>
      <point x="349" y="1384"/>
      <point x="397" y="1346"/>
      <point x="397" y="1267" type="curve" smooth="yes"/>
      <point x="397" y="1166"/>
      <point x="300" y="1106"/>
      <point x="202" y="1106" type="curve"/>
    </contour>
    <contour>
      <point x="1421" y="1474" type="line"/>
      <point x="1324" y="1474" type="line"/>
      <point x="292" y="-53" type="line"/>
      <point x="390" y="-53" type="line"/>
    </contour>
    <contour>
      <point x="1560" y="0" type="line"/>
      <point x="1560" y="191" type="line"/>
      <point x="1680" y="191" type="line"/>
      <point x="1680" y="274" type="line"/>
      <point x="1560" y="274" type="line"/>
      <point x="1560" y="765" type="line"/>
      <point x="1459" y="765" type="line"/>
      <point x="1042" y="274" type="line"/>
      <point x="1042" y="191" type="line"/>
      <point x="1421" y="191" type="line"/>
      <point x="1421" y="0" type="line"/>
    </contour>
    <contour>
      <point x="1421" y="274" type="line"/>
      <point x="1132" y="274" type="line"/>
      <point x="1417" y="615" type="line"/>
      <point x="1421" y="615" type="line"/>
    </contour>
  </outline>
</glyph>
<glyph name="Atilde" format="2">
  <advance width="1590"/>
  <unicode hex="00C3"/>
  <outline>
    <contour>
      <point x="724" y="1140" type="line"/>
      <point x="960" y="562" type="line"/>
      <point x="472" y="562" type="line"/>
    </contour>
    <contour>
      <point x="506" y="1511" type="line"/>
      <point x="517" y="1571"/>
      <point x="540" y="1624"/>
      <point x="615" y="1624" type="curve" smooth="yes"/>
      <point x="660" y="1624"/>
      <point x="716" y="1605"/>
      <point x="776" y="1567" type="curve" smooth="yes"/>
      <point x="836" y="1530"/>
      <point x="900" y="1511"/>
      <point x="971" y="1511" type="curve" smooth="yes"/>
      <point x="1129" y="1511"/>
      <point x="1181" y="1624"/>
      <point x="1181" y="1755" type="curve"/>
      <point x="1151" y="1755" type="line"/>
      <point x="1140" y="1695"/>
      <point x="1117" y="1646"/>
      <point x="1042" y="1646" type="curve" smooth="yes"/>
      <point x="997" y="1646"/>
      <point x="941" y="1661"/>
      <point x="881" y="1699" type="curve" smooth="yes"/>
      <point x="821" y="1736"/>
      <point x="757" y="1755"/>
      <point x="686" y="1755" type="curve" smooth="yes"/>
      <point x="529" y="1755"/>
      <point x="472" y="1646"/>
      <point x="472" y="1511" type="curve"/>
    </contour>
    <contour>
      <point x="754" y="1474" type="line"/>
      <point x="217" y="225" type="line" smooth="yes"/>
      <point x="169" y="112"/>
      <point x="116" y="37"/>
      <point x="11" y="37" type="curve"/>
      <point x="11" y="0" type="line"/>
      <point x="472" y="0" type="line"/>
      <point x="472" y="37" type="line"/>
      <point x="347" y="37"/>
      <point x="306" y="76"/>
      <point x="306" y="132" type="curve" smooth="yes"/>
      <point x="306" y="160"/>
      <point x="316" y="192"/>
      <point x="330" y="225" type="curve" smooth="yes"/>
      <point x="439" y="480" type="line"/>
      <point x="1001" y="480" type="line"/>
      <point x="1110" y="225" type="line" smooth="yes"/>
      <point x="1126" y="188"/>
      <point x="1134" y="156"/>
      <point x="1134" y="130" type="curve" smooth="yes"/>
      <point x="1134" y="68"/>
      <point x="1087" y="37"/>
      <point x="979" y="37" type="curve"/>
      <point x="979" y="0" type="line"/>
      <point x="1571" y="0" type="line"/>
      <point x="1571" y="37" type="line"/>
      <point x="1432" y="37"/>
      <point x="1386" y="94"/>
      <point x="1331" y="225" type="curve" smooth="yes"/>
      <point x="806" y="1474" type="line"/>
    </contour>
  </outline>
</glyph>
<glyph name="Adieresis" format="2">
  <advance width="1590"/>
  <unicode hex="00C4"/>
  <outline>
    <contour>
      <point x="724" y="1140" type="line"/>
      <point x="960" y="562" type="line"/>
      <point x="472" y="562" type="line"/>
    </contour>
    <contour>
      <point x="469" y="1714" type="curve" smooth="yes"/>
      <point x="469" y="1657"/>
      <point x="517" y="1609"/>
      <point x="574" y="1609" type="curve" smooth="yes"/>
      <point x="630" y="1609"/>
      <point x="679" y="1657"/>
      <point x="679" y="1714" type="curve" smooth="yes"/>
      <point x="679" y="1770"/>
      <point x="630" y="1819"/>
      <point x="574" y="1819" type="curve" smooth="yes"/>
      <point x="517" y="1819"/>
      <point x="469" y="1770"/>
    </contour>
    <contour>
      <point x="881" y="1714" type="curve" smooth="yes"/>
      <point x="881" y="1657"/>
      <point x="930" y="1609"/>
      <point x="986" y="1609" type="curve" smooth="yes"/>
      <point x="1042" y="1609"/>
      <point x="1091" y="1657"/>
      <point x="1091" y="1714" type="curve" smooth="yes"/>
      <point x="1091" y="1770"/>
      <point x="1042" y="1819"/>
      <point x="986" y="1819" type="curve" smooth="yes"/>
      <point x="930" y="1819"/>
      <point x="881" y="1770"/>
    </contour>
    <contour>
      <point x="754" y="1474" type="line"/>
      <point x="217" y="225" type="line" smooth="yes"/>
      <point x="169" y="112"/>
      <point x="116" y="37"/>
      <point x="11" y="37" type="curve"/>
      <point x="11" y="0" type="line"/>
      <point x="472" y="0" type="line"/>
      <point x="472" y="37" type="line"/>
      <point x="347" y="37"/>
      <point x="306" y="76"/>
      <point x="306" y="132" type="curve" smooth="yes"/>
      <point x="306" y="160"/>
      <point x="316" y="192"/>
      <point x="330" y="225" type="curve" smooth="yes"/>
      <point x="439" y="480" type="line"/>
      <point x="1001" y="480" type="line"/>
      <point x="1110" y="225" type="line" smooth="yes"/>
      <point x="1126" y="188"/>
      <point x="1134" y="156"/>
      <point x="1134" y="130" type="curve" smooth="yes"/>
      <point x="1134" y="68"/>
      <point x="1087" y="37"/>
      <point x="979" y="37" type="curve"/>
      <point x="979" y="0" type="line"/>
      <point x="1571" y="0" type="line"/>
      <point x="1571" y="37" type="line"/>
      <point x="1432" y="37"/>
      <point x="1386" y="94"/>
      <point x="1331" y="225" type="curve" smooth="yes"/>
      <point x="806" y="1474" type="line"/>
    </contour>
  </outline>
</glyph>
<glyph name="Aring" format="2">
  <advance width="1590"/>
  <unicode hex="00C5"/>
  <outline>
    <contour>
      <point x="724" y="1140" type="line"/>
      <point x="960" y="562" type="line"/>
      <point x="472" y="562" type="line"/>
    </contour>
    <contour>
      <point x="964" y="1710" type="curve" smooth="yes"/>
      <point x="964" y="1785"/>
      <point x="907" y="1871"/>
      <point x="791" y="1871" type="curve" smooth="yes"/>
      <point x="656" y="1871"/>
      <point x="600" y="1785"/>
      <point x="600" y="1699" type="curve" smooth="yes"/>
      <point x="600" y="1620"/>
      <point x="664" y="1545"/>
      <point x="780" y="1545" type="curve" smooth="yes"/>
      <point x="896" y="1545"/>
      <point x="964" y="1639"/>
    </contour>
    <contour>
      <point x="892" y="1695" type="curve" smooth="yes"/>
      <point x="892" y="1654"/>
      <point x="870" y="1594"/>
      <point x="791" y="1594" type="curve" smooth="yes"/>
      <point x="701" y="1594"/>
      <point x="671" y="1669"/>
      <point x="671" y="1725" type="curve" smooth="yes"/>
      <point x="671" y="1751"/>
      <point x="690" y="1822"/>
      <point x="761" y="1822" type="curve" smooth="yes"/>
      <point x="859" y="1822"/>
      <point x="892" y="1759"/>
    </contour>
    <contour>
      <point x="754" y="1474" type="line"/>
      <point x="217" y="225" type="line" smooth="yes"/>
      <point x="169" y="112"/>
      <point x="116" y="37"/>
      <point x="11" y="37" type="curve"/>
      <point x="11" y="0" type="line"/>
      <point x="472" y="0" type="line"/>
      <point x="472" y="37" type="line"/>
      <point x="347" y="37"/>
      <point x="306" y="76"/>
      <point x="306" y="132" type="curve" smooth="yes"/>
      <point x="306" y="160"/>
      <point x="316" y="192"/>
      <point x="330" y="225" type="curve" smooth="yes"/>
      <point x="439" y="480" type="line"/>
      <point x="1001" y="480" type="line"/>
      <point x="1110" y="225" type="line" smooth="yes"/>
      <point x="1126" y="188"/>
      <point x="1134" y="156"/>
      <point x="1134" y="130" type="curve" smooth="yes"/>
      <point x="1134" y="68"/>
      <point x="1087" y="37"/>
      <point x="979" y="37" type="curve"/>
      <point x="979" y="0" type="line"/>
      <point x="1571" y="0" type="line"/>
      <point x="1571" y="37" type="line"/>
      <point x="1432" y="37"/>
      <point x="1386" y="94"/>
      <point x="1331" y="225" type="curve" smooth="yes"/>
      <point x="806" y="1474" type="line"/>
    </contour>
  </outline>
</glyph>
<glyph name="Ograve" format="2">
  <advance width="1579"/>
  <unicode hex="00D2"/>
  <outline>
    <contour>
      <point x="791" y="-34" type="curve" smooth="yes"/>
      <point x="1196" y="-34"/>
      <point x="1511" y="307"/>
      <point x="1511" y="727" type="curve" smooth="yes"/>
      <point x="1511" y="1140"/>
      <point x="1196" y="1474"/>
      <point x="791" y="1474" type="curve" smooth="yes"/>
      <point x="382" y="1474"/>
      <point x="67" y="1140"/>
      <point x="67" y="727" type="curve" smooth="yes"/>
      <point x="67" y="307"/>
      <point x="382" y="-34"/>
    </contour>
    <contour>
      <point x="791" y="37" type="curve" smooth="yes"/>
      <point x="484" y="37"/>
      <point x="326" y="330"/>
      <point x="326" y="727" type="curve" smooth="yes"/>
      <point x="326" y="1125"/>
      <point x="484" y="1402"/>
      <point x="791" y="1402" type="curve" smooth="yes"/>
      <point x="1087" y="1402"/>
      <point x="1252" y="1125"/>
      <point x="1252" y="727" type="curve" smooth="yes"/>
      <point x="1252" y="330"/>
      <point x="1087" y="37"/>
    </contour>
    <contour>
      <point x="472" y="1811" type="line"/>
      <point x="866" y="1511" type="line"/>
      <point x="926" y="1511" type="line"/>
      <point x="739" y="1811" type="line"/>
    </contour>
  </outline>
</glyph>
<glyph name="Oacute" format="2">
  <advance width="1579"/>
  <unicode hex="00D3"/>
  <outline>
    <contour>
      <point x="791" y="-34" type="curve" smooth="yes"/>
      <point x="1196" y="-34"/>
      <point x="1511" y="307"/>
      <point x="1511" y="727" type="curve" smooth="yes"/>
      <point x="1511" y="1140"/>
      <point x="1196" y="1474"/>
      <point x="791" y="1474" type="curve" smooth="yes"/>
      <point x="382" y="1474"/>
      <point x="67" y="1140"/>
      <point x="67" y="727" type="curve" smooth="yes"/>
      <point x="67" y="307"/>
      <point x="382" y="-34"/>
    </contour>
    <contour>
      <point x="791" y="37" type="curve" smooth="yes"/>
      <point x="484" y="37"/>
      <point x="326" y="330"/>
      <point x="326" y="727" type="curve" smooth="yes"/>
      <point x="326" y="1125"/>
      <point x="484" y="1402"/>
      <point x="791" y="1402" type="curve" smooth="yes"/>
      <point x="1087" y="1402"/>
      <point x="1252" y="1125"/>
      <point x="1252" y="727" type="curve" smooth="yes"/>
      <point x="1252" y="330"/>
      <point x="1087" y="37"/>
    </contour>
    <contour>
      <point x="1200" y="1811" type="line"/>
      <point x="934" y="1811" type="line"/>
      <point x="746" y="1511" type="line"/>
      <point x="802" y="1511" type="line"/>
    </contour>
  </outline>
</glyph>
<glyph name="Ocircumflex" format="2">
  <advance width="1579"/>
  <unicode hex="00D4"/>
  <outline>
    <contour>
      <point x="791" y="-34" type="curve" smooth="yes"/>
      <point x="1196" y="-34"/>
      <point x="1511" y="307"/>
      <point x="1511" y="727" type="curve" smooth="yes"/>
      <point x="1511" y="1140"/>
      <point x="1196" y="1474"/>
      <point x="791" y="1474" type="curve" smooth="yes"/>
      <point x="382" y="1474"/>
      <point x="67" y="1140"/>
      <point x="67" y="727" type="curve" smooth="yes"/>
      <point x="67" y="307"/>
      <point x="382" y="-34"/>
    </contour>
    <contour>
      <point x="791" y="37" type="curve" smooth="yes"/>
      <point x="484" y="37"/>
      <point x="326" y="330"/>
      <point x="326" y="727" type="curve" smooth="yes"/>
      <point x="326" y="1125"/>
      <point x="484" y="1402"/>
      <point x="791" y="1402" type="curve" smooth="yes"/>
      <point x="1087" y="1402"/>
      <point x="1252" y="1125"/>
      <point x="1252" y="727" type="curve" smooth="yes"/>
      <point x="1252" y="330"/>
      <point x="1087" y="37"/>
    </contour>
    <contour>
      <point x="690" y="1781" type="line"/>
      <point x="480" y="1504" type="line"/>
      <point x="514" y="1504" type="line"/>
      <point x="791" y="1654" type="line"/>
      <point x="1069" y="1504" type="line"/>
      <point x="1106" y="1504" type="line"/>
      <point x="892" y="1781" type="line"/>
    </contour>
  </outline>
</glyph>
<glyph name="germandbls" format="2">
  <advance width="1207"/>
  <unicode hex="00DF"/>
  <outline>
    <contour>
      <point x="457" y="0" type="line"/>
      <point x="457" y="37" type="line"/>
      <point x="412" y="37"/>
      <point x="401" y="101"/>
      <point x="401" y="135" type="curve"/>
      <point x="401" y="1219" type="line"/>
      <point x="401" y="1320"/>
      <point x="472" y="1402"/>
      <point x="547" y="1402" type="curve" smooth="yes"/>
      <point x="746" y="1402"/>
      <point x="791" y="1166"/>
      <point x="791" y="1099" type="curve" smooth="yes"/>
      <point x="791" y="1031"/>
      <point x="785" y="825"/>
      <point x="656" y="802" type="curve"/>
      <point x="656" y="750" type="line"/>
      <point x="750" y="739"/>
      <point x="956" y="596"/>
      <point x="956" y="322" type="curve" smooth="yes"/>
      <point x="956" y="120"/>
      <point x="896" y="56"/>
      <point x="806" y="56" type="curve" smooth="yes"/>
      <point x="709" y="56"/>
      <point x="604" y="176"/>
      <point x="581" y="337" type="curve"/>
      <point x="540" y="337" type="line"/>
      <point x="540" y="0" type="line"/>
      <point x="581" y="0" type="line"/>
      <point x="585" y="15"/>
      <point x="604" y="26"/>
      <point x="626" y="26" type="curve" smooth="yes"/>
      <point x="679" y="26"/>
      <point x="724" y="-19"/>
      <point x="802" y="-19" type="curve" smooth="yes"/>
      <point x="1024" y="-19"/>
      <point x="1140" y="150"/>
      <point x="1140" y="375" type="curve" smooth="yes"/>
      <point x="1140" y="697"/>
      <point x="956" y="757"/>
      <point x="776" y="795" type="curve"/>
      <point x="934" y="874"/>
      <point x="979" y="1009"/>
      <point x="979" y="1147" type="curve" smooth="yes"/>
      <point x="979" y="1380"/>
      <point x="787" y="1474"/>
      <point x="555" y="1474" type="curve" smooth="yes"/>
      <point x="371" y="1474"/>
      <point x="225" y="1316"/>
      <point x="225" y="1117" type="curve" smooth="yes"/>
      <point x="225" y="225" type="line" smooth="yes"/>
      <point x="225" y="90"/>
      <point x="202" y="37"/>
      <point x="71" y="37" type="curve"/>
      <point x="71" y="0" type="line"/>
    </contour>
  </outline>
</glyph>
<glyph name="ccedilla" format="2">
  <advance width="952"/>
  <unicode hex="00E7"/>
  <outline>
    <contour>
      <point x="892" y="367" type="curve"/>
      <point x="851" y="382" type="line"/>
      <point x="795" y="244"/>
      <point x="716" y="127"/>
      <point x="551" y="127" type="curve" smooth="yes"/>
      <point x="367" y="127"/>
      <point x="244" y="337"/>
      <point x="244" y="585" type="curve" smooth="yes"/>
      <point x="244" y="772"/>
      <point x="337" y="922"/>
      <point x="499" y="922" type="curve" smooth="yes"/>
      <point x="619" y="922"/>
      <point x="649" y="855"/>
      <point x="649" y="761" type="curve" smooth="yes"/>
      <point x="649" y="709"/>
      <point x="690" y="652"/>
      <point x="750" y="652" type="curve" smooth="yes"/>
      <point x="810" y="652"/>
      <point x="870" y="701"/>
      <point x="870" y="761" type="curve" smooth="yes"/>
      <point x="870" y="892"/>
      <point x="727" y="994"/>
      <point x="529" y="994" type="curve" smooth="yes"/>
      <point x="274" y="994"/>
      <point x="67" y="757"/>
      <point x="67" y="461" type="curve" smooth="yes"/>
      <point x="67" y="213"/>
      <point x="230" y="7"/>
      <point x="437" y="-20" type="curve"/>
      <point x="390" y="-57"/>
      <point x="334" y="-133"/>
      <point x="307" y="-188" type="curve"/>
      <point x="367" y="-191"/>
      <point x="427" y="-225"/>
      <point x="427" y="-281" type="curve" smooth="yes"/>
      <point x="427" y="-326"/>
      <point x="367" y="-379"/>
      <point x="319" y="-379" type="curve" smooth="yes"/>
      <point x="270" y="-379"/>
      <point x="240" y="-368"/>
      <point x="221" y="-353" type="curve"/>
      <point x="199" y="-386" type="line"/>
      <point x="221" y="-413"/>
      <point x="296" y="-443"/>
      <point x="345" y="-443" type="curve" smooth="yes"/>
      <point x="544" y="-443"/>
      <point x="581" y="-330"/>
      <point x="581" y="-248" type="curve" smooth="yes"/>
      <point x="581" y="-180"/>
      <point x="480" y="-131"/>
      <point x="427" y="-128" type="curve"/>
      <point x="444" y="-96"/>
      <point x="492" y="-47"/>
      <point x="536" y="-19" type="curve"/>
      <point x="714" y="3"/>
      <point x="837" y="145"/>
    </contour>
  </outline>
</glyph>
<glyph name="oslash" format="2">
  <advance width="1072"/>
  <unicode hex="00F8"/>
  <outline>
    <contour>
      <point x="94" y="-19" type="line"/>
      <point x="211" y="111" type="line"/>
      <point x="294" y="28"/>
      <point x="407" y="-23"/>
      <point x="536" y="-23" type="curve" smooth="yes"/>
      <point x="806" y="-23"/>
      <point x="1005" y="221"/>
      <point x="1005" y="514" type="curve" smooth="yes"/>
      <point x="1005" y="645"/>
      <point x="957" y="763"/>
      <point x="875" y="850" type="curve"/>
      <point x="994" y="982" type="line"/>
      <point x="941" y="1035" type="line"/>
      <point x="819" y="900" type="line"/>
      <point x="742" y="959"/>
      <point x="645" y="994"/>
      <point x="536" y="994" type="curve" smooth="yes"/>
      <point x="266" y="994"/>
      <point x="67" y="761"/>
      <point x="67" y="472" type="curve" smooth="yes"/>
      <point x="67" y="359"/>
      <point x="102" y="253"/>
      <point x="162" y="169" type="curve"/>
      <point x="41" y="34" type="line"/>
    </contour>
    <contour>
      <point x="570" y="52" type="curve" smooth="yes"/>
      <point x="462" y="52"/>
      <point x="379" y="125"/>
      <point x="327" y="240" type="curve"/>
      <point x="760" y="722" type="line"/>
      <point x="792" y="637"/>
      <point x="806" y="531"/>
      <point x="806" y="416" type="curve" smooth="yes"/>
      <point x="806" y="217"/>
      <point x="709" y="52"/>
    </contour>
    <contour>
      <point x="266" y="562" type="curve" smooth="yes"/>
      <point x="266" y="761"/>
      <point x="375" y="922"/>
      <point x="495" y="922" type="curve" smooth="yes"/>
      <point x="601" y="922"/>
      <point x="675" y="874"/>
      <point x="725" y="794" type="curve"/>
      <point x="298" y="320" type="line"/>
      <point x="277" y="392"/>
      <point x="266" y="474"/>
    </contour>
  </outline>
</glyph>
<glyph name="uni010C" format="2">
  <advance width="1451"/>
  <unicode hex="010C"/>
  <outline>
    <contour>
      <point x="1309" y="1474" type="line"/>
      <point x="1271" y="1474" type="line"/>
      <point x="1264" y="1421"/>
      <point x="1226" y="1376"/>
      <point x="1192" y="1376" type="curve" smooth="yes"/>
      <point x="1132" y="1376"/>
      <point x="1080" y="1474"/>
      <point x="825" y="1474" type="curve" smooth="yes"/>
      <point x="416" y="1474"/>
      <point x="67" y="1129"/>
      <point x="67" y="701" type="curve" smooth="yes"/>
      <point x="67" y="296"/>
      <point x="382" y="-34"/>
      <point x="817" y="-34" type="curve" smooth="yes"/>
      <point x="1069" y="-34"/>
      <point x="1271" y="142"/>
      <point x="1380" y="337" type="curve"/>
      <point x="1346" y="356" type="line"/>
      <point x="1237" y="191"/>
      <point x="1076" y="49"/>
      <point x="892" y="49" type="curve" smooth="yes"/>
      <point x="577" y="49"/>
      <point x="326" y="289"/>
      <point x="326" y="694" type="curve" smooth="yes"/>
      <point x="326" y="889"/>
      <point x="375" y="1072"/>
      <point x="469" y="1200" type="curve" smooth="yes"/>
      <point x="566" y="1331"/>
      <point x="712" y="1402"/>
      <point x="859" y="1402" type="curve" smooth="yes"/>
      <point x="1072" y="1402"/>
      <point x="1267" y="1215"/>
      <point x="1294" y="986" type="curve"/>
      <point x="1346" y="986" type="line"/>
    </contour>
    <contour>
      <point x="932" y="1533" type="line"/>
      <point x="1142" y="1810" type="line"/>
      <point x="1108" y="1810" type="line"/>
      <point x="831" y="1660" type="line"/>
      <point x="553" y="1810" type="line"/>
      <point x="516" y="1810" type="line"/>
      <point x="730" y="1533" type="line"/>
    </contour>
  </outline>
</glyph>
<glyph name="uni010D" format="2">
  <advance width="952"/>
  <unicode hex="010D"/>
  <outline>
    <contour>
      <point x="603" y="1121" type="line"/>
      <point x="813" y="1474" type="line"/>
      <point x="779" y="1474" type="line"/>
      <point x="502" y="1249" type="line"/>
      <point x="224" y="1474" type="line"/>
      <point x="187" y="1474" type="line"/>
      <point x="401" y="1121" type="line"/>
    </contour>
    <contour>
      <point x="484" y="-23" type="curve" smooth="yes"/>
      <point x="690" y="-23"/>
      <point x="832" y="124"/>
      <point x="892" y="367" type="curve"/>
      <point x="851" y="382" type="line"/>
      <point x="795" y="244"/>
      <point x="716" y="127"/>
      <point x="551" y="127" type="curve" smooth="yes"/>
      <point x="367" y="127"/>
      <point x="244" y="337"/>
      <point x="244" y="585" type="curve" smooth="yes"/>
      <point x="244" y="772"/>
      <point x="337" y="922"/>
      <point x="499" y="922" type="curve" smooth="yes"/>
      <point x="619" y="922"/>
      <point x="649" y="855"/>
      <point x="649" y="761" type="curve" smooth="yes"/>
      <point x="649" y="709"/>
      <point x="690" y="652"/>
      <point x="750" y="652" type="curve" smooth="yes"/>
      <point x="810" y="652"/>
      <point x="870" y="701"/>
      <point x="870" y="761" type="curve" smooth="yes"/>
      <point x="870" y="892"/>
      <point x="727" y="994"/>
      <point x="529" y="994" type="curve" smooth="yes"/>
      <point x="274" y="994"/>
      <point x="67" y="757"/>
      <point x="67" y="461" type="curve" smooth="yes"/>
      <point x="67" y="195"/>
      <point x="255" y="-23"/>
    </contour>
  </outline>
</glyph>
<glyph name="uni012C" format="2">
  <advance width="724"/>
  <unicode hex="012C"/>
  <outline>
    <contour>
      <point x="251" y="229" type="line" smooth="yes"/>
      <point x="251" y="75"/>
      <point x="199" y="37"/>
      <point x="49" y="37" type="curve"/>
      <point x="49" y="0" type="line"/>
      <point x="675" y="0" type="line"/>
      <point x="675" y="37" type="line"/>
      <point x="529" y="37"/>
      <point x="472" y="75"/>
      <point x="472" y="229" type="curve" smooth="yes"/>
      <point x="472" y="1211" type="line" smooth="yes"/>
      <point x="472" y="1365"/>
      <point x="529" y="1402"/>
      <point x="675" y="1402" type="curve"/>
      <point x="675" y="1440" type="line"/>
      <point x="49" y="1440" type="line"/>
      <point x="49" y="1402" type="line"/>
      <point x="199" y="1402"/>
      <point x="251" y="1365"/>
      <point x="251" y="1211" type="curve" smooth="yes"/>
    </contour>
    <contour>
      <point x="643" y="1798" type="line"/>
      <point x="621" y="1742"/>
      <point x="516" y="1657"/>
      <point x="366" y="1657" type="curve" smooth="yes"/>
      <point x="217" y="1657"/>
      <point x="111" y="1742"/>
      <point x="89" y="1798" type="curve"/>
      <point x="51" y="1798" type="line"/>
      <point x="70" y="1704"/>
      <point x="161" y="1530"/>
      <point x="366" y="1530" type="curve" smooth="yes"/>
      <point x="572" y="1530"/>
      <point x="658" y="1704"/>
      <point x="677" y="1798" type="curve"/>
    </contour>
  </outline>
</glyph>
<glyph name="uni014E" format="2">
  <advance width="1579"/>
  <unicode hex="014E"/>
  <outline>
    <contour>
      <point x="791" y="-34" type="curve" smooth="yes"/>
      <point x="1196" y="-34"/>
      <point x="1511" y="307"/>
      <point x="1511" y="727" type="curve" smooth="yes"/>
      <point x="1511" y="1140"/>
      <point x="1196" y="1474"/>
      <point x="791" y="1474" type="curve" smooth="yes"/>
      <point x="382" y="1474"/>
      <point x="67" y="1140"/>
      <point x="67" y="727" type="curve" smooth="yes"/>
      <point x="67" y="307"/>
      <point x="382" y="-34"/>
    </contour>
    <contour>
      <point x="791" y="37" type="curve" smooth="yes"/>
      <point x="484" y="37"/>
      <point x="326" y="330"/>
      <point x="326" y="727" type="curve" smooth="yes"/>
      <point x="326" y="1125"/>
      <point x="484" y="1402"/>
      <point x="791" y="1402" type="curve" smooth="yes"/>
      <point x="1087" y="1402"/>
      <point x="1252" y="1125"/>
      <point x="1252" y="727" type="curve" smooth="yes"/>
      <point x="1252" y="330"/>
      <point x="1087" y="37"/>
    </contour>
    <contour>
      <point x="1078" y="1798" type="line"/>
      <point x="1056" y="1742"/>
      <point x="951" y="1657"/>
      <point x="801" y="1657" type="curve" smooth="yes"/>
      <point x="652" y="1657"/>
      <point x="546" y="1742"/>
      <point x="524" y="1798" type="curve"/>
      <point x="486" y="1798" type="line"/>
      <point x="505" y="1704"/>
      <point x="596" y="1530"/>
      <point x="801" y="1530" type="curve" smooth="yes"/>
      <point x="1007" y="1530"/>
      <point x="1093" y="1704"/>
      <point x="1112" y="1798" type="curve"/>
    </contour>
  </outline>
</glyph>
<glyph name="uni01C1" format="2">
  <advance width="1050"/>
  <unicode hex="01C1"/>
  <outline>
    <contour>
      <point x="225" y="0" type="line"/>
      <point x="412" y="0" type="line"/>
      <point x="412" y="1586" type="line"/>
      <point x="225" y="1586" type="line"/>
    </contour>
    <contour>
      <point x="637" y="0" type="line"/>
      <point x="825" y="0" type="line"/>
      <point x="825" y="1586" type="line"/>
      <point x="637" y="1586" type="line"/>
    </contour>
  </outline>
</glyph>
<glyph name="uni0212" format="2">
  <advance width="1462"/>
  <unicode hex="0212"/>
  <outline>
    <component base="R"/>
    <contour>
      <point x="170" y="1530" type="line"/>
      <point x="212" y="1586"/>
      <point x="387" y="1671"/>
      <point x="597" y="1671" type="curve" smooth="yes"/>
      <point x="806" y="1671"/>
      <point x="982" y="1586"/>
      <point x="1024" y="1530" type="curve"/>
      <point x="1062" y="1530" type="line"/>
      <point x="1023" y="1624"/>
      <point x="852" y="1798"/>
      <point x="597" y="1798" type="curve" smooth="yes"/>
      <point x="341" y="1798"/>
      <point x="175" y="1624"/>
      <point x="136" y="1530" type="curve"/>
    </contour>
  </outline>
</glyph>
<glyph name="uni0213" format="2">
  <advance width="727"/>
  <unicode hex="0213"/>
  <outline>
    <component base="r"/>
    <contour>
      <point x="90" y="1200" type="line"/>
      <point x="112" y="1256"/>
      <point x="217" y="1341"/>
      <point x="367" y="1341" type="curve" smooth="yes"/>
      <point x="516" y="1341"/>
      <point x="622" y="1256"/>
      <point x="644" y="1200" type="curve"/>
      <point x="682" y="1200" type="line"/>
      <point x="663" y="1294"/>
      <point x="572" y="1468"/>
      <point x="367" y="1468" type="curve" smooth="yes"/>
      <point x="161" y="1468"/>
      <point x="75" y="1294"/>
      <point x="56" y="1200" type="curve"/>
    </contour>
  </outline>
</glyph>
<glyph name="uni0249" format="2">
  <advance width="590"/>
  <unicode hex="0249"/>
  <outline>
    <contour>
      <point x="303" y="1475" type="curve" smooth="yes"/>
      <point x="252" y="1475"/>
      <point x="203" y="1430"/>
      <point x="203" y="1376" type="curve" smooth="yes"/>
      <point x="203" y="1323"/>
      <point x="252" y="1280"/>
      <point x="303" y="1280" type="curve" smooth="yes"/>
      <point x="360" y="1280"/>
      <point x="406" y="1323"/>
      <point x="406" y="1376" type="curve" smooth="yes"/>
      <point x="406" y="1430"/>
      <point x="360" y="1475"/>
    </contour>
    <contour>
      <point x="393" y="993" type="line"/>
      <point x="342" y="993" type="line"/>
      <point x="51" y="862" type="line"/>
      <point x="68" y="825" type="line"/>
      <point x="104" y="836"/>
      <point x="135" y="844"/>
      <point x="154" y="844" type="curve" smooth="yes"/>
      <point x="217" y="844"/>
      <point x="217" y="754"/>
      <point x="217" y="641" type="curve" smooth="yes"/>
      <point x="217" y="-211" type="line" smooth="yes"/>
      <point x="217" y="-338"/>
      <point x="184" y="-379"/>
      <point x="127" y="-379" type="curve" smooth="yes"/>
      <point x="41" y="-379"/>
      <point x="37" y="-252"/>
      <point x="-41" y="-252" type="curve" smooth="yes"/>
      <point x="-98" y="-252"/>
      <point x="-135" y="-281"/>
      <point x="-135" y="-334" type="curve" smooth="yes"/>
      <point x="-135" y="-397"/>
      <point x="-68" y="-451"/>
      <point x="41" y="-451" type="curve" smooth="yes"/>
      <point x="266" y="-451"/>
      <point x="393" y="-406"/>
      <point x="393" y="0" type="curve" smooth="yes"/>
    </contour>
    <contour>
      <point x="74" y="512" type="line"/>
      <point x="74" y="389" type="line"/>
      <point x="537" y="389" type="line"/>
      <point x="537" y="512" type="line"/>
    </contour>
  </outline>
</glyph>
<glyph name="uni024F" format="2">
  <advance width="1106"/>
  <unicode hex="024F"/>
  <outline>
    <contour>
      <point x="535" y="49" type="line"/>
      <point x="475" y="-100" type="line" smooth="yes"/>
      <point x="446" y="-170"/>
      <point x="408" y="-274"/>
      <point x="338" y="-274" type="curve" smooth="yes"/>
      <point x="266" y="-274"/>
      <point x="276" y="-236"/>
      <point x="195" y="-236" type="curve" smooth="yes"/>
      <point x="115" y="-236"/>
      <point x="90" y="-281"/>
      <point x="90" y="-344" type="curve" smooth="yes"/>
      <point x="90" y="-401"/>
      <point x="154" y="-451"/>
      <point x="229" y="-451" type="curve" smooth="yes"/>
      <point x="340" y="-451"/>
      <point x="465" y="-344"/>
      <point x="528" y="-190" type="curve" smooth="yes"/>
      <point x="922" y="766" type="line" smooth="yes"/>
      <point x="973" y="887"/>
      <point x="989" y="934"/>
      <point x="1073" y="934" type="curve"/>
      <point x="1073" y="971" type="line"/>
      <point x="758" y="971" type="line"/>
      <point x="758" y="934" type="line"/>
      <point x="823" y="934"/>
      <point x="852" y="918"/>
      <point x="852" y="874" type="curve" smooth="yes"/>
      <point x="852" y="850"/>
      <point x="842" y="815"/>
      <point x="825" y="768" type="curve"/>
      <point x="625" y="274" type="line"/>
      <point x="434" y="672" type="line" smooth="yes"/>
      <point x="401" y="741"/>
      <point x="360" y="811"/>
      <point x="360" y="858" type="curve" smooth="yes"/>
      <point x="360" y="895"/>
      <point x="371" y="934"/>
      <point x="465" y="934" type="curve"/>
      <point x="465" y="971" type="line"/>
      <point x="18" y="971" type="line"/>
      <point x="18" y="934" type="line"/>
      <point x="86" y="934"/>
      <point x="152" y="858"/>
      <point x="236" y="682" type="curve" smooth="yes"/>
    </contour>
    <contour>
      <point x="61" y="573" type="line"/>
      <point x="61" y="451" type="line"/>
      <point x="1065" y="451" type="line"/>
      <point x="1065" y="573" type="line"/>
    </contour>
  </outline>
</glyph>
<glyph name="uni0263" format="2">
  <advance width="1044"/>
  <unicode hex="0263"/>
  <outline>
    <contour>
      <point x="0" y="969" type="line"/>
      <point x="0" y="932" type="line"/>
      <point x="71" y="932"/>
      <point x="103" y="905"/>
      <point x="154" y="786" type="curve"/>
      <point x="479" y="19" type="line"/>
      <point x="455" y="-48"/>
      <point x="423" y="-141"/>
      <point x="423" y="-208" type="curve" smooth="yes"/>
      <point x="423" y="-318"/>
      <point x="494" y="-412"/>
      <point x="588" y="-412" type="curve" smooth="yes"/>
      <point x="672" y="-412"/>
      <point x="734" y="-337"/>
      <point x="734" y="-235" type="curve" smooth="yes"/>
      <point x="734" y="-172"/>
      <point x="694" y="-75"/>
      <point x="657" y="15" type="curve" smooth="yes"/>
      <point x="610" y="131" type="line"/>
      <point x="890" y="805" type="line"/>
      <point x="926" y="891"/>
      <point x="958" y="932"/>
      <point x="1025" y="932" type="curve"/>
      <point x="1025" y="969" type="line"/>
      <point x="696" y="969" type="line"/>
      <point x="696" y="932" type="line"/>
      <point x="775" y="932"/>
      <point x="819" y="925"/>
      <point x="819" y="890" type="curve" smooth="yes"/>
      <point x="819" y="865"/>
      <point x="808" y="818"/>
      <point x="790" y="775" type="curve" smooth="yes"/>
      <point x="569" y="235" type="line"/>
      <point x="360" y="753" type="line" smooth="yes"/>
      <point x="342" y="797"/>
      <point x="329" y="831"/>
      <point x="329" y="872" type="curve" smooth="yes"/>
      <point x="329" y="906"/>
      <point x="366" y="932"/>
      <point x="438" y="932" type="curve"/>
      <point x="438" y="969" type="line"/>
    </contour>
    <contour>
      <point x="524" y="-88" type="curve"/>
      <point x="554" y="-141"/>
      <point x="569" y="-181"/>
      <point x="569" y="-217" type="curve" smooth="yes"/>
      <point x="569" y="-249"/>
      <point x="552" y="-272"/>
      <point x="533" y="-272" type="curve" smooth="yes"/>
      <point x="514" y="-272"/>
      <point x="494" y="-249"/>
      <point x="494" y="-206" type="curve" smooth="yes"/>
      <point x="494" y="-160"/>
      <point x="501" y="-137"/>
    </contour>
  </outline>
</glyph>
<glyph name="uni0269" format="2">
  <advance width="640"/>
  <unicode hex="0269"/>
  <outline>
    <contour>
      <point x="221" y="225" type="line"/>
      <point x="221" y="90"/>
      <point x="279" y="0"/>
      <point x="399" y="0" type="curve" smooth="yes"/>
      <point x="520" y="0"/>
      <point x="557" y="56"/>
      <point x="603" y="152" type="curve"/>
      <point x="569" y="170" type="line"/>
      <point x="554" y="137"/>
      <point x="518" y="116"/>
      <point x="485" y="116" type="curve" smooth="yes"/>
      <point x="440" y="116"/>
      <point x="397" y="148"/>
      <point x="397" y="225" type="curve" smooth="yes"/>
      <point x="397" y="992" type="line"/>
      <point x="345" y="992" type="line"/>
      <point x="56" y="861" type="line"/>
      <point x="71" y="823" type="line"/>
      <point x="108" y="834"/>
      <point x="139" y="842"/>
      <point x="158" y="842" type="curve" smooth="yes"/>
      <point x="221" y="842"/>
      <point x="221" y="794"/>
      <point x="221" y="682" type="curve" smooth="yes"/>
    </contour>
  </outline>
</glyph>
<glyph name="uni026F" format="2">
  <advance width="1703"/>
  <unicode hex="026F"/>
  <outline>
    <contour>
      <point x="1516" y="744" type="line" smooth="yes"/>
      <point x="1516" y="879"/>
      <point x="1542" y="931"/>
      <point x="1669" y="931" type="curve"/>
      <point x="1669" y="969" type="line"/>
      <point x="1190" y="969" type="line"/>
      <point x="1190" y="931" type="line"/>
      <point x="1318" y="931"/>
      <point x="1340" y="879"/>
      <point x="1340" y="744" type="curve" smooth="yes"/>
      <point x="1340" y="247" type="line"/>
      <point x="1287" y="172"/>
      <point x="1179" y="108"/>
      <point x="1089" y="108" type="curve" smooth="yes"/>
      <point x="1007" y="108"/>
      <point x="932" y="198"/>
      <point x="932" y="310" type="curve" smooth="yes"/>
      <point x="932" y="744" type="line" smooth="yes"/>
      <point x="932" y="879"/>
      <point x="954" y="931"/>
      <point x="1085" y="931" type="curve"/>
      <point x="1085" y="969" type="line"/>
      <point x="603" y="969" type="line"/>
      <point x="603" y="931" type="line"/>
      <point x="730" y="931"/>
      <point x="756" y="879"/>
      <point x="756" y="744" type="curve" smooth="yes"/>
      <point x="756" y="247" type="line"/>
      <point x="711" y="172"/>
      <point x="599" y="108"/>
      <point x="505" y="108" type="curve" smooth="yes"/>
      <point x="420" y="108"/>
      <point x="345" y="198"/>
      <point x="345" y="310" type="curve" smooth="yes"/>
      <point x="345" y="744" type="line" smooth="yes"/>
      <point x="345" y="879"/>
      <point x="370" y="931"/>
      <point x="497" y="931" type="curve"/>
      <point x="497" y="969" type="line"/>
      <point x="19" y="969" type="line"/>
      <point x="19" y="931" type="line"/>
      <point x="146" y="931"/>
      <point x="172" y="879"/>
      <point x="172" y="744" type="curve" smooth="yes"/>
      <point x="172" y="280" type="line" smooth="yes"/>
      <point x="172" y="116"/>
      <point x="277" y="-23"/>
      <point x="412" y="-23" type="curve" smooth="yes"/>
      <point x="547" y="-23"/>
      <point x="700" y="67"/>
      <point x="759" y="183" type="curve"/>
      <point x="778" y="63"/>
      <point x="898" y="-23"/>
      <point x="1003" y="-23" type="curve" smooth="yes"/>
      <point x="1108" y="-23"/>
      <point x="1250" y="71"/>
      <point x="1340" y="179" type="curve"/>
      <point x="1340" y="-23" type="line"/>
      <point x="1393" y="-23" type="line"/>
      <point x="1680" y="108" type="line"/>
      <point x="1666" y="145" type="line"/>
      <point x="1628" y="135"/>
      <point x="1602" y="127"/>
      <point x="1580" y="127" type="curve" smooth="yes"/>
      <point x="1516" y="127"/>
      <point x="1516" y="175"/>
      <point x="1516" y="287" type="curve" smooth="yes"/>
    </contour>
  </outline>
</glyph>
<glyph name="uni0272" format="2">
  <advance width="1096"/>
  <unicode hex="0272"/>
  <outline>
    <contour>
      <point x="363" y="722" type="line"/>
      <point x="438" y="805"/>
      <point x="535" y="861"/>
      <point x="610" y="861" type="curve" smooth="yes"/>
      <point x="692" y="861"/>
      <point x="749" y="794"/>
      <point x="749" y="666" type="curve" smooth="yes"/>
      <point x="749" y="225" type="line" smooth="yes"/>
      <point x="749" y="90"/>
      <point x="726" y="37"/>
      <point x="599" y="37" type="curve"/>
      <point x="599" y="0" type="line"/>
      <point x="1078" y="0" type="line"/>
      <point x="1078" y="37" type="line"/>
      <point x="950" y="37"/>
      <point x="925" y="90"/>
      <point x="925" y="225" type="curve" smooth="yes"/>
      <point x="925" y="696" type="line" smooth="yes"/>
      <point x="925" y="861"/>
      <point x="827" y="992"/>
      <point x="703" y="992" type="curve" smooth="yes"/>
      <point x="584" y="992"/>
      <point x="468" y="925"/>
      <point x="363" y="794" type="curve"/>
      <point x="363" y="992" type="line"/>
      <point x="310" y="992" type="line"/>
      <point x="23" y="861" type="line"/>
      <point x="37" y="823" type="line"/>
      <point x="75" y="836"/>
      <point x="101" y="842"/>
      <point x="123" y="842" type="curve" smooth="yes"/>
      <point x="187" y="842"/>
      <point x="187" y="794"/>
      <point x="187" y="682" type="curve" smooth="yes"/>
      <point x="187" y="-37" type="line"/>
      <point x="187" y="-176"/>
      <point x="150" y="-294"/>
      <point x="86" y="-294" type="curve" smooth="yes"/>
      <point x="46" y="-294"/>
      <point x="23" y="-273"/>
      <point x="-13" y="-232" type="curve" smooth="yes"/>
      <point x="-35" y="-206"/>
      <point x="-66" y="-179"/>
      <point x="-120" y="-179" type="curve" smooth="yes"/>
      <point x="-189" y="-179"/>
      <point x="-225" y="-234"/>
      <point x="-225" y="-289" type="curve" smooth="yes"/>
      <point x="-225" y="-345"/>
      <point x="-179" y="-378"/>
      <point x="-137" y="-403" type="curve"/>
      <point x="-81" y="-432"/>
      <point x="-35" y="-449"/>
      <point x="88" y="-449" type="curve"/>
      <point x="243" y="-449"/>
      <point x="363" y="-329"/>
      <point x="363" y="-37" type="curve"/>
    </contour>
  </outline>
</glyph>
<glyph name="uni027A" format="2">
  <advance width="726"/>
  <unicode hex="027A"/>
  <outline>
    <contour>
      <point x="408" y="1164" type="curve"/>
      <point x="408" y="276" type="line"/>
      <point x="360" y="191"/>
      <point x="310" y="127"/>
      <point x="266" y="127" type="curve" smooth="yes"/>
      <point x="206" y="127"/>
      <point x="198" y="191"/>
      <point x="120" y="191" type="curve" smooth="yes"/>
      <point x="56" y="191"/>
      <point x="19" y="156"/>
      <point x="19" y="93" type="curve" smooth="yes"/>
      <point x="19" y="29"/>
      <point x="79" y="-23"/>
      <point x="154" y="-23" type="curve" smooth="yes"/>
      <point x="251" y="-23"/>
      <point x="337" y="71"/>
      <point x="408" y="179" type="curve"/>
      <point x="408" y="-23" type="line"/>
      <point x="457" y="-23" type="line"/>
      <point x="745" y="108" type="line"/>
      <point x="734" y="145" type="line"/>
      <point x="692" y="135"/>
      <point x="666" y="127"/>
      <point x="644" y="127" type="curve" smooth="yes"/>
      <point x="580" y="127"/>
      <point x="580" y="175"/>
      <point x="580" y="287" type="curve" smooth="yes"/>
      <point x="580" y="1471" type="line"/>
      <point x="531" y="1471" type="line"/>
      <point x="243" y="1343" type="line"/>
      <point x="258" y="1302" type="line"/>
      <point x="296" y="1314"/>
      <point x="325" y="1321"/>
      <point x="344" y="1321" type="curve" smooth="yes"/>
      <point x="408" y="1321"/>
      <point x="408" y="1273"/>
    </contour>
  </outline>
</glyph>
<glyph name="uni027D" format="2">
  <advance width="726"/>
  <unicode hex="027D"/>
  <outline>
    <contour>
      <point x="183" y="-94" type="line"/>
      <point x="183" y="-292"/>
      <point x="329" y="-449"/>
      <point x="513" y="-449" type="curve" smooth="yes"/>
      <point x="688" y="-449"/>
      <point x="823" y="-397"/>
      <point x="823" y="-277" type="curve" smooth="yes"/>
      <point x="823" y="-221"/>
      <point x="786" y="-195"/>
      <point x="738" y="-195" type="curve" smooth="yes"/>
      <point x="607" y="-195"/>
      <point x="647" y="-378"/>
      <point x="505" y="-378" type="curve" smooth="yes"/>
      <point x="430" y="-378"/>
      <point x="356" y="-295"/>
      <point x="356" y="-195" type="curve" smooth="yes"/>
      <point x="356" y="692" type="line"/>
      <point x="404" y="778"/>
      <point x="453" y="842"/>
      <point x="497" y="842" type="curve" smooth="yes"/>
      <point x="557" y="842"/>
      <point x="565" y="778"/>
      <point x="644" y="778" type="curve" smooth="yes"/>
      <point x="707" y="778"/>
      <point x="745" y="813"/>
      <point x="745" y="876" type="curve" smooth="yes"/>
      <point x="745" y="940"/>
      <point x="685" y="992"/>
      <point x="610" y="992" type="curve" smooth="yes"/>
      <point x="513" y="992"/>
      <point x="426" y="898"/>
      <point x="356" y="790" type="curve"/>
      <point x="356" y="992" type="line"/>
      <point x="307" y="992" type="line"/>
      <point x="19" y="861" type="line"/>
      <point x="30" y="823" type="line"/>
      <point x="71" y="834"/>
      <point x="98" y="842"/>
      <point x="120" y="842" type="curve" smooth="yes"/>
      <point x="183" y="842"/>
      <point x="183" y="794"/>
      <point x="183" y="682" type="curve" smooth="yes"/>
    </contour>
  </outline>
</glyph>
<glyph name="uni0281" format="2">
  <advance width="1214"/>
  <unicode hex="0281"/>
  <outline>
    <contour>
      <point x="214" y="156" type="line"/>
      <point x="214" y="50"/>
      <point x="164" y="25"/>
      <point x="37" y="25" type="curve"/>
      <point x="37" y="0" type="line"/>
      <point x="599" y="0" type="line"/>
      <point x="904" y="0"/>
      <point x="1042" y="96"/>
      <point x="1042" y="246" type="curve" smooth="yes"/>
      <point x="1042" y="370"/>
      <point x="932" y="453"/>
      <point x="734" y="488" type="curve"/>
      <point x="956" y="798" type="line"/>
      <point x="1050" y="909"/>
      <point x="1100" y="942"/>
      <point x="1177" y="942" type="curve"/>
      <point x="1177" y="969" type="line"/>
      <point x="865" y="969" type="line"/>
      <point x="532" y="501" type="line"/>
      <point x="399" y="501" type="line"/>
      <point x="399" y="811" type="line"/>
      <point x="399" y="917"/>
      <point x="447" y="942"/>
      <point x="572" y="942" type="curve"/>
      <point x="572" y="969" type="line"/>
      <point x="37" y="969" type="line"/>
      <point x="37" y="942" type="line"/>
      <point x="164" y="942"/>
      <point x="214" y="917"/>
      <point x="214" y="811" type="curve"/>
    </contour>
    <contour>
      <point x="399" y="453" type="line"/>
      <point x="509" y="453" type="line"/>
      <point x="696" y="453"/>
      <point x="840" y="381"/>
      <point x="840" y="252" type="curve" smooth="yes"/>
      <point x="840" y="134"/>
      <point x="722" y="50"/>
      <point x="565" y="50" type="curve" smooth="yes"/>
      <point x="514" y="50"/>
      <point x="428" y="60"/>
      <point x="399" y="71" type="curve"/>
    </contour>
  </outline>
  <guideline angle="125.443" x="865" y="0"/>
  <guideline angle="125.443" x="1076" y="0"/>
</glyph>
<glyph name="uni0283" format="2">
  <advance width="790"/>
  <unicode hex="0283"/>
  <outline>
    <contour>
      <point x="565" y="-94" type="curve" smooth="yes"/>
      <point x="565" y="-10"/>
      <point x="557" y="58"/>
      <point x="542" y="150" type="curve" smooth="yes"/>
      <point x="505" y="374"/>
      <point x="459" y="717"/>
      <point x="421" y="942" type="curve" smooth="yes"/>
      <point x="404" y="1046"/>
      <point x="401" y="1112"/>
      <point x="401" y="1216" type="curve" smooth="yes"/>
      <point x="401" y="1318"/>
      <point x="472" y="1400"/>
      <point x="547" y="1400" type="curve" smooth="yes"/>
      <point x="688" y="1400"/>
      <point x="647" y="1216"/>
      <point x="778" y="1216" type="curve" smooth="yes"/>
      <point x="827" y="1216"/>
      <point x="865" y="1243"/>
      <point x="865" y="1299" type="curve" smooth="yes"/>
      <point x="865" y="1418"/>
      <point x="730" y="1471"/>
      <point x="554" y="1471" type="curve" smooth="yes"/>
      <point x="370" y="1471"/>
      <point x="225" y="1314"/>
      <point x="225" y="1115" type="curve" smooth="yes"/>
      <point x="225" y="1031"/>
      <point x="234" y="954"/>
      <point x="248" y="872" type="curve" smooth="yes"/>
      <point x="285" y="647"/>
      <point x="333" y="318"/>
      <point x="369" y="84" type="curve" smooth="yes"/>
      <point x="387" y="-33"/>
      <point x="389" y="-75"/>
      <point x="389" y="-195" type="curve" smooth="yes"/>
      <point x="389" y="-295"/>
      <point x="318" y="-378"/>
      <point x="243" y="-378" type="curve" smooth="yes"/>
      <point x="101" y="-378"/>
      <point x="142" y="-195"/>
      <point x="11" y="-195" type="curve" smooth="yes"/>
      <point x="-37" y="-195"/>
      <point x="-75" y="-221"/>
      <point x="-75" y="-277" type="curve" smooth="yes"/>
      <point x="-75" y="-397"/>
      <point x="60" y="-449"/>
      <point x="235" y="-449" type="curve" smooth="yes"/>
      <point x="420" y="-449"/>
      <point x="565" y="-292"/>
    </contour>
  </outline>
</glyph>
<glyph name="uni0292" format="2">
  <advance width="1044"/>
  <unicode hex="0292"/>
  <outline>
    <contour>
      <point x="894" y="932" type="line"/>
      <point x="894" y="969" type="line"/>
      <point x="90" y="969" type="line"/>
      <point x="90" y="625" type="line"/>
      <point x="127" y="625" type="line"/>
      <point x="127" y="707"/>
      <point x="150" y="759"/>
      <point x="176" y="786" type="curve"/>
      <point x="198" y="805"/>
      <point x="232" y="823"/>
      <point x="299" y="823" type="curve" smooth="yes"/>
      <point x="703" y="823" type="line"/>
      <point x="343" y="389" type="line"/>
      <point x="356" y="374" type="line"/>
      <point x="408" y="406"/>
      <point x="459" y="416"/>
      <point x="505" y="416" type="curve" smooth="yes"/>
      <point x="688" y="416"/>
      <point x="813" y="243"/>
      <point x="813" y="-4" type="curve" smooth="yes"/>
      <point x="813" y="-229"/>
      <point x="663" y="-378"/>
      <point x="501" y="-378" type="curve" smooth="yes"/>
      <point x="345" y="-378"/>
      <point x="277" y="-292"/>
      <point x="277" y="-179" type="curve" smooth="yes"/>
      <point x="277" y="-129"/>
      <point x="235" y="-71"/>
      <point x="176" y="-71" type="curve" smooth="yes"/>
      <point x="116" y="-71"/>
      <point x="56" y="-120"/>
      <point x="56" y="-179" type="curve" smooth="yes"/>
      <point x="56" y="-310"/>
      <point x="217" y="-449"/>
      <point x="472" y="-449" type="curve" smooth="yes"/>
      <point x="801" y="-449"/>
      <point x="988" y="-214"/>
      <point x="988" y="83" type="curve" smooth="yes"/>
      <point x="988" y="341"/>
      <point x="811" y="554"/>
      <point x="589" y="565" type="curve"/>
    </contour>
  </outline>
</glyph>
<glyph name="uni029C" format="2">
  <advance width="1342"/>
  <unicode hex="029C"/>
  <outline>
    <contour>
      <point x="947" y="491" type="line"/>
      <point x="947" y="158" type="line" smooth="yes"/>
      <point x="947" y="52"/>
      <point x="900" y="27"/>
      <point x="778" y="27" type="curve"/>
      <point x="778" y="0" type="line"/>
      <point x="1304" y="0" type="line"/>
      <point x="1304" y="27" type="line"/>
      <point x="1179" y="27"/>
      <point x="1134" y="52"/>
      <point x="1134" y="158" type="curve" smooth="yes"/>
      <point x="1134" y="811" type="line" smooth="yes"/>
      <point x="1134" y="917"/>
      <point x="1179" y="942"/>
      <point x="1304" y="942" type="curve"/>
      <point x="1304" y="969" type="line"/>
      <point x="778" y="969" type="line"/>
      <point x="778" y="942" type="line"/>
      <point x="900" y="942"/>
      <point x="947" y="917"/>
      <point x="947" y="811" type="curve" smooth="yes"/>
      <point x="947" y="541" type="line"/>
      <point x="395" y="541" type="line"/>
      <point x="395" y="811" type="line" smooth="yes"/>
      <point x="395" y="917"/>
      <point x="441" y="942"/>
      <point x="563" y="942" type="curve"/>
      <point x="563" y="969" type="line"/>
      <point x="37" y="969" type="line"/>
      <point x="37" y="942" type="line"/>
      <point x="163" y="942"/>
      <point x="210" y="917"/>
      <point x="210" y="811" type="curve" smooth="yes"/>
      <point x="210" y="158" type="line" smooth="yes"/>
      <point x="210" y="52"/>
      <point x="163" y="27"/>
      <point x="37" y="27" type="curve"/>
      <point x="37" y="0" type="line"/>
      <point x="563" y="0" type="line"/>
      <point x="563" y="27" type="line"/>
      <point x="441" y="27"/>
      <point x="395" y="52"/>
      <point x="395" y="158" type="curve" smooth="yes"/>
      <point x="395" y="491" type="line"/>
    </contour>
  </outline>
</glyph>
<glyph name="uni02BC" format="2">
  <advance width="400"/>
  <unicode hex="02BC"/>
  <outline>
    <contour>
      <point x="165" y="1052" type="line"/>
      <point x="243" y="1243"/>
      <point x="287" y="1375"/>
      <point x="297" y="1433" type="curve"/>
      <point x="299" y="1442"/>
      <point x="300" y="1451"/>
      <point x="300" y="1460" type="curve" smooth="yes"/>
      <point x="300" y="1470"/>
      <point x="299" y="1480"/>
      <point x="296" y="1488" type="curve"/>
      <point x="288" y="1520"/>
      <point x="263" y="1545"/>
      <point x="223" y="1551" type="curve"/>
      <point x="214" y="1552"/>
      <point x="206" y="1553"/>
      <point x="199" y="1553" type="curve" smooth="yes"/>
      <point x="192" y="1553"/>
      <point x="185" y="1552"/>
      <point x="178" y="1550" type="curve" smooth="yes"/>
      <point x="143" y="1540"/>
      <point x="119" y="1508"/>
      <point x="112" y="1465" type="curve" smooth="yes"/>
      <point x="105" y="1423"/>
      <point x="101" y="1342"/>
      <point x="101" y="1225" type="curve" smooth="yes"/>
      <point x="101" y="1181"/>
      <point x="103" y="1132"/>
      <point x="103" y="1078" type="curve" smooth="yes"/>
      <point x="103" y="1062" type="line"/>
    </contour>
  </outline>
</glyph>
<glyph name="uni02C0" format="2">
  <advance width="595"/>
  <unicode hex="02C0"/>
  <outline>
    <contour>
      <point x="227" y="942" type="curve" smooth="yes"/>
      <point x="227" y="852"/>
      <point x="212" y="818"/>
      <point x="129" y="818" type="curve"/>
      <point x="129" y="794" type="line"/>
      <point x="420" y="794" type="line"/>
      <point x="420" y="818" type="line"/>
      <point x="335" y="818"/>
      <point x="318" y="850"/>
      <point x="318" y="938" type="curve"/>
      <point x="318" y="1212"/>
      <point x="557" y="1306"/>
      <point x="557" y="1538" type="curve"/>
      <point x="557" y="1678"/>
      <point x="447" y="1763"/>
      <point x="292" y="1763" type="curve" smooth="yes"/>
      <point x="177" y="1763"/>
      <point x="37" y="1697"/>
      <point x="37" y="1551" type="curve" smooth="yes"/>
      <point x="37" y="1489"/>
      <point x="71" y="1454"/>
      <point x="116" y="1454" type="curve" smooth="yes"/>
      <point x="146" y="1454"/>
      <point x="170" y="1474"/>
      <point x="170" y="1512" type="curve" smooth="yes"/>
      <point x="170" y="1556"/>
      <point x="125" y="1589"/>
      <point x="125" y="1632" type="curve"/>
      <point x="125" y="1678"/>
      <point x="187" y="1713"/>
      <point x="256" y="1713" type="curve" smooth="yes"/>
      <point x="350" y="1713"/>
      <point x="416" y="1651"/>
      <point x="416" y="1529" type="curve" smooth="yes"/>
      <point x="416" y="1304"/>
      <point x="227" y="1190"/>
    </contour>
  </outline>
</glyph>
<glyph name="uni02C8" format="2">
  <advance width="450"/>
  <unicode hex="02C8"/>
  <outline>
    <contour>
      <point x="150" y="900" type="line"/>
      <point x="300" y="900" type="line"/>
      <point x="300" y="1586" type="line"/>
      <point x="150" y="1586" type="line"/>
    </contour>
  </outline>
</glyph>
<glyph name="uni0303" format="2">
  <unicode hex="0303"/>
  <outline>
    <contour>
      <point x="-824" y="1197" type="line"/>
      <point x="-812" y="1257"/>
      <point x="-787" y="1347"/>
      <point x="-712" y="1347" type="curve" smooth="yes"/>
      <point x="-667" y="1347"/>
      <point x="-613" y="1312"/>
      <point x="-553" y="1272" type="curve" smooth="yes"/>
      <point x="-493" y="1232"/>
      <point x="-430" y="1197"/>
      <point x="-359" y="1197" type="curve" smooth="yes"/>
      <point x="-201" y="1197"/>
      <point x="-146" y="1347"/>
      <point x="-146" y="1478" type="curve"/>
      <point x="-176" y="1478" type="line"/>
      <point x="-187" y="1418"/>
      <point x="-213" y="1332"/>
      <point x="-288" y="1332" type="curve" smooth="yes"/>
      <point x="-333" y="1332"/>
      <point x="-387" y="1363"/>
      <point x="-447" y="1403" type="curve" smooth="yes"/>
      <point x="-507" y="1443"/>
      <point x="-570" y="1478"/>
      <point x="-641" y="1478" type="curve" smooth="yes"/>
      <point x="-799" y="1478"/>
      <point x="-854" y="1332"/>
      <point x="-854" y="1197" type="curve"/>
    </contour>
  </outline>
</glyph>
<glyph name="uni030B" format="2">
  <unicode hex="030B"/>
  <outline>
    <contour>
      <point x="-359" y="1067" type="line"/>
      <point x="-235" y="1232"/>
      <point x="-156" y="1348"/>
      <point x="-132" y="1401" type="curve"/>
      <point x="-124" y="1419"/>
      <point x="-120" y="1437"/>
      <point x="-120" y="1454" type="curve" smooth="yes"/>
      <point x="-120" y="1488"/>
      <point x="-136" y="1517"/>
      <point x="-173" y="1534" type="curve" smooth="yes"/>
      <point x="-188" y="1541"/>
      <point x="-202" y="1545"/>
      <point x="-216" y="1545" type="curve" smooth="yes"/>
      <point x="-253" y="1545"/>
      <point x="-285" y="1520"/>
      <point x="-303" y="1480" type="curve" smooth="yes"/>
      <point x="-327" y="1426"/>
      <point x="-368" y="1294"/>
      <point x="-416" y="1093" type="curve"/>
    </contour>
    <contour>
      <point x="-676" y="1067" type="line"/>
      <point x="-551" y="1232"/>
      <point x="-474" y="1348"/>
      <point x="-450" y="1401" type="curve"/>
      <point x="-441" y="1420"/>
      <point x="-436" y="1438"/>
      <point x="-436" y="1455" type="curve" smooth="yes"/>
      <point x="-436" y="1488"/>
      <point x="-454" y="1518"/>
      <point x="-491" y="1534" type="curve"/>
      <point x="-506" y="1541"/>
      <point x="-520" y="1545"/>
      <point x="-534" y="1545" type="curve" smooth="yes"/>
      <point x="-571" y="1545"/>
      <point x="-602" y="1520"/>
      <point x="-620" y="1480" type="curve" smooth="yes"/>
      <point x="-645" y="1426"/>
      <point x="-685" y="1294"/>
      <point x="-733" y="1093" type="curve"/>
    </contour>
  </outline>
</glyph>
<glyph name="uni031A" format="2">
  <unicode hex="031A"/>
  <outline>
    <contour>
      <point x="-219" y="988" type="line"/>
      <point x="-107" y="988" type="line"/>
      <point x="-107" y="1437" type="line"/>
      <point x="-500" y="1437" type="line"/>
      <point x="-500" y="1325" type="line"/>
      <point x="-219" y="1325" type="line"/>
    </contour>
  </outline>
</glyph>
<glyph name="uni031D" format="2">
  <unicode hex="031D"/>
  <outline>
    <contour>
      <point x="-313" y="-487" type="line"/>
      <point x="-313" y="-374" type="line"/>
      <point x="-444" y="-374" type="line"/>
      <point x="-444" y="-150" type="line"/>
      <point x="-556" y="-150" type="line"/>
      <point x="-556" y="-374" type="line"/>
      <point x="-687" y="-374" type="line"/>
      <point x="-687" y="-487" type="line"/>
    </contour>
  </outline>
</glyph>
<glyph name="uni031E" format="2">
  <unicode hex="031E"/>
  <outline>
    <contour>
      <point x="-313" y="-262" type="line"/>
      <point x="-313" y="-150" type="line"/>
      <point x="-687" y="-150" type="line"/>
      <point x="-687" y="-262" type="line"/>
      <point x="-556" y="-262" type="line"/>
      <point x="-556" y="-487" type="line"/>
      <point x="-444" y="-487" type="line"/>
      <point x="-444" y="-262" type="line"/>
    </contour>
  </outline>
</glyph>
<glyph name="uni0329" format="2">
  <unicode hex="0329"/>
  <outline>
    <contour>
      <point x="-556" y="-524" type="line"/>
      <point x="-444" y="-524" type="line"/>
      <point x="-444" y="-150" type="line"/>
      <point x="-556" y="-150" type="line"/>
    </contour>
  </outline>
</glyph>
<glyph name="uni0337" format="2">
  <unicode hex="0337"/>
  <outline>
    <contour>
      <point x="-913" y="146" type="line"/>
      <point x="-811" y="61" type="line"/>
      <point x="-162" y="834" type="line"/>
      <point x="-264" y="920" type="line"/>
    </contour>
  </outline>
</glyph>
<glyph name="uni033B" format="2">
  <unicode hex="033B"/>
  <outline>
    <contour>
      <point x="-780" y="-150" type="line"/>
      <point x="-780" y="-711" type="line"/>
      <point x="-220" y="-711" type="line"/>
      <point x="-220" y="-150" type="line"/>
    </contour>
    <contour>
      <point x="-668" y="-262" type="line"/>
      <point x="-332" y="-262" type="line"/>
      <point x="-332" y="-599" type="line"/>
      <point x="-668" y="-599" type="line"/>
    </contour>
  </outline>
</glyph>
<glyph name="uni033C" format="2">
  <unicode hex="033C"/>
  <outline>
    <contour>
      <point x="-780" y="-356" type="line"/>
      <point x="-757" y="-299"/>
      <point x="-724" y="-243"/>
      <point x="-649" y="-243" type="curve" smooth="yes"/>
      <point x="-593" y="-243"/>
      <point x="-540" y="-299"/>
      <point x="-518" y="-356" type="curve"/>
      <point x="-480" y="-356" type="line"/>
      <point x="-458" y="-299"/>
      <point x="-424" y="-243"/>
      <point x="-349" y="-243" type="curve" smooth="yes"/>
      <point x="-293" y="-243"/>
      <point x="-241" y="-299"/>
      <point x="-218" y="-356" type="curve"/>
      <point x="-181" y="-356" type="line"/>
      <point x="-200" y="-262"/>
      <point x="-256" y="-150"/>
      <point x="-349" y="-150" type="curve" smooth="yes"/>
      <point x="-434" y="-150"/>
      <point x="-476" y="-214"/>
      <point x="-500" y="-286" type="curve"/>
      <point x="-528" y="-214"/>
      <point x="-578" y="-150"/>
      <point x="-649" y="-150" type="curve" smooth="yes"/>
      <point x="-761" y="-150"/>
      <point x="-798" y="-262"/>
      <point x="-817" y="-356" type="curve"/>
    </contour>
  </outline>
</glyph>
<glyph name="uni0361" format="2">
  <unicode hex="0361"/>
  <outline>
    <contour>
      <point x="0" y="1823" type="curve" smooth="yes"/>
      <point x="210" y="1823"/>
      <point x="722" y="1692"/>
      <point x="831" y="1542" type="curve"/>
      <point x="842" y="1531"/>
      <point x="850" y="1524"/>
      <point x="857" y="1524" type="curve" smooth="yes"/>
      <point x="865" y="1524"/>
      <point x="869" y="1531"/>
      <point x="869" y="1542" type="curve"/>
      <point x="838" y="1655"/>
      <point x="393" y="1973"/>
      <point x="0" y="1973" type="curve" smooth="yes"/>
      <point x="-385" y="1973"/>
      <point x="-838" y="1655"/>
      <point x="-869" y="1542" type="curve"/>
      <point x="-869" y="1531"/>
      <point x="-865" y="1524"/>
      <point x="-857" y="1524" type="curve" smooth="yes"/>
      <point x="-850" y="1524"/>
      <point x="-842" y="1531"/>
      <point x="-831" y="1542" type="curve"/>
      <point x="-722" y="1692"/>
      <point x="-210" y="1823"/>
    </contour>
  </outline>
</glyph>
<glyph name="uni1792" format="2">
  <advance width="1425"/>
  <unicode hex="1792"/>
  <anchor x="1200" y="0" name="L"/>
  <anchor x="750" y="1440" name="MA"/>
  <anchor x="1200" y="1440" name="U"/>
  <outline>
    <contour>
      <point x="1050" y="214" type="line" smooth="yes"/>
      <point x="1050" y="172"/>
      <point x="1032" y="150"/>
      <point x="998" y="150" type="curve" smooth="yes"/>
      <point x="979" y="150"/>
      <point x="923" y="188"/>
      <point x="848" y="247" type="curve" smooth="yes"/>
      <point x="817" y="271"/>
      <point x="780" y="300"/>
      <point x="750" y="300" type="curve" smooth="yes"/>
      <point x="720" y="300"/>
      <point x="683" y="271"/>
      <point x="652" y="247" type="curve" smooth="yes"/>
      <point x="577" y="188"/>
      <point x="522" y="150"/>
      <point x="503" y="150" type="curve" smooth="yes"/>
      <point x="469" y="150"/>
      <point x="450" y="172"/>
      <point x="450" y="214" type="curve" smooth="yes"/>
      <point x="450" y="1046" type="line"/>
      <point x="357" y="1054"/>
      <point x="266" y="1119"/>
      <point x="266" y="1175" type="curve" smooth="yes"/>
      <point x="266" y="1260"/>
      <point x="350" y="1294"/>
      <point x="435" y="1294" type="curve" smooth="yes"/>
      <point x="581" y="1294"/>
      <point x="679" y="1228"/>
      <point x="750" y="1181" type="curve"/>
      <point x="836" y="1241"/>
      <point x="904" y="1290"/>
      <point x="1029" y="1290" type="curve" smooth="yes"/>
      <point x="1106" y="1290"/>
      <point x="1148" y="1207"/>
      <point x="1219" y="1207" type="curve" smooth="yes"/>
      <point x="1305" y="1207"/>
      <point x="1345" y="1238"/>
      <point x="1350" y="1342" type="curve"/>
      <point x="1335" y="1335"/>
      <point x="1324" y="1331"/>
      <point x="1312" y="1331" type="curve" smooth="yes"/>
      <point x="1267" y="1331"/>
      <point x="1209" y="1368"/>
      <point x="1181" y="1387" type="curve" smooth="yes"/>
      <point x="1131" y="1420"/>
      <point x="1092" y="1440"/>
      <point x="1020" y="1440" type="curve" smooth="yes"/>
      <point x="874" y="1440"/>
      <point x="820" y="1381"/>
      <point x="750" y="1309" type="curve"/>
      <point x="654" y="1393"/>
      <point x="539" y="1440"/>
      <point x="394" y="1440" type="curve" smooth="yes"/>
      <point x="274" y="1440"/>
      <point x="169" y="1319"/>
      <point x="169" y="1189" type="curve" smooth="yes"/>
      <point x="169" y="1109"/>
      <point x="241" y="1058"/>
      <point x="300" y="1028" type="curve"/>
      <point x="300" y="67" type="line" smooth="yes"/>
      <point x="300" y="34"/>
      <point x="334" y="0"/>
      <point x="368" y="0" type="curve" smooth="yes"/>
      <point x="450" y="0" type="line" smooth="yes"/>
      <point x="495" y="0"/>
      <point x="557" y="46"/>
      <point x="588" y="71" type="curve" smooth="yes"/>
      <point x="658" y="127"/>
      <point x="725" y="180"/>
      <point x="750" y="180" type="curve" smooth="yes"/>
      <point x="775" y="180"/>
      <point x="842" y="127"/>
      <point x="912" y="71" type="curve" smooth="yes"/>
      <point x="944" y="46"/>
      <point x="1005" y="0"/>
      <point x="1050" y="0" type="curve" smooth="yes"/>
      <point x="1133" y="0" type="line" smooth="yes"/>
      <point x="1167" y="0"/>
      <point x="1200" y="34"/>
      <point x="1200" y="67" type="curve" smooth="yes"/>
      <point x="1200" y="911" type="line"/>
      <point x="1174" y="975"/>
      <point x="1106" y="990"/>
      <point x="1050" y="990" type="curve"/>
      <point x="896" y="960"/>
      <point x="825" y="821"/>
      <point x="825" y="742" type="curve" smooth="yes"/>
      <point x="825" y="611"/>
      <point x="926" y="544"/>
      <point x="1050" y="540" type="curve"/>
    </contour>
    <contour>
      <point x="955" y="739" type="curve" smooth="yes"/>
      <point x="955" y="802"/>
      <point x="994" y="833"/>
      <point x="1050" y="860" type="curve"/>
      <point x="1050" y="670" type="line"/>
      <point x="1001" y="670"/>
      <point x="955" y="709"/>
    </contour>
  </outline>
</glyph>
<glyph name="uni179C" format="2">
  <advance width="715"/>
  <unicode hex="179C"/>
  <anchor x="375" y="0" name="M"/>
  <anchor x="375" y="1792" name="MA"/>
  <anchor x="487" y="1702" name="U"/>
  <outline>
    <contour>
      <point x="490" y="979" type="line" smooth="yes"/>
      <point x="490" y="1027"/>
      <point x="430" y="1057"/>
      <point x="359" y="1091" type="curve" smooth="yes"/>
      <point x="303" y="1117"/>
      <point x="254" y="1147"/>
      <point x="254" y="1211" type="curve" smooth="yes"/>
      <point x="254" y="1260"/>
      <point x="288" y="1301"/>
      <point x="337" y="1301" type="curve" smooth="yes"/>
      <point x="385" y="1301"/>
      <point x="438" y="1222"/>
      <point x="528" y="1222" type="curve" smooth="yes"/>
      <point x="614" y="1222"/>
      <point x="663" y="1256"/>
      <point x="663" y="1451" type="curve" smooth="yes"/>
      <point x="663" y="1609"/>
      <point x="543" y="1792"/>
      <point x="355" y="1792" type="curve" smooth="yes"/>
      <point x="299" y="1792"/>
      <point x="265" y="1766"/>
      <point x="265" y="1721" type="curve" smooth="yes"/>
      <point x="265" y="1650"/>
      <point x="337" y="1616"/>
      <point x="416" y="1592" type="curve" smooth="yes"/>
      <point x="517" y="1560"/>
      <point x="588" y="1515"/>
      <point x="588" y="1421" type="curve" smooth="yes"/>
      <point x="588" y="1384"/>
      <point x="577" y="1365"/>
      <point x="558" y="1365" type="curve" smooth="yes"/>
      <point x="517" y="1365"/>
      <point x="457" y="1440"/>
      <point x="385" y="1440" type="curve" smooth="yes"/>
      <point x="280" y="1440"/>
      <point x="168" y="1305"/>
      <point x="168" y="1189" type="curve" smooth="yes"/>
      <point x="168" y="1114"/>
      <point x="187" y="1057"/>
      <point x="262" y="1016" type="curve"/>
      <point x="303" y="997"/>
      <point x="340" y="971"/>
      <point x="340" y="922" type="curve" smooth="yes"/>
      <point x="340" y="450" type="line"/>
      <point x="217" y="446"/>
      <point x="115" y="379"/>
      <point x="115" y="247" type="curve" smooth="yes"/>
      <point x="115" y="169"/>
      <point x="187" y="30"/>
      <point x="340" y="0" type="curve"/>
      <point x="397" y="0"/>
      <point x="464" y="15"/>
      <point x="490" y="79" type="curve"/>
    </contour>
    <contour>
      <point x="245" y="251" type="curve" smooth="yes"/>
      <point x="245" y="281"/>
      <point x="292" y="320"/>
      <point x="340" y="320" type="curve"/>
      <point x="340" y="130" type="line"/>
      <point x="284" y="156"/>
      <point x="245" y="187"/>
    </contour>
  </outline>
</glyph>
<glyph name="uni17BE" format="2">
  <advance width="2100"/>
  <unicode hex="17BE"/>
  <anchor x="1837" y="0" name="L"/>
  <anchor x="1444" y="1972" name="MA"/>
  <anchor x="1834" y="1972" name="U"/>
  <outline>
    <contour>
      <point x="1327" y="1676" type="curve" smooth="yes"/>
      <point x="1579" y="1676"/>
      <point x="1762" y="1590"/>
      <point x="1890" y="1590" type="curve" smooth="yes"/>
      <point x="1903" y="1590"/>
      <point x="1914" y="1596"/>
      <point x="1924" y="1605" type="curve"/>
      <point x="2002" y="1706"/>
      <point x="2040" y="1807"/>
      <point x="2040" y="1916" type="curve" smooth="yes"/>
      <point x="2040" y="1972"/>
      <point x="2039" y="2028"/>
      <point x="1974" y="2079" type="curve" smooth="yes"/>
      <point x="1951" y="2097"/>
      <point x="1931" y="2100"/>
      <point x="1905" y="2100" type="curve" smooth="yes"/>
      <point x="1861" y="2100"/>
      <point x="1837" y="2063"/>
      <point x="1837" y="2027" type="curve" smooth="yes"/>
      <point x="1837" y="1997"/>
      <point x="1845" y="1986"/>
      <point x="1864" y="1965" type="curve" smooth="yes"/>
      <point x="1903" y="1921"/>
      <point x="1910" y="1882"/>
      <point x="1910" y="1841" type="curve" smooth="yes"/>
      <point x="1910" y="1821"/>
      <point x="1906" y="1797"/>
      <point x="1901" y="1774" type="curve"/>
      <point x="1772" y="1937"/>
      <point x="1535" y="2062"/>
      <point x="1357" y="2062" type="curve" smooth="yes"/>
      <point x="1162" y="2062"/>
      <point x="975" y="1935"/>
      <point x="975" y="1804" type="curve" smooth="yes"/>
      <point x="975" y="1717"/>
      <point x="1031" y="1665"/>
      <point x="1110" y="1665" type="curve" smooth="yes"/>
      <point x="1181" y="1665"/>
      <point x="1282" y="1676"/>
    </contour>
    <contour>
      <point x="1755" y="1744" type="curve"/>
      <point x="1714" y="1744"/>
      <point x="1522" y="1806"/>
      <point x="1346" y="1806" type="curve" smooth="yes"/>
      <point x="1290" y="1806"/>
      <point x="1239" y="1796"/>
      <point x="1181" y="1796" type="curve" smooth="yes"/>
      <point x="1155" y="1796"/>
      <point x="1140" y="1804"/>
      <point x="1140" y="1819" type="curve" smooth="yes"/>
      <point x="1140" y="1875"/>
      <point x="1271" y="1932"/>
      <point x="1369" y="1932" type="curve" smooth="yes"/>
      <point x="1511" y="1932"/>
      <point x="1687" y="1822"/>
    </contour>
    <contour>
      <point x="490" y="320" type="line"/>
      <point x="539" y="320"/>
      <point x="585" y="281"/>
      <point x="585" y="251" type="curve" smooth="yes"/>
      <point x="585" y="187"/>
      <point x="542" y="153"/>
      <point x="490" y="130" type="curve"/>
    </contour>
    <contour>
      <point x="1390" y="75" type="curve" smooth="yes"/>
      <point x="1390" y="34"/>
      <point x="1424" y="0"/>
      <point x="1465" y="0" type="curve" smooth="yes"/>
      <point x="1506" y="0"/>
      <point x="1540" y="34"/>
      <point x="1540" y="75" type="curve" smooth="yes"/>
      <point x="1540" y="116"/>
      <point x="1506" y="150"/>
      <point x="1465" y="150" type="curve" smooth="yes"/>
      <point x="1424" y="150"/>
      <point x="1390" y="116"/>
    </contour>
    <contour>
      <point x="1015" y="675" type="curve" smooth="yes"/>
      <point x="1015" y="634"/>
      <point x="1049" y="600"/>
      <point x="1090" y="600" type="curve" smooth="yes"/>
      <point x="1131" y="600"/>
      <point x="1165" y="634"/>
      <point x="1165" y="675" type="curve" smooth="yes"/>
      <point x="1165" y="716"/>
      <point x="1131" y="750"/>
      <point x="1090" y="750" type="curve" smooth="yes"/>
      <point x="1049" y="750"/>
      <point x="1015" y="716"/>
    </contour>
    <contour>
      <point x="1202" y="420" type="curve" smooth="yes"/>
      <point x="1202" y="461"/>
      <point x="1169" y="495"/>
      <point x="1127" y="495" type="curve" smooth="yes"/>
      <point x="1086" y="495"/>
      <point x="1052" y="461"/>
      <point x="1052" y="420" type="curve" smooth="yes"/>
      <point x="1052" y="379"/>
      <point x="1086" y="345"/>
      <point x="1127" y="345" type="curve" smooth="yes"/>
      <point x="1169" y="345"/>
      <point x="1202" y="379"/>
    </contour>
    <contour>
      <point x="1765" y="675" type="curve" smooth="yes"/>
      <point x="1765" y="634"/>
      <point x="1799" y="600"/>
      <point x="1840" y="600" type="curve" smooth="yes"/>
      <point x="1881" y="600"/>
      <point x="1915" y="634"/>
      <point x="1915" y="675" type="curve" smooth="yes"/>
      <point x="1915" y="716"/>
      <point x="1881" y="750"/>
      <point x="1840" y="750" type="curve" smooth="yes"/>
      <point x="1799" y="750"/>
      <point x="1765" y="716"/>
    </contour>
    <contour>
      <point x="1304" y="180" type="curve" smooth="yes"/>
      <point x="1304" y="221"/>
      <point x="1270" y="255"/>
      <point x="1229" y="255" type="curve" smooth="yes"/>
      <point x="1187" y="255"/>
      <point x="1154" y="221"/>
      <point x="1154" y="180" type="curve" smooth="yes"/>
      <point x="1154" y="139"/>
      <point x="1187" y="105"/>
      <point x="1229" y="105" type="curve" smooth="yes"/>
      <point x="1270" y="105"/>
      <point x="1304" y="139"/>
    </contour>
    <contour>
      <point x="1727" y="420" type="curve" smooth="yes"/>
      <point x="1727" y="379"/>
      <point x="1761" y="345"/>
      <point x="1802" y="345" type="curve" smooth="yes"/>
      <point x="1844" y="345"/>
      <point x="1877" y="379"/>
      <point x="1877" y="420" type="curve" smooth="yes"/>
      <point x="1877" y="461"/>
      <point x="1844" y="495"/>
      <point x="1802" y="495" type="curve" smooth="yes"/>
      <point x="1761" y="495"/>
      <point x="1727" y="461"/>
    </contour>
    <contour>
      <point x="1626" y="180" type="curve" smooth="yes"/>
      <point x="1626" y="139"/>
      <point x="1660" y="105"/>
      <point x="1701" y="105" type="curve" smooth="yes"/>
      <point x="1742" y="105"/>
      <point x="1776" y="139"/>
      <point x="1776" y="180" type="curve" smooth="yes"/>
      <point x="1776" y="221"/>
      <point x="1742" y="255"/>
      <point x="1701" y="255" type="curve" smooth="yes"/>
      <point x="1660" y="255"/>
      <point x="1626" y="221"/>
    </contour>
    <contour>
      <point x="1390" y="1275" type="curve" smooth="yes"/>
      <point x="1390" y="1234"/>
      <point x="1424" y="1200"/>
      <point x="1465" y="1200" type="curve" smooth="yes"/>
      <point x="1506" y="1200"/>
      <point x="1540" y="1234"/>
      <point x="1540" y="1275" type="curve" smooth="yes"/>
      <point x="1540" y="1316"/>
      <point x="1506" y="1350"/>
      <point x="1465" y="1350" type="curve" smooth="yes"/>
      <point x="1424" y="1350"/>
      <point x="1390" y="1316"/>
    </contour>
    <contour>
      <point x="1202" y="930" type="curve" smooth="yes"/>
      <point x="1202" y="971"/>
      <point x="1169" y="1005"/>
      <point x="1127" y="1005" type="curve" smooth="yes"/>
      <point x="1086" y="1005"/>
      <point x="1052" y="971"/>
      <point x="1052" y="930" type="curve" smooth="yes"/>
      <point x="1052" y="889"/>
      <point x="1086" y="855"/>
      <point x="1127" y="855" type="curve" smooth="yes"/>
      <point x="1169" y="855"/>
      <point x="1202" y="889"/>
    </contour>
    <contour>
      <point x="1304" y="1170" type="curve" smooth="yes"/>
      <point x="1304" y="1211"/>
      <point x="1270" y="1245"/>
      <point x="1229" y="1245" type="curve" smooth="yes"/>
      <point x="1187" y="1245"/>
      <point x="1154" y="1211"/>
      <point x="1154" y="1170" type="curve" smooth="yes"/>
      <point x="1154" y="1129"/>
      <point x="1187" y="1095"/>
      <point x="1229" y="1095" type="curve" smooth="yes"/>
      <point x="1270" y="1095"/>
      <point x="1304" y="1129"/>
    </contour>
    <contour>
      <point x="1727" y="930" type="curve" smooth="yes"/>
      <point x="1727" y="889"/>
      <point x="1761" y="855"/>
      <point x="1802" y="855" type="curve" smooth="yes"/>
      <point x="1844" y="855"/>
      <point x="1877" y="889"/>
      <point x="1877" y="930" type="curve" smooth="yes"/>
      <point x="1877" y="971"/>
      <point x="1844" y="1005"/>
      <point x="1802" y="1005" type="curve" smooth="yes"/>
      <point x="1761" y="1005"/>
      <point x="1727" y="971"/>
    </contour>
    <contour>
      <point x="1626" y="1170" type="curve" smooth="yes"/>
      <point x="1626" y="1129"/>
      <point x="1660" y="1095"/>
      <point x="1701" y="1095" type="curve" smooth="yes"/>
      <point x="1742" y="1095"/>
      <point x="1776" y="1129"/>
      <point x="1776" y="1170" type="curve" smooth="yes"/>
      <point x="1776" y="1211"/>
      <point x="1742" y="1245"/>
      <point x="1701" y="1245" type="curve" smooth="yes"/>
      <point x="1660" y="1245"/>
      <point x="1626" y="1211"/>
    </contour>
    <contour>
      <point x="340" y="79" type="line"/>
      <point x="362" y="15"/>
      <point x="437" y="0"/>
      <point x="490" y="0" type="curve"/>
      <point x="640" y="30"/>
      <point x="715" y="169"/>
      <point x="715" y="247" type="curve" smooth="yes"/>
      <point x="715" y="379"/>
      <point x="614" y="446"/>
      <point x="490" y="450" type="curve"/>
      <point x="490" y="979" type="line" smooth="yes"/>
      <point x="490" y="1027"/>
      <point x="430" y="1057"/>
      <point x="359" y="1091" type="curve" smooth="yes"/>
      <point x="303" y="1117"/>
      <point x="254" y="1147"/>
      <point x="254" y="1211" type="curve" smooth="yes"/>
      <point x="254" y="1260"/>
      <point x="288" y="1301"/>
      <point x="337" y="1301" type="curve" smooth="yes"/>
      <point x="385" y="1301"/>
      <point x="438" y="1222"/>
      <point x="528" y="1222" type="curve" smooth="yes"/>
      <point x="614" y="1222"/>
      <point x="659" y="1252"/>
      <point x="663" y="1357" type="curve"/>
      <point x="648" y="1350"/>
      <point x="633" y="1346"/>
      <point x="622" y="1346" type="curve" smooth="yes"/>
      <point x="520" y="1346"/>
      <point x="468" y="1440"/>
      <point x="385" y="1440" type="curve" smooth="yes"/>
      <point x="280" y="1440"/>
      <point x="168" y="1305"/>
      <point x="168" y="1189" type="curve" smooth="yes"/>
      <point x="168" y="1114"/>
      <point x="187" y="1057"/>
      <point x="262" y="1016" type="curve"/>
      <point x="303" y="997"/>
      <point x="340" y="971"/>
      <point x="340" y="922" type="curve" smooth="yes"/>
    </contour>
  </outline>
</glyph>
<glyph name="uni17C1" format="2">
  <advance width="715"/>
  <unicode hex="17C1"/>
  <outline>
    <contour>
      <point x="300" y="79" type="line"/>
      <point x="322" y="15"/>
      <point x="397" y="0"/>
      <point x="450" y="0" type="curve"/>
      <point x="600" y="30"/>
      <point x="675" y="169"/>
      <point x="675" y="247" type="curve" smooth="yes"/>
      <point x="675" y="379"/>
      <point x="574" y="446"/>
      <point x="450" y="450" type="curve"/>
      <point x="450" y="979" type="line" smooth="yes"/>
      <point x="450" y="1027"/>
      <point x="390" y="1057"/>
      <point x="319" y="1091" type="curve" smooth="yes"/>
      <point x="263" y="1117"/>
      <point x="214" y="1147"/>
      <point x="214" y="1211" type="curve" smooth="yes"/>
      <point x="214" y="1260"/>
      <point x="248" y="1301"/>
      <point x="297" y="1301" type="curve" smooth="yes"/>
      <point x="345" y="1301"/>
      <point x="398" y="1222"/>
      <point x="488" y="1222" type="curve" smooth="yes"/>
      <point x="574" y="1222"/>
      <point x="619" y="1252"/>
      <point x="623" y="1357" type="curve"/>
      <point x="608" y="1350"/>
      <point x="593" y="1346"/>
      <point x="582" y="1346" type="curve" smooth="yes"/>
      <point x="480" y="1346"/>
      <point x="428" y="1440"/>
      <point x="345" y="1440" type="curve" smooth="yes"/>
      <point x="240" y="1440"/>
      <point x="128" y="1305"/>
      <point x="128" y="1189" type="curve" smooth="yes"/>
      <point x="128" y="1114"/>
      <point x="147" y="1057"/>
      <point x="222" y="1016" type="curve"/>
      <point x="263" y="997"/>
      <point x="300" y="971"/>
      <point x="300" y="922" type="curve" smooth="yes"/>
    </contour>
    <contour>
      <point x="450" y="320" type="line"/>
      <point x="499" y="320"/>
      <point x="545" y="281"/>
      <point x="545" y="251" type="curve" smooth="yes"/>
      <point x="545" y="187"/>
      <point x="506" y="156"/>
      <point x="450" y="130" type="curve"/>
    </contour>
  </outline>
</glyph>
<glyph name="uni17D6" format="2">
  <advance width="1385"/>
  <unicode hex="17D6"/>
  <outline>
    <contour>
      <point x="1200" y="795" type="line"/>
      <point x="750" y="795" type="line"/>
      <point x="750" y="645" type="line"/>
      <point x="1200" y="645" type="line"/>
    </contour>
    <contour>
      <point x="750" y="1140" type="curve" smooth="yes"/>
      <point x="750" y="1016"/>
      <point x="851" y="915"/>
      <point x="975" y="915" type="curve" smooth="yes"/>
      <point x="1099" y="915"/>
      <point x="1200" y="1016"/>
      <point x="1200" y="1140" type="curve" smooth="yes"/>
      <point x="1200" y="1264"/>
      <point x="1099" y="1365"/>
      <point x="975" y="1365" type="curve" smooth="yes"/>
      <point x="851" y="1365"/>
      <point x="750" y="1264"/>
    </contour>
    <contour>
      <point x="880" y="1140" type="curve" smooth="yes"/>
      <point x="880" y="1196"/>
      <point x="919" y="1235"/>
      <point x="975" y="1235" type="curve" smooth="yes"/>
      <point x="1031" y="1235"/>
      <point x="1070" y="1196"/>
      <point x="1070" y="1140" type="curve" smooth="yes"/>
      <point x="1070" y="1084"/>
      <point x="1031" y="1045"/>
      <point x="975" y="1045" type="curve" smooth="yes"/>
      <point x="919" y="1045"/>
      <point x="880" y="1084"/>
    </contour>
    <contour>
      <point x="750" y="300" type="curve" smooth="yes"/>
      <point x="750" y="176"/>
      <point x="851" y="75"/>
      <point x="975" y="75" type="curve" smooth="yes"/>
      <point x="1099" y="75"/>
      <point x="1200" y="176"/>
      <point x="1200" y="300" type="curve" smooth="yes"/>
      <point x="1200" y="424"/>
      <point x="1099" y="525"/>
      <point x="975" y="525" type="curve" smooth="yes"/>
      <point x="851" y="525"/>
      <point x="750" y="424"/>
    </contour>
    <contour>
      <point x="880" y="300" type="curve" smooth="yes"/>
      <point x="880" y="356"/>
      <point x="919" y="395"/>
      <point x="975" y="395" type="curve" smooth="yes"/>
      <point x="1031" y="395"/>
      <point x="1070" y="356"/>
      <point x="1070" y="300" type="curve" smooth="yes"/>
      <point x="1070" y="244"/>
      <point x="1031" y="205"/>
      <point x="975" y="205" type="curve" smooth="yes"/>
      <point x="919" y="205"/>
      <point x="880" y="244"/>
    </contour>
  </outline>
</glyph>
<glyph name="uni17D9" format="2">
  <advance width="1515"/>
  <unicode hex="17D9"/>
  <anchor x="1200" y="0" name="L"/>
  <anchor x="1200" y="1440" name="U"/>
  <outline>
    <contour>
      <point x="590" y="1440" type="line"/>
      <point x="410" y="1440"/>
      <point x="300" y="1350"/>
      <point x="300" y="1190" type="curve" smooth="yes"/>
      <point x="300" y="250" type="line" smooth="yes"/>
      <point x="300" y="90"/>
      <point x="410" y="0"/>
      <point x="590" y="0" type="curve" smooth="yes"/>
      <point x="1000" y="0" type="line" smooth="yes"/>
      <point x="1180" y="0"/>
      <point x="1290" y="90"/>
      <point x="1290" y="250" type="curve" smooth="yes"/>
      <point x="1290" y="1190" type="line" smooth="yes"/>
      <point x="1290" y="1350"/>
      <point x="1180" y="1440"/>
      <point x="1000" y="1440" type="curve"/>
    </contour>
    <contour>
      <point x="968" y="1310" type="line"/>
      <point x="1108" y="1310"/>
      <point x="1140" y="1260"/>
      <point x="1140" y="1130" type="curve" smooth="yes"/>
      <point x="1140" y="300" type="line" smooth="yes"/>
      <point x="1140" y="170"/>
      <point x="1100" y="130"/>
      <point x="960" y="130" type="curve" smooth="yes"/>
      <point x="630" y="130" type="line" smooth="yes"/>
      <point x="490" y="130"/>
      <point x="450" y="170"/>
      <point x="450" y="300" type="curve" smooth="yes"/>
      <point x="450" y="1140" type="line" smooth="yes"/>
      <point x="450" y="1270"/>
      <point x="492" y="1310"/>
      <point x="632" y="1310" type="curve"/>
    </contour>
    <contour>
      <point x="795" y="1210" type="curve" smooth="yes"/>
      <point x="655" y="1210"/>
      <point x="580" y="1160"/>
      <point x="580" y="1070" type="curve" smooth="yes"/>
      <point x="580" y="370" type="line" smooth="yes"/>
      <point x="580" y="280"/>
      <point x="655" y="230"/>
      <point x="795" y="230" type="curve" smooth="yes"/>
      <point x="935" y="230"/>
      <point x="1010" y="280"/>
      <point x="1010" y="370" type="curve" smooth="yes"/>
      <point x="1010" y="1070" type="line" smooth="yes"/>
      <point x="1010" y="1160"/>
      <point x="935" y="1210"/>
    </contour>
    <contour>
      <point x="795" y="1098" type="curve" smooth="yes"/>
      <point x="836" y="1098"/>
      <point x="860" y="1079"/>
      <point x="860" y="1038" type="curve" smooth="yes"/>
      <point x="860" y="406" type="line" smooth="yes"/>
      <point x="860" y="365"/>
      <point x="836" y="342"/>
      <point x="795" y="342" type="curve" smooth="yes"/>
      <point x="754" y="342"/>
      <point x="730" y="365"/>
      <point x="730" y="406" type="curve" smooth="yes"/>
      <point x="730" y="1038" type="line" smooth="yes"/>
      <point x="730" y="1079"/>
      <point x="754" y="1098"/>
    </contour>
  </outline>
</glyph>
<glyph name="uni17DD" format="2">
  <unicode hex="17DD"/>
  <anchor x="-225" y="2100" name="U"/>
  <anchor x="-225" y="1440" name="_U"/>
  <outline>
    <contour>
      <point x="-225" y="1590" type="curve"/>
      <point x="-236" y="1871"/>
      <point x="-409" y="2100"/>
      <point x="-739" y="2100" type="curve" smooth="yes"/>
      <point x="-926" y="2100"/>
      <point x="-1106" y="1976"/>
      <point x="-1106" y="1804" type="curve" smooth="yes"/>
      <point x="-1106" y="1729"/>
      <point x="-1073" y="1665"/>
      <point x="-994" y="1665" type="curve" smooth="yes"/>
      <point x="-930" y="1665"/>
      <point x="-881" y="1714"/>
      <point x="-881" y="1777" type="curve" smooth="yes"/>
      <point x="-881" y="1819"/>
      <point x="-896" y="1856"/>
      <point x="-938" y="1875" type="curve"/>
      <point x="-896" y="1924"/>
      <point x="-825" y="1970"/>
      <point x="-694" y="1970" type="curve" smooth="yes"/>
      <point x="-454" y="1970"/>
      <point x="-304" y="1740"/>
    </contour>
  </outline>
</glyph>
<glyph name="uni17E7" format="2">
  <advance width="1500"/>
  <unicode hex="17E7"/>
  <outline>
    <contour>
      <point x="900" y="187" type="line" smooth="yes"/>
      <point x="900" y="94"/>
      <point x="975" y="0"/>
      <point x="1125" y="0" type="curve" smooth="yes"/>
      <point x="1275" y="0"/>
      <point x="1350" y="94"/>
      <point x="1350" y="187" type="curve" smooth="yes"/>
      <point x="1350" y="1406" type="line" smooth="yes"/>
      <point x="1350" y="1552"/>
      <point x="1275" y="1669"/>
      <point x="1230" y="1710" type="curve" smooth="yes"/>
      <point x="1200" y="1736"/>
      <point x="1147" y="1762"/>
      <point x="1061" y="1762" type="curve" smooth="yes"/>
      <point x="990" y="1762"/>
      <point x="926" y="1702"/>
      <point x="915" y="1661" type="curve"/>
      <point x="956" y="1676"/>
      <point x="990" y="1676"/>
      <point x="1016" y="1676" type="curve" smooth="yes"/>
      <point x="1144" y="1676"/>
      <point x="1200" y="1477"/>
      <point x="1200" y="1387" type="curve" smooth="yes"/>
      <point x="1200" y="206" type="line" smooth="yes"/>
      <point x="1200" y="150"/>
      <point x="1166" y="112"/>
      <point x="1125" y="112" type="curve" smooth="yes"/>
      <point x="1084" y="112"/>
      <point x="1050" y="150"/>
      <point x="1050" y="206" type="curve" smooth="yes"/>
      <point x="1050" y="1147" type="line" smooth="yes"/>
      <point x="1050" y="1207"/>
      <point x="915" y="1440"/>
      <point x="821" y="1440" type="curve" smooth="yes"/>
      <point x="739" y="1440"/>
      <point x="652" y="1275"/>
      <point x="600" y="1275" type="curve" smooth="yes"/>
      <point x="551" y="1275"/>
      <point x="450" y="1440"/>
      <point x="371" y="1440" type="curve" smooth="yes"/>
      <point x="277" y="1440"/>
      <point x="150" y="1241"/>
      <point x="150" y="1181" type="curve" smooth="yes"/>
      <point x="150" y="79" type="line"/>
      <point x="176" y="15"/>
      <point x="244" y="0"/>
      <point x="300" y="0" type="curve"/>
      <point x="446" y="30"/>
      <point x="525" y="169"/>
      <point x="525" y="247" type="curve" smooth="yes"/>
      <point x="525" y="379"/>
      <point x="424" y="446"/>
      <point x="300" y="450" type="curve"/>
      <point x="300" y="1144" type="line" smooth="yes"/>
      <point x="300" y="1192"/>
      <point x="360" y="1270"/>
      <point x="401" y="1270" type="curve" smooth="yes"/>
      <point x="446" y="1270"/>
      <point x="540" y="1125"/>
      <point x="600" y="1125" type="curve" smooth="yes"/>
      <point x="664" y="1125"/>
      <point x="750" y="1270"/>
      <point x="799" y="1270" type="curve" smooth="yes"/>
      <point x="840" y="1270"/>
      <point x="900" y="1192"/>
      <point x="900" y="1144" type="curve" smooth="yes"/>
    </contour>
    <contour>
      <point x="300" y="320" type="line"/>
      <point x="349" y="320"/>
      <point x="395" y="281"/>
      <point x="395" y="251" type="curve" smooth="yes"/>
      <point x="395" y="187"/>
      <point x="356" y="156"/>
      <point x="300" y="130" type="curve"/>
    </contour>
  </outline>
</glyph>
<glyph name="uni19E2" format="2">
  <advance width="1800"/>
  <unicode hex="19E2"/>
  <outline>
    <contour>
      <point x="1350" y="846" type="line" smooth="yes"/>
      <point x="1350" y="790"/>
      <point x="1030" y="752"/>
      <point x="900" y="752" type="curve" smooth="yes"/>
      <point x="770" y="752"/>
      <point x="450" y="790"/>
      <point x="450" y="846" type="curve" smooth="yes"/>
      <point x="450" y="2050" type="line" smooth="yes"/>
      <point x="450" y="2196"/>
      <point x="375" y="2313"/>
      <point x="330" y="2354" type="curve" smooth="yes"/>
      <point x="300" y="2380"/>
      <point x="247" y="2406"/>
      <point x="161" y="2406" type="curve" smooth="yes"/>
      <point x="90" y="2406"/>
      <point x="26" y="2346"/>
      <point x="15" y="2305" type="curve"/>
      <point x="56" y="2320"/>
      <point x="90" y="2320"/>
      <point x="116" y="2320" type="curve" smooth="yes"/>
      <point x="244" y="2320"/>
      <point x="300" y="2121"/>
      <point x="300" y="2031" type="curve" smooth="yes"/>
      <point x="300" y="809" type="line" smooth="yes"/>
      <point x="300" y="709"/>
      <point x="660" y="640"/>
      <point x="900" y="640" type="curve" smooth="yes"/>
      <point x="1140" y="640"/>
      <point x="1500" y="709"/>
      <point x="1500" y="809" type="curve" smooth="yes"/>
      <point x="1500" y="1821" type="line" smooth="yes"/>
      <point x="1500" y="1881"/>
      <point x="1365" y="2080"/>
      <point x="1271" y="2080" type="curve" smooth="yes"/>
      <point x="1189" y="2080"/>
      <point x="1102" y="1915"/>
      <point x="1050" y="1915" type="curve" smooth="yes"/>
      <point x="1001" y="1915"/>
      <point x="900" y="2080"/>
      <point x="821" y="2080" type="curve" smooth="yes"/>
      <point x="727" y="2080"/>
      <point x="600" y="1881"/>
      <point x="600" y="1821" type="curve" smooth="yes"/>
      <point x="600" y="1221" type="line"/>
      <point x="626" y="1157"/>
      <point x="694" y="1142"/>
      <point x="750" y="1142" type="curve"/>
      <point x="896" y="1172"/>
      <point x="975" y="1311"/>
      <point x="975" y="1390" type="curve" smooth="yes"/>
      <point x="975" y="1521"/>
      <point x="874" y="1588"/>
      <point x="750" y="1592" type="curve"/>
      <point x="750" y="1783" type="line" smooth="yes"/>
      <point x="750" y="1832"/>
      <point x="810" y="1910"/>
      <point x="844" y="1910" type="curve" smooth="yes"/>
      <point x="885" y="1910"/>
      <point x="994" y="1765"/>
      <point x="1050" y="1765" type="curve" smooth="yes"/>
      <point x="1110" y="1765"/>
      <point x="1211" y="1910"/>
      <point x="1256" y="1910" type="curve" smooth="yes"/>
      <point x="1297" y="1910"/>
      <point x="1350" y="1832"/>
      <point x="1350" y="1783" type="curve" smooth="yes"/>
    </contour>
    <contour>
      <point x="1031" y="15" type="curve"/>
      <point x="1031" y="-1200" type="line"/>
      <point x="1219" y="-1200" type="line"/>
      <point x="1219" y="240" type="line"/>
      <point x="1031" y="240" type="line"/>
      <point x="1031" y="154"/>
      <point x="885" y="-113"/>
      <point x="742" y="-113" type="curve" smooth="yes"/>
      <point x="652" y="-113"/>
      <point x="637" y="-4"/>
      <point x="637" y="15" type="curve" smooth="yes"/>
      <point x="637" y="26"/>
      <point x="641" y="34"/>
      <point x="652" y="37" type="curve"/>
      <point x="709" y="49"/>
      <point x="769" y="109"/>
      <point x="769" y="169" type="curve" smooth="yes"/>
      <point x="769" y="225"/>
      <point x="731" y="277"/>
      <point x="637" y="277" type="curve" smooth="yes"/>
      <point x="544" y="277"/>
      <point x="450" y="176"/>
      <point x="450" y="37" type="curve" smooth="yes"/>
      <point x="450" y="-75"/>
      <point x="555" y="-210"/>
      <point x="709" y="-210" type="curve" smooth="yes"/>
      <point x="825" y="-210"/>
      <point x="975" y="-90"/>
    </contour>
    <contour>
      <point x="750" y="1462" type="line"/>
      <point x="799" y="1462"/>
      <point x="845" y="1423"/>
      <point x="845" y="1393" type="curve" smooth="yes"/>
      <point x="845" y="1330"/>
      <point x="806" y="1300"/>
      <point x="750" y="1273" type="curve"/>
    </contour>
  </outline>
</glyph>
<glyph name="uni19F3" format="2">
  <advance width="1950"/>
  <unicode hex="19F3"/>
  <outline>
    <contour>
      <point x="300" y="-1121" type="line"/>
      <point x="326" y="-1185"/>
      <point x="394" y="-1200"/>
      <point x="450" y="-1200" type="curve"/>
      <point x="596" y="-1170"/>
      <point x="675" y="-1031"/>
      <point x="675" y="-953" type="curve" smooth="yes"/>
      <point x="675" y="-821"/>
      <point x="574" y="-754"/>
      <point x="450" y="-750" type="curve"/>
      <point x="450" y="52" type="line" smooth="yes"/>
      <point x="450" y="108"/>
      <point x="585" y="128"/>
      <point x="675" y="128" type="curve" smooth="yes"/>
      <point x="765" y="128"/>
      <point x="900" y="108"/>
      <point x="900" y="52" type="curve" smooth="yes"/>
      <point x="900" y="-1200" type="line"/>
      <point x="1050" y="-1200" type="line"/>
      <point x="1050" y="52" type="line" smooth="yes"/>
      <point x="1050" y="108"/>
      <point x="1185" y="128"/>
      <point x="1275" y="128" type="curve" smooth="yes"/>
      <point x="1365" y="128"/>
      <point x="1500" y="108"/>
      <point x="1500" y="52" type="curve" smooth="yes"/>
      <point x="1500" y="-1200" type="line"/>
      <point x="1650" y="-1200" type="line"/>
      <point x="1650" y="71" type="line" smooth="yes"/>
      <point x="1650" y="171"/>
      <point x="1465" y="240"/>
      <point x="1275" y="240" type="curve" smooth="yes"/>
      <point x="1159" y="240"/>
      <point x="1046" y="215"/>
      <point x="975" y="172" type="curve"/>
      <point x="903" y="215"/>
      <point x="790" y="240"/>
      <point x="675" y="240" type="curve" smooth="yes"/>
      <point x="485" y="240"/>
      <point x="300" y="171"/>
      <point x="300" y="71" type="curve" smooth="yes"/>
    </contour>
    <contour>
      <point x="1144" y="1855" type="curve"/>
      <point x="1144" y="640" type="line"/>
      <point x="1331" y="640" type="line"/>
      <point x="1331" y="2080" type="line"/>
      <point x="1144" y="2080" type="line"/>
      <point x="1144" y="1994"/>
      <point x="997" y="1728"/>
      <point x="855" y="1728" type="curve" smooth="yes"/>
      <point x="765" y="1728"/>
      <point x="750" y="1837"/>
      <point x="750" y="1855" type="curve" smooth="yes"/>
      <point x="750" y="1867"/>
      <point x="754" y="1874"/>
      <point x="765" y="1878" type="curve"/>
      <point x="821" y="1889"/>
      <point x="881" y="1949"/>
      <point x="881" y="2009" type="curve" smooth="yes"/>
      <point x="881" y="2065"/>
      <point x="844" y="2118"/>
      <point x="750" y="2118" type="curve" smooth="yes"/>
      <point x="656" y="2118"/>
      <point x="562" y="2017"/>
      <point x="562" y="1878" type="curve" smooth="yes"/>
      <point x="562" y="1765"/>
      <point x="667" y="1630"/>
      <point x="821" y="1630" type="curve" smooth="yes"/>
      <point x="937" y="1630"/>
      <point x="1087" y="1750"/>
    </contour>
    <contour>
      <point x="450" y="-880" type="line"/>
      <point x="499" y="-880"/>
      <point x="545" y="-919"/>
      <point x="545" y="-949" type="curve" smooth="yes"/>
      <point x="545" y="-1013"/>
      <point x="506" y="-1043"/>
      <point x="450" y="-1069" type="curve"/>
    </contour>
  </outline>
</glyph>
<glyph name="uni19F7" format="2">
  <advance width="1800"/>
  <unicode hex="19F7"/>
  <outline>
    <contour>
      <point x="1050" y="-1013" type="line" smooth="yes"/>
      <point x="1050" y="-1106"/>
      <point x="1125" y="-1200"/>
      <point x="1275" y="-1200" type="curve" smooth="yes"/>
      <point x="1425" y="-1200"/>
      <point x="1500" y="-1106"/>
      <point x="1500" y="-1013" type="curve" smooth="yes"/>
      <point x="1500" y="206" type="line" smooth="yes"/>
      <point x="1500" y="352"/>
      <point x="1425" y="469"/>
      <point x="1380" y="510" type="curve" smooth="yes"/>
      <point x="1350" y="536"/>
      <point x="1297" y="562"/>
      <point x="1211" y="562" type="curve" smooth="yes"/>
      <point x="1140" y="562"/>
      <point x="1076" y="502"/>
      <point x="1065" y="461" type="curve"/>
      <point x="1106" y="476"/>
      <point x="1140" y="476"/>
      <point x="1166" y="476" type="curve" smooth="yes"/>
      <point x="1294" y="476"/>
      <point x="1350" y="277"/>
      <point x="1350" y="187" type="curve" smooth="yes"/>
      <point x="1350" y="-994" type="line" smooth="yes"/>
      <point x="1350" y="-1050"/>
      <point x="1316" y="-1088"/>
      <point x="1275" y="-1088" type="curve" smooth="yes"/>
      <point x="1234" y="-1088"/>
      <point x="1200" y="-1050"/>
      <point x="1200" y="-994" type="curve" smooth="yes"/>
      <point x="1200" y="-53" type="line" smooth="yes"/>
      <point x="1200" y="7"/>
      <point x="1065" y="240"/>
      <point x="971" y="240" type="curve" smooth="yes"/>
      <point x="889" y="240"/>
      <point x="802" y="75"/>
      <point x="750" y="75" type="curve" smooth="yes"/>
      <point x="701" y="75"/>
      <point x="600" y="240"/>
      <point x="521" y="240" type="curve" smooth="yes"/>
      <point x="427" y="240"/>
      <point x="300" y="41"/>
      <point x="300" y="-19" type="curve" smooth="yes"/>
      <point x="300" y="-1121" type="line"/>
      <point x="326" y="-1185"/>
      <point x="394" y="-1200"/>
      <point x="450" y="-1200" type="curve"/>
      <point x="596" y="-1170"/>
      <point x="675" y="-1031"/>
      <point x="675" y="-953" type="curve" smooth="yes"/>
      <point x="675" y="-821"/>
      <point x="574" y="-754"/>
      <point x="450" y="-750" type="curve"/>
      <point x="450" y="-56" type="line" smooth="yes"/>
      <point x="450" y="-8"/>
      <point x="510" y="70"/>
      <point x="551" y="70" type="curve" smooth="yes"/>
      <point x="596" y="70"/>
      <point x="690" y="-75"/>
      <point x="750" y="-75" type="curve" smooth="yes"/>
      <point x="814" y="-75"/>
      <point x="900" y="70"/>
      <point x="949" y="70" type="curve" smooth="yes"/>
      <point x="990" y="70"/>
      <point x="1050" y="-8"/>
      <point x="1050" y="-56" type="curve" smooth="yes"/>
    </contour>
    <contour>
      <point x="1106" y="1855" type="curve"/>
      <point x="1106" y="640" type="line"/>
      <point x="1294" y="640" type="line"/>
      <point x="1294" y="2080" type="line"/>
      <point x="1106" y="2080" type="line"/>
      <point x="1106" y="1994"/>
      <point x="960" y="1728"/>
      <point x="817" y="1728" type="curve" smooth="yes"/>
      <point x="727" y="1728"/>
      <point x="712" y="1837"/>
      <point x="712" y="1855" type="curve" smooth="yes"/>
      <point x="712" y="1867"/>
      <point x="716" y="1874"/>
      <point x="727" y="1878" type="curve"/>
      <point x="784" y="1889"/>
      <point x="844" y="1949"/>
      <point x="844" y="2009" type="curve" smooth="yes"/>
      <point x="844" y="2065"/>
      <point x="806" y="2118"/>
      <point x="712" y="2118" type="curve" smooth="yes"/>
      <point x="619" y="2118"/>
      <point x="525" y="2017"/>
      <point x="525" y="1878" type="curve" smooth="yes"/>
      <point x="525" y="1765"/>
      <point x="630" y="1630"/>
      <point x="784" y="1630" type="curve" smooth="yes"/>
      <point x="900" y="1630"/>
      <point x="1050" y="1750"/>
    </contour>
    <contour>
      <point x="450" y="-880" type="line"/>
      <point x="499" y="-880"/>
      <point x="545" y="-919"/>
      <point x="545" y="-949" type="curve" smooth="yes"/>
      <point x="545" y="-1013"/>
      <point x="506" y="-1043"/>
      <point x="450" y="-1069" type="curve"/>
    </contour>
  </outline>
</glyph>
<glyph name="uni19FB" format="2">
  <advance width="2662"/>
  <unicode hex="19FB"/>
  <outline>
    <contour>
      <point x="1425" y="1855" type="curve"/>
      <point x="1425" y="640" type="line"/>
      <point x="1612" y="640" type="line"/>
      <point x="1612" y="2080" type="line"/>
      <point x="1425" y="2080" type="line"/>
      <point x="1425" y="1994"/>
      <point x="1279" y="1728"/>
      <point x="1136" y="1728" type="curve" smooth="yes"/>
      <point x="1046" y="1728"/>
      <point x="1031" y="1837"/>
      <point x="1031" y="1855" type="curve" smooth="yes"/>
      <point x="1031" y="1867"/>
      <point x="1035" y="1874"/>
      <point x="1046" y="1878" type="curve"/>
      <point x="1102" y="1889"/>
      <point x="1162" y="1949"/>
      <point x="1162" y="2009" type="curve" smooth="yes"/>
      <point x="1162" y="2065"/>
      <point x="1125" y="2118"/>
      <point x="1031" y="2118" type="curve" smooth="yes"/>
      <point x="937" y="2118"/>
      <point x="844" y="2017"/>
      <point x="844" y="1878" type="curve" smooth="yes"/>
      <point x="844" y="1765"/>
      <point x="949" y="1630"/>
      <point x="1102" y="1630" type="curve" smooth="yes"/>
      <point x="1219" y="1630"/>
      <point x="1369" y="1750"/>
    </contour>
    <contour>
      <point x="644" y="-593" type="curve" smooth="yes"/>
      <point x="767" y="-593"/>
      <point x="884" y="-491"/>
      <point x="884" y="-360" type="curve" smooth="yes"/>
      <point x="884" y="-259"/>
      <point x="827" y="-206"/>
      <point x="756" y="-206" type="curve" smooth="yes"/>
      <point x="685" y="-206"/>
      <point x="662" y="-255"/>
      <point x="662" y="-285" type="curve" smooth="yes"/>
      <point x="662" y="-326"/>
      <point x="685" y="-364"/>
      <point x="745" y="-364" type="curve" smooth="yes"/>
      <point x="752" y="-364"/>
      <point x="756" y="-371"/>
      <point x="756" y="-383" type="curve" smooth="yes"/>
      <point x="756" y="-431"/>
      <point x="692" y="-463"/>
      <point x="647" y="-463" type="curve" smooth="yes"/>
      <point x="527" y="-463"/>
      <point x="452" y="-349"/>
      <point x="452" y="-218" type="curve" smooth="yes"/>
      <point x="452" y="-4"/>
      <point x="617" y="110"/>
      <point x="771" y="110" type="curve" smooth="yes"/>
      <point x="985" y="110"/>
      <point x="1090" y="-45"/>
      <point x="1090" y="-443" type="curve" smooth="yes"/>
      <point x="1090" y="-771"/>
      <point x="830" y="-1132"/>
      <point x="489" y="-1132" type="curve" smooth="yes"/>
      <point x="471" y="-1132"/>
      <point x="452" y="-1131"/>
      <point x="434" y="-1129" type="curve"/>
      <point x="495" y="-1178"/>
      <point x="565" y="-1200"/>
      <point x="637" y="-1200" type="curve" smooth="yes"/>
      <point x="919" y="-1200"/>
      <point x="1240" y="-854"/>
      <point x="1240" y="-424" type="curve" smooth="yes"/>
      <point x="1240" y="37"/>
      <point x="1052" y="240"/>
      <point x="771" y="240" type="curve" smooth="yes"/>
      <point x="509" y="240"/>
      <point x="302" y="37"/>
      <point x="302" y="-199" type="curve" smooth="yes"/>
      <point x="302" y="-424"/>
      <point x="434" y="-593"/>
    </contour>
    <contour>
      <point x="1764" y="-593" type="curve" smooth="yes"/>
      <point x="1887" y="-593"/>
      <point x="2004" y="-491"/>
      <point x="2004" y="-360" type="curve" smooth="yes"/>
      <point x="2004" y="-259"/>
      <point x="1947" y="-206"/>
      <point x="1876" y="-206" type="curve" smooth="yes"/>
      <point x="1805" y="-206"/>
      <point x="1782" y="-255"/>
      <point x="1782" y="-285" type="curve" smooth="yes"/>
      <point x="1782" y="-326"/>
      <point x="1805" y="-364"/>
      <point x="1865" y="-364" type="curve" smooth="yes"/>
      <point x="1872" y="-364"/>
      <point x="1876" y="-371"/>
      <point x="1876" y="-383" type="curve" smooth="yes"/>
      <point x="1876" y="-431"/>
      <point x="1812" y="-463"/>
      <point x="1767" y="-463" type="curve" smooth="yes"/>
      <point x="1647" y="-463"/>
      <point x="1572" y="-349"/>
      <point x="1572" y="-218" type="curve" smooth="yes"/>
      <point x="1572" y="-4"/>
      <point x="1737" y="110"/>
      <point x="1891" y="110" type="curve" smooth="yes"/>
      <point x="2105" y="110"/>
      <point x="2210" y="-45"/>
      <point x="2210" y="-443" type="curve" smooth="yes"/>
      <point x="2210" y="-771"/>
      <point x="1950" y="-1132"/>
      <point x="1609" y="-1132" type="curve" smooth="yes"/>
      <point x="1591" y="-1132"/>
      <point x="1572" y="-1131"/>
      <point x="1554" y="-1129" type="curve"/>
      <point x="1615" y="-1178"/>
      <point x="1685" y="-1200"/>
      <point x="1757" y="-1200" type="curve" smooth="yes"/>
      <point x="2039" y="-1200"/>
      <point x="2360" y="-854"/>
      <point x="2360" y="-424" type="curve" smooth="yes"/>
      <point x="2360" y="37"/>
      <point x="2172" y="240"/>
      <point x="1891" y="240" type="curve" smooth="yes"/>
      <point x="1629" y="240"/>
      <point x="1422" y="37"/>
      <point x="1422" y="-199" type="curve" smooth="yes"/>
      <point x="1422" y="-424"/>
      <point x="1554" y="-593"/>
    </contour>
  </outline>
</glyph>
<glyph name="uni19FE" format="2">
  <advance width="2625"/>
  <unicode hex="19FE"/>
  <outline>
    <contour>
      <point x="1425" y="1855" type="curve"/>
      <point x="1425" y="640" type="line"/>
      <point x="1612" y="640" type="line"/>
      <point x="1612" y="2080" type="line"/>
      <point x="1425" y="2080" type="line"/>
      <point x="1425" y="1994"/>
      <point x="1279" y="1728"/>
      <point x="1136" y="1728" type="curve" smooth="yes"/>
      <point x="1046" y="1728"/>
      <point x="1031" y="1837"/>
      <point x="1031" y="1855" type="curve" smooth="yes"/>
      <point x="1031" y="1867"/>
      <point x="1035" y="1874"/>
      <point x="1046" y="1878" type="curve"/>
      <point x="1102" y="1889"/>
      <point x="1162" y="1949"/>
      <point x="1162" y="2009" type="curve" smooth="yes"/>
      <point x="1162" y="2065"/>
      <point x="1125" y="2118"/>
      <point x="1031" y="2118" type="curve" smooth="yes"/>
      <point x="937" y="2118"/>
      <point x="844" y="2017"/>
      <point x="844" y="1878" type="curve" smooth="yes"/>
      <point x="844" y="1765"/>
      <point x="949" y="1630"/>
      <point x="1102" y="1630" type="curve" smooth="yes"/>
      <point x="1219" y="1630"/>
      <point x="1369" y="1750"/>
    </contour>
    <contour>
      <point x="1402" y="-671" type="curve" smooth="yes"/>
      <point x="1402" y="-1028"/>
      <point x="1537" y="-1200"/>
      <point x="1646" y="-1200" type="curve" smooth="yes"/>
      <point x="1710" y="-1200"/>
      <point x="1819" y="-1170"/>
      <point x="1890" y="-1170" type="curve" smooth="yes"/>
      <point x="2010" y="-1170"/>
      <point x="2149" y="-1200"/>
      <point x="2205" y="-1200" type="curve" smooth="yes"/>
      <point x="2250" y="-1200"/>
      <point x="2261" y="-1166"/>
      <point x="2261" y="-1151" type="curve" smooth="yes"/>
      <point x="2261" y="-1020"/>
      <point x="2030" y="-874"/>
      <point x="2030" y="-728" type="curve"/>
      <point x="2030" y="-656"/>
      <point x="2044" y="-581"/>
      <point x="2115" y="-581" type="curve" smooth="yes"/>
      <point x="2126" y="-581"/>
      <point x="2134" y="-585"/>
      <point x="2141" y="-593" type="curve"/>
      <point x="2122" y="-611"/>
      <point x="2115" y="-638"/>
      <point x="2115" y="-668" type="curve" smooth="yes"/>
      <point x="2115" y="-731"/>
      <point x="2164" y="-780"/>
      <point x="2227" y="-780" type="curve" smooth="yes"/>
      <point x="2287" y="-780"/>
      <point x="2340" y="-743"/>
      <point x="2340" y="-641" type="curve" smooth="yes"/>
      <point x="2340" y="-540"/>
      <point x="2257" y="-461"/>
      <point x="2149" y="-461" type="curve" smooth="yes"/>
      <point x="1987" y="-461"/>
      <point x="1900" y="-570"/>
      <point x="1900" y="-720" type="curve" smooth="yes"/>
      <point x="1900" y="-821"/>
      <point x="1957" y="-964"/>
      <point x="2066" y="-1061" type="curve"/>
      <point x="2040" y="-1050"/>
      <point x="1912" y="-1040"/>
      <point x="1879" y="-1040" type="curve" smooth="yes"/>
      <point x="1837" y="-1040"/>
      <point x="1747" y="-1061"/>
      <point x="1699" y="-1061" type="curve" smooth="yes"/>
      <point x="1579" y="-1061"/>
      <point x="1552" y="-814"/>
      <point x="1552" y="-690" type="curve" smooth="yes"/>
      <point x="1552" y="-510"/>
      <point x="1706" y="-341"/>
      <point x="1852" y="-210" type="curve"/>
      <point x="2006" y="-56"/>
      <point x="2246" y="64"/>
      <point x="2246" y="251" type="curve" smooth="yes"/>
      <point x="2246" y="360"/>
      <point x="2201" y="491"/>
      <point x="2107" y="526" type="curve" smooth="yes"/>
      <point x="2059" y="544"/>
      <point x="2021" y="547"/>
      <point x="1950" y="562" type="curve"/>
      <point x="2066" y="506"/>
      <point x="2100" y="382"/>
      <point x="2100" y="311" type="curve" smooth="yes"/>
      <point x="2100" y="157"/>
      <point x="1901" y="41"/>
      <point x="1744" y="-110" type="curve"/>
      <point x="1597" y="-251"/>
      <point x="1402" y="-443"/>
    </contour>
    <contour>
      <point x="644" y="-593" type="curve" smooth="yes"/>
      <point x="767" y="-593"/>
      <point x="884" y="-491"/>
      <point x="884" y="-360" type="curve" smooth="yes"/>
      <point x="884" y="-259"/>
      <point x="827" y="-206"/>
      <point x="756" y="-206" type="curve" smooth="yes"/>
      <point x="685" y="-206"/>
      <point x="662" y="-255"/>
      <point x="662" y="-285" type="curve" smooth="yes"/>
      <point x="662" y="-326"/>
      <point x="685" y="-364"/>
      <point x="745" y="-364" type="curve" smooth="yes"/>
      <point x="752" y="-364"/>
      <point x="756" y="-371"/>
      <point x="756" y="-383" type="curve" smooth="yes"/>
      <point x="756" y="-431"/>
      <point x="692" y="-463"/>
      <point x="647" y="-463" type="curve" smooth="yes"/>
      <point x="527" y="-463"/>
      <point x="452" y="-349"/>
      <point x="452" y="-218" type="curve" smooth="yes"/>
      <point x="452" y="-4"/>
      <point x="617" y="110"/>
      <point x="771" y="110" type="curve" smooth="yes"/>
      <point x="985" y="110"/>
      <point x="1090" y="-45"/>
      <point x="1090" y="-443" type="curve" smooth="yes"/>
      <point x="1090" y="-771"/>
      <point x="830" y="-1132"/>
      <point x="489" y="-1132" type="curve" smooth="yes"/>
      <point x="471" y="-1132"/>
      <point x="452" y="-1131"/>
      <point x="434" y="-1129" type="curve"/>
      <point x="495" y="-1178"/>
      <point x="565" y="-1200"/>
      <point x="637" y="-1200" type="curve" smooth="yes"/>
      <point x="919" y="-1200"/>
      <point x="1240" y="-854"/>
      <point x="1240" y="-424" type="curve" smooth="yes"/>
      <point x="1240" y="37"/>
      <point x="1052" y="240"/>
      <point x="771" y="240" type="curve" smooth="yes"/>
      <point x="509" y="240"/>
      <point x="302" y="37"/>
      <point x="302" y="-199" type="curve" smooth="yes"/>
      <point x="302" y="-424"/>
      <point x="434" y="-593"/>
    </contour>
  </outline>
</glyph>
<glyph name="uni19FF" format="2">
  <advance width="2625"/>
  <unicode hex="19FF"/>
  <outline>
    <contour>
      <point x="1425" y="1855" type="curve"/>
      <point x="1425" y="640" type="line"/>
      <point x="1612" y="640" type="line"/>
      <point x="1612" y="2080" type="line"/>
      <point x="1425" y="2080" type="line"/>
      <point x="1425" y="1994"/>
      <point x="1279" y="1728"/>
      <point x="1136" y="1728" type="curve" smooth="yes"/>
      <point x="1046" y="1728"/>
      <point x="1031" y="1837"/>
      <point x="1031" y="1855" type="curve" smooth="yes"/>
      <point x="1031" y="1867"/>
      <point x="1035" y="1874"/>
      <point x="1046" y="1878" type="curve"/>
      <point x="1102" y="1889"/>
      <point x="1162" y="1949"/>
      <point x="1162" y="2009" type="curve" smooth="yes"/>
      <point x="1162" y="2065"/>
      <point x="1125" y="2118"/>
      <point x="1031" y="2118" type="curve" smooth="yes"/>
      <point x="937" y="2118"/>
      <point x="844" y="2017"/>
      <point x="844" y="1878" type="curve" smooth="yes"/>
      <point x="844" y="1765"/>
      <point x="949" y="1630"/>
      <point x="1102" y="1630" type="curve" smooth="yes"/>
      <point x="1219" y="1630"/>
      <point x="1369" y="1750"/>
    </contour>
    <contour>
      <point x="1412" y="-671" type="curve" smooth="yes"/>
      <point x="1412" y="-1028"/>
      <point x="1547" y="-1200"/>
      <point x="1656" y="-1200" type="curve" smooth="yes"/>
      <point x="1720" y="-1200"/>
      <point x="1829" y="-1170"/>
      <point x="1900" y="-1170" type="curve" smooth="yes"/>
      <point x="2020" y="-1170"/>
      <point x="2159" y="-1200"/>
      <point x="2215" y="-1200" type="curve" smooth="yes"/>
      <point x="2260" y="-1200"/>
      <point x="2271" y="-1166"/>
      <point x="2271" y="-1151" type="curve" smooth="yes"/>
      <point x="2271" y="-1020"/>
      <point x="2040" y="-874"/>
      <point x="2040" y="-728" type="curve" smooth="yes"/>
      <point x="2040" y="-656"/>
      <point x="2054" y="-581"/>
      <point x="2125" y="-581" type="curve" smooth="yes"/>
      <point x="2136" y="-581"/>
      <point x="2144" y="-585"/>
      <point x="2151" y="-593" type="curve"/>
      <point x="2132" y="-611"/>
      <point x="2125" y="-638"/>
      <point x="2125" y="-668" type="curve" smooth="yes"/>
      <point x="2125" y="-731"/>
      <point x="2174" y="-780"/>
      <point x="2237" y="-780" type="curve" smooth="yes"/>
      <point x="2297" y="-780"/>
      <point x="2350" y="-743"/>
      <point x="2350" y="-641" type="curve" smooth="yes"/>
      <point x="2350" y="-540"/>
      <point x="2267" y="-461"/>
      <point x="2159" y="-461" type="curve" smooth="yes"/>
      <point x="1997" y="-461"/>
      <point x="1910" y="-570"/>
      <point x="1910" y="-720" type="curve" smooth="yes"/>
      <point x="1910" y="-821"/>
      <point x="1967" y="-964"/>
      <point x="2076" y="-1061" type="curve"/>
      <point x="2050" y="-1050"/>
      <point x="1922" y="-1040"/>
      <point x="1889" y="-1040" type="curve" smooth="yes"/>
      <point x="1847" y="-1040"/>
      <point x="1757" y="-1061"/>
      <point x="1709" y="-1061" type="curve" smooth="yes"/>
      <point x="1589" y="-1061"/>
      <point x="1562" y="-814"/>
      <point x="1562" y="-690" type="curve" smooth="yes"/>
      <point x="1562" y="-476"/>
      <point x="1784" y="-240"/>
      <point x="1814" y="-191" type="curve"/>
      <point x="2147" y="-191"/>
      <point x="2327" y="-165"/>
      <point x="2327" y="41" type="curve" smooth="yes"/>
      <point x="2327" y="105"/>
      <point x="2267" y="255"/>
      <point x="2267" y="311" type="curve" smooth="yes"/>
      <point x="2267" y="401"/>
      <point x="2301" y="491"/>
      <point x="2387" y="491" type="curve"/>
      <point x="2361" y="517"/>
      <point x="2331" y="562"/>
      <point x="2260" y="562" type="curve" smooth="yes"/>
      <point x="2177" y="562"/>
      <point x="2132" y="394"/>
      <point x="2132" y="292" type="curve" smooth="yes"/>
      <point x="2132" y="221"/>
      <point x="2177" y="117"/>
      <point x="2177" y="45" type="curve" smooth="yes"/>
      <point x="2177" y="-45"/>
      <point x="2016" y="-56"/>
      <point x="1885" y="-56" type="curve"/>
      <point x="1896" y="-30"/>
      <point x="1900" y="4"/>
      <point x="1900" y="15" type="curve" smooth="yes"/>
      <point x="1900" y="116"/>
      <point x="1795" y="221"/>
      <point x="1694" y="221" type="curve" smooth="yes"/>
      <point x="1592" y="221"/>
      <point x="1487" y="116"/>
      <point x="1487" y="15" type="curve" smooth="yes"/>
      <point x="1487" y="-86"/>
      <point x="1544" y="-139"/>
      <point x="1634" y="-184" type="curve"/>
      <point x="1610" y="-214"/>
      <point x="1412" y="-465"/>
    </contour>
    <contour>
      <point x="1619" y="15" type="curve" smooth="yes"/>
      <point x="1619" y="56"/>
      <point x="1652" y="90"/>
      <point x="1694" y="90" type="curve" smooth="yes"/>
      <point x="1735" y="90"/>
      <point x="1769" y="56"/>
      <point x="1769" y="15" type="curve" smooth="yes"/>
      <point x="1769" y="-26"/>
      <point x="1735" y="-60"/>
      <point x="1694" y="-60" type="curve" smooth="yes"/>
      <point x="1652" y="-60"/>
      <point x="1619" y="-26"/>
    </contour>
    <contour>
      <point x="644" y="-593" type="curve" smooth="yes"/>
      <point x="767" y="-593"/>
      <point x="884" y="-491"/>
      <point x="884" y="-360" type="curve" smooth="yes"/>
      <point x="884" y="-259"/>
      <point x="827" y="-206"/>
      <point x="756" y="-206" type="curve" smooth="yes"/>
      <point x="685" y="-206"/>
      <point x="662" y="-255"/>
      <point x="662" y="-285" type="curve" smooth="yes"/>
      <point x="662" y="-326"/>
      <point x="685" y="-364"/>
      <point x="745" y="-364" type="curve" smooth="yes"/>
      <point x="752" y="-364"/>
      <point x="756" y="-371"/>
      <point x="756" y="-383" type="curve" smooth="yes"/>
      <point x="756" y="-431"/>
      <point x="692" y="-463"/>
      <point x="647" y="-463" type="curve" smooth="yes"/>
      <point x="527" y="-463"/>
      <point x="452" y="-349"/>
      <point x="452" y="-218" type="curve" smooth="yes"/>
      <point x="452" y="-4"/>
      <point x="617" y="110"/>
      <point x="771" y="110" type="curve" smooth="yes"/>
      <point x="985" y="110"/>
      <point x="1090" y="-45"/>
      <point x="1090" y="-443" type="curve" smooth="yes"/>
      <point x="1090" y="-771"/>
      <point x="830" y="-1132"/>
      <point x="489" y="-1132" type="curve" smooth="yes"/>
      <point x="471" y="-1132"/>
      <point x="452" y="-1131"/>
      <point x="434" y="-1129" type="curve"/>
      <point x="495" y="-1178"/>
      <point x="565" y="-1200"/>
      <point x="637" y="-1200" type="curve" smooth="yes"/>
      <point x="919" y="-1200"/>
      <point x="1240" y="-854"/>
      <point x="1240" y="-424" type="curve" smooth="yes"/>
      <point x="1240" y="37"/>
      <point x="1052" y="240"/>
      <point x="771" y="240" type="curve" smooth="yes"/>
      <point x="509" y="240"/>
      <point x="302" y="37"/>
      <point x="302" y="-199" type="curve" smooth="yes"/>
      <point x="302" y="-424"/>
      <point x="434" y="-593"/>
    </contour>
  </outline>
</glyph>
<glyph name="emdash" format="2">
  <advance width="2119"/>
  <unicode hex="2014"/>
  <outline>
    <contour>
      <point x="2074" y="502" type="line"/>
      <point x="2074" y="581" type="line"/>
      <point x="41" y="581" type="line"/>
      <point x="41" y="502" type="line"/>
    </contour>
  </outline>
</glyph>
<glyph name="quoteleft" format="2">
  <advance width="630"/>
  <unicode hex="2018"/>
  <outline>
    <contour>
      <point x="476" y="1765" type="line"/>
      <point x="292" y="1753"/>
      <point x="139" y="1611"/>
      <point x="139" y="1416" type="curve" smooth="yes"/>
      <point x="139" y="1292"/>
      <point x="221" y="1187"/>
      <point x="330" y="1187" type="curve" smooth="yes"/>
      <point x="412" y="1187"/>
      <point x="476" y="1247"/>
      <point x="476" y="1318" type="curve" smooth="yes"/>
      <point x="476" y="1390"/>
      <point x="427" y="1442"/>
      <point x="371" y="1442" type="curve" smooth="yes"/>
      <point x="315" y="1442"/>
      <point x="307" y="1408"/>
      <point x="274" y="1408" type="curve" smooth="yes"/>
      <point x="255" y="1408"/>
      <point x="240" y="1438"/>
      <point x="240" y="1468" type="curve" smooth="yes"/>
      <point x="240" y="1573"/>
      <point x="345" y="1678"/>
      <point x="476" y="1712" type="curve"/>
    </contour>
  </outline>
</glyph>
<glyph name="quoteright" format="2">
  <advance width="630"/>
  <unicode hex="2019"/>
  <outline>
    <contour>
      <point x="139" y="1187" type="line"/>
      <point x="319" y="1202"/>
      <point x="476" y="1345"/>
      <point x="476" y="1540" type="curve" smooth="yes"/>
      <point x="476" y="1663"/>
      <point x="390" y="1765"/>
      <point x="285" y="1765" type="curve" smooth="yes"/>
      <point x="202" y="1765"/>
      <point x="139" y="1708"/>
      <point x="139" y="1633" type="curve" smooth="yes"/>
      <point x="139" y="1562"/>
      <point x="187" y="1510"/>
      <point x="244" y="1510" type="curve" smooth="yes"/>
      <point x="300" y="1510"/>
      <point x="304" y="1543"/>
      <point x="341" y="1543" type="curve" smooth="yes"/>
      <point x="360" y="1543"/>
      <point x="375" y="1517"/>
      <point x="375" y="1483" type="curve" smooth="yes"/>
      <point x="375" y="1378"/>
      <point x="270" y="1277"/>
      <point x="139" y="1240" type="curve"/>
    </contour>
  </outline>
</glyph>
<glyph name="quotesinglbase" format="2">
  <advance width="570"/>
  <unicode hex="201A"/>
  <outline>
    <contour>
      <point x="139" y="-356" type="line"/>
      <point x="319" y="-341"/>
      <point x="476" y="-203"/>
      <point x="476" y="-8" type="curve" smooth="yes"/>
      <point x="476" y="120"/>
      <point x="390" y="221"/>
      <point x="285" y="221" type="curve" smooth="yes"/>
      <point x="202" y="221"/>
      <point x="139" y="161"/>
      <point x="139" y="90" type="curve" smooth="yes"/>
      <point x="139" y="19"/>
      <point x="187" y="-34"/>
      <point x="244" y="-34" type="curve" smooth="yes"/>
      <point x="300" y="-34"/>
      <point x="304" y="0"/>
      <point x="341" y="0" type="curve" smooth="yes"/>
      <point x="360" y="0"/>
      <point x="375" y="-26"/>
      <point x="375" y="-60" type="curve" smooth="yes"/>
      <point x="375" y="-165"/>
      <point x="270" y="-270"/>
      <point x="139" y="-304" type="curve"/>
    </contour>
  </outline>
</glyph>
<glyph name="quotedblleft" format="2">
  <advance width="1237"/>
  <unicode hex="201C"/>
  <outline>
    <contour>
      <point x="787" y="1420" type="curve" smooth="yes"/>
      <point x="787" y="1292"/>
      <point x="873" y="1191"/>
      <point x="978" y="1191" type="curve" smooth="yes"/>
      <point x="1061" y="1191"/>
      <point x="1125" y="1251"/>
      <point x="1125" y="1322" type="curve" smooth="yes"/>
      <point x="1125" y="1394"/>
      <point x="1076" y="1446"/>
      <point x="1020" y="1446" type="curve" smooth="yes"/>
      <point x="963" y="1446"/>
      <point x="960" y="1412"/>
      <point x="922" y="1412" type="curve" smooth="yes"/>
      <point x="903" y="1412"/>
      <point x="888" y="1439"/>
      <point x="888" y="1472" type="curve" smooth="yes"/>
      <point x="888" y="1559"/>
      <point x="978" y="1675"/>
      <point x="1091" y="1705" type="curve"/>
      <point x="1104" y="1711"/>
      <point x="1111" y="1723"/>
      <point x="1111" y="1736" type="curve" smooth="yes"/>
      <point x="1111" y="1749"/>
      <point x="1104" y="1761"/>
      <point x="1091" y="1765" type="curve"/>
      <point x="948" y="1742"/>
      <point x="787" y="1619"/>
    </contour>
    <contour>
      <point x="300" y="1420" type="curve" smooth="yes"/>
      <point x="300" y="1292"/>
      <point x="386" y="1191"/>
      <point x="491" y="1191" type="curve" smooth="yes"/>
      <point x="573" y="1191"/>
      <point x="637" y="1251"/>
      <point x="637" y="1322" type="curve" smooth="yes"/>
      <point x="637" y="1394"/>
      <point x="588" y="1446"/>
      <point x="532" y="1446" type="curve" smooth="yes"/>
      <point x="476" y="1446"/>
      <point x="472" y="1412"/>
      <point x="435" y="1412" type="curve" smooth="yes"/>
      <point x="416" y="1412"/>
      <point x="401" y="1439"/>
      <point x="401" y="1472" type="curve" smooth="yes"/>
      <point x="401" y="1559"/>
      <point x="491" y="1675"/>
      <point x="603" y="1705" type="curve"/>
      <point x="617" y="1711"/>
      <point x="623" y="1723"/>
      <point x="623" y="1736" type="curve" smooth="yes"/>
      <point x="623" y="1749"/>
      <point x="617" y="1761"/>
      <point x="603" y="1765" type="curve"/>
      <point x="461" y="1742"/>
      <point x="300" y="1619"/>
    </contour>
  </outline>
</glyph>
<glyph name="quotedblright" format="2">
  <advance width="1162"/>
  <unicode hex="201D"/>
  <outline>
    <contour>
      <point x="450" y="1536" type="curve" smooth="yes"/>
      <point x="450" y="1664"/>
      <point x="364" y="1765"/>
      <point x="259" y="1765" type="curve" smooth="yes"/>
      <point x="176" y="1765"/>
      <point x="112" y="1705"/>
      <point x="112" y="1634" type="curve" smooth="yes"/>
      <point x="112" y="1562"/>
      <point x="161" y="1510"/>
      <point x="217" y="1510" type="curve" smooth="yes"/>
      <point x="274" y="1510"/>
      <point x="277" y="1544"/>
      <point x="315" y="1544" type="curve" smooth="yes"/>
      <point x="334" y="1544"/>
      <point x="349" y="1517"/>
      <point x="349" y="1484" type="curve" smooth="yes"/>
      <point x="349" y="1397"/>
      <point x="259" y="1281"/>
      <point x="146" y="1251" type="curve"/>
      <point x="133" y="1245"/>
      <point x="126" y="1233"/>
      <point x="126" y="1220" type="curve" smooth="yes"/>
      <point x="126" y="1207"/>
      <point x="133" y="1195"/>
      <point x="146" y="1191" type="curve"/>
      <point x="289" y="1214"/>
      <point x="450" y="1337"/>
    </contour>
    <contour>
      <point x="937" y="1536" type="curve" smooth="yes"/>
      <point x="937" y="1664"/>
      <point x="851" y="1765"/>
      <point x="746" y="1765" type="curve" smooth="yes"/>
      <point x="664" y="1765"/>
      <point x="600" y="1705"/>
      <point x="600" y="1634" type="curve" smooth="yes"/>
      <point x="600" y="1562"/>
      <point x="649" y="1510"/>
      <point x="705" y="1510" type="curve" smooth="yes"/>
      <point x="761" y="1510"/>
      <point x="765" y="1544"/>
      <point x="802" y="1544" type="curve" smooth="yes"/>
      <point x="821" y="1544"/>
      <point x="836" y="1517"/>
      <point x="836" y="1484" type="curve" smooth="yes"/>
      <point x="836" y="1397"/>
      <point x="746" y="1281"/>
      <point x="634" y="1251" type="curve"/>
      <point x="620" y="1245"/>
      <point x="614" y="1233"/>
      <point x="614" y="1220" type="curve" smooth="yes"/>
      <point x="614" y="1207"/>
      <point x="620" y="1195"/>
      <point x="634" y="1191" type="curve"/>
      <point x="776" y="1214"/>
      <point x="937" y="1337"/>
    </contour>
  </outline>
</glyph>
<glyph name="ellipsis" format="2">
  <advance width="1320"/>
  <unicode hex="2026"/>
  <outline>
    <contour>
      <point x="255" y="195" type="curve" smooth="yes"/>
      <point x="191" y="195"/>
      <point x="139" y="142"/>
      <point x="139" y="79" type="curve" smooth="yes"/>
      <point x="139" y="19"/>
      <point x="191" y="-34"/>
      <point x="255" y="-34" type="curve" smooth="yes"/>
      <point x="322" y="-34"/>
      <point x="375" y="19"/>
      <point x="375" y="79" type="curve" smooth="yes"/>
      <point x="375" y="142"/>
      <point x="322" y="195"/>
    </contour>
    <contour>
      <point x="664" y="195" type="curve" smooth="yes"/>
      <point x="596" y="195"/>
      <point x="544" y="142"/>
      <point x="544" y="79" type="curve" smooth="yes"/>
      <point x="544" y="19"/>
      <point x="596" y="-34"/>
      <point x="664" y="-34" type="curve" smooth="yes"/>
      <point x="727" y="-34"/>
      <point x="780" y="19"/>
      <point x="780" y="79" type="curve" smooth="yes"/>
      <point x="780" y="142"/>
      <point x="727" y="195"/>
    </contour>
    <contour>
      <point x="1069" y="195" type="curve" smooth="yes"/>
      <point x="1001" y="195"/>
      <point x="949" y="142"/>
      <point x="949" y="79" type="curve" smooth="yes"/>
      <point x="949" y="19"/>
      <point x="1001" y="-34"/>
      <point x="1069" y="-34" type="curve" smooth="yes"/>
      <point x="1132" y="-34"/>
      <point x="1185" y="19"/>
      <point x="1185" y="79" type="curve" smooth="yes"/>
      <point x="1185" y="142"/>
      <point x="1132" y="195"/>
    </contour>
  </outline>
</glyph>
<glyph name="guilsinglleft" format="2">
  <advance width="697"/>
  <unicode hex="2039"/>
  <outline>
    <contour>
      <point x="592" y="0" type="line"/>
      <point x="322" y="487" type="line"/>
      <point x="592" y="971" type="line"/>
      <point x="529" y="971" type="line"/>
      <point x="105" y="487" type="line"/>
      <point x="529" y="0" type="line"/>
    </contour>
  </outline>
</glyph>
<glyph name="hyphen.demo" format="2">
  <advance width="1425"/>
  <outline>
    <contour>
      <point x="410" y="700" type="line"/>
      <point x="410" y="573" type="line"/>
      <point x="1090" y="573" type="line"/>
      <point x="1090" y="700" type="line"/>
    </contour>
  </outline>
</glyph>
<glyph name="uni178017B6.space" format="2">
  <advance width="2100"/>
  <anchor x="1200" y="0" name="L"/>
  <anchor x="1875" y="0" name="L2"/>
  <anchor x="1200" y="1440" name="U"/>
  <anchor x="1875" y="1440" name="U2"/>
  <outline>
    <contour>
      <point x="1087" y="1316" type="curve"/>
      <point x="1155" y="1234" type="line"/>
      <point x="1196" y="1275"/>
      <point x="1402" y="1328"/>
      <point x="1481" y="1328" type="curve" smooth="yes"/>
      <point x="1639" y="1328"/>
      <point x="1725" y="1200"/>
      <point x="1725" y="1144" type="curve" smooth="yes"/>
      <point x="1725" y="0" type="line"/>
      <point x="1875" y="0" type="line"/>
      <point x="1875" y="1162" type="line" smooth="yes"/>
      <point x="1875" y="1260"/>
      <point x="1706" y="1440"/>
      <point x="1481" y="1440" type="curve" smooth="yes"/>
      <point x="1350" y="1440"/>
      <point x="1144" y="1372"/>
    </contour>
  </outline>
</glyph>
<glyph name="uni178E17B6" format="2">
  <advance width="3150"/>
  <anchor x="2252" y="0" name="L"/>
  <anchor x="2252" y="1440" name="U"/>
  <outline>
    <contour>
      <point x="1500" y="214" type="line" smooth="yes"/>
      <point x="1500" y="172"/>
      <point x="1485" y="150"/>
      <point x="1459" y="150" type="curve" smooth="yes"/>
      <point x="1418" y="150"/>
      <point x="1305" y="356"/>
      <point x="1275" y="356" type="curve" smooth="yes"/>
      <point x="1245" y="356"/>
      <point x="1132" y="150"/>
      <point x="1091" y="150" type="curve" smooth="yes"/>
      <point x="1065" y="150"/>
      <point x="1050" y="172"/>
      <point x="1050" y="214" type="curve" smooth="yes"/>
      <point x="1050" y="1252" type="line" smooth="yes"/>
      <point x="1050" y="1352"/>
      <point x="865" y="1440"/>
      <point x="675" y="1440" type="curve" smooth="yes"/>
      <point x="485" y="1440"/>
      <point x="300" y="1352"/>
      <point x="300" y="1252" type="curve" smooth="yes"/>
      <point x="300" y="79" type="line"/>
      <point x="326" y="15"/>
      <point x="394" y="0"/>
      <point x="450" y="0" type="curve"/>
      <point x="596" y="30"/>
      <point x="675" y="169"/>
      <point x="675" y="247" type="curve" smooth="yes"/>
      <point x="675" y="379"/>
      <point x="574" y="446"/>
      <point x="450" y="450" type="curve"/>
      <point x="450" y="1245" type="line" smooth="yes"/>
      <point x="450" y="1301"/>
      <point x="585" y="1328"/>
      <point x="675" y="1328" type="curve" smooth="yes"/>
      <point x="765" y="1328"/>
      <point x="900" y="1301"/>
      <point x="900" y="1245" type="curve" smooth="yes"/>
      <point x="900" y="67" type="line" smooth="yes"/>
      <point x="900" y="34"/>
      <point x="934" y="0"/>
      <point x="967" y="0" type="curve" smooth="yes"/>
      <point x="1046" y="0" type="line" smooth="yes"/>
      <point x="1136" y="0"/>
      <point x="1253" y="206"/>
      <point x="1275" y="206" type="curve" smooth="yes"/>
      <point x="1297" y="206"/>
      <point x="1414" y="0"/>
      <point x="1504" y="0" type="curve" smooth="yes"/>
      <point x="1582" y="0" type="line" smooth="yes"/>
      <point x="1616" y="0"/>
      <point x="1650" y="34"/>
      <point x="1650" y="67" type="curve" smooth="yes"/>
      <point x="1650" y="1245" type="line" smooth="yes"/>
      <point x="1650" y="1301"/>
      <point x="1785" y="1328"/>
      <point x="1875" y="1328" type="curve" smooth="yes"/>
      <point x="1965" y="1328"/>
      <point x="2100" y="1301"/>
      <point x="2100" y="1245" type="curve" smooth="yes"/>
      <point x="2100" y="0" type="line"/>
      <point x="2250" y="0" type="line"/>
      <point x="2250" y="1252" type="line" smooth="yes"/>
      <point x="2250" y="1255"/>
      <point x="2250" y="1257"/>
      <point x="2249" y="1260" type="curve"/>
      <point x="2326" y="1294"/>
      <point x="2468" y="1328"/>
      <point x="2531" y="1328" type="curve" smooth="yes"/>
      <point x="2689" y="1328"/>
      <point x="2775" y="1200"/>
      <point x="2775" y="1144" type="curve" smooth="yes"/>
      <point x="2775" y="0" type="line"/>
      <point x="2925" y="0" type="line"/>
      <point x="2925" y="1162" type="line" smooth="yes"/>
      <point x="2925" y="1260"/>
      <point x="2756" y="1440"/>
      <point x="2531" y="1440" type="curve" smooth="yes"/>
      <point x="2426" y="1440"/>
      <point x="2274" y="1396"/>
      <point x="2188" y="1350" type="curve"/>
      <point x="2118" y="1403"/>
      <point x="1997" y="1440"/>
      <point x="1875" y="1440" type="curve" smooth="yes"/>
      <point x="1685" y="1440"/>
      <point x="1500" y="1352"/>
      <point x="1500" y="1252" type="curve" smooth="yes"/>
    </contour>
    <contour>
      <point x="450" y="320" type="line"/>
      <point x="499" y="320"/>
      <point x="545" y="281"/>
      <point x="545" y="251" type="curve" smooth="yes"/>
      <point x="545" y="187"/>
      <point x="506" y="156"/>
      <point x="450" y="130" type="curve"/>
    </contour>
  </outline>
</glyph>
<glyph name="uni179117C5.right" format="2">
  <advance width="1990"/>
  <anchor x="1125" y="0" name="L"/>
  <anchor x="1125" y="1440" name="U"/>
  <outline>
    <contour>
      <point x="750" y="520" type="curve"/>
      <point x="750" y="206" type="line" smooth="yes"/>
      <point x="750" y="150"/>
      <point x="709" y="112"/>
      <point x="637" y="112" type="curve" smooth="yes"/>
      <point x="562" y="112"/>
      <point x="525" y="143"/>
      <point x="525" y="206" type="curve" smooth="yes"/>
      <point x="525" y="499" type="line"/>
      <point x="395" y="499" type="line"/>
      <point x="395" y="187" type="line" smooth="yes"/>
      <point x="395" y="86"/>
      <point x="446" y="0"/>
      <point x="637" y="0" type="curve" smooth="yes"/>
      <point x="829" y="0"/>
      <point x="880" y="86"/>
      <point x="880" y="187" type="curve" smooth="yes"/>
      <point x="880" y="520" type="line"/>
      <point x="1034" y="520"/>
      <point x="1125" y="599"/>
      <point x="1125" y="708" type="curve" smooth="yes"/>
      <point x="1125" y="816"/>
      <point x="1045" y="895"/>
      <point x="936" y="895" type="curve" smooth="yes"/>
      <point x="805" y="895"/>
      <point x="750" y="800"/>
      <point x="750" y="650" type="curve"/>
      <point x="539" y="650"/>
      <point x="355" y="814"/>
      <point x="355" y="990" type="curve" smooth="yes"/>
      <point x="355" y="1170"/>
      <point x="480" y="1310"/>
      <point x="750" y="1310" type="curve" smooth="yes"/>
      <point x="926" y="1310"/>
      <point x="995" y="1250"/>
      <point x="995" y="1207" type="curve" smooth="yes"/>
      <point x="995" y="1174"/>
      <point x="983" y="1163"/>
      <point x="956" y="1144" type="curve"/>
      <point x="931" y="1176"/>
      <point x="898" y="1192"/>
      <point x="859" y="1192" type="curve" smooth="yes"/>
      <point x="802" y="1192"/>
      <point x="757" y="1155"/>
      <point x="757" y="1099" type="curve" smooth="yes"/>
      <point x="757" y="1020"/>
      <point x="832" y="967"/>
      <point x="904" y="967" type="curve" smooth="yes"/>
      <point x="937" y="967"/>
      <point x="1002" y="982"/>
      <point x="1031" y="1009" type="curve"/>
      <point x="1079" y="1041"/>
      <point x="1125" y="1099"/>
      <point x="1125" y="1189" type="curve" smooth="yes"/>
      <point x="1125" y="1216"/>
      <point x="1120" y="1243"/>
      <point x="1111" y="1269" type="curve"/>
      <point x="1190" y="1300"/>
      <point x="1311" y="1328"/>
      <point x="1372" y="1328" type="curve" smooth="yes"/>
      <point x="1529" y="1328"/>
      <point x="1615" y="1200"/>
      <point x="1615" y="1144" type="curve" smooth="yes"/>
      <point x="1615" y="0" type="line"/>
      <point x="1765" y="0" type="line"/>
      <point x="1765" y="1162" type="line" smooth="yes"/>
      <point x="1765" y="1194"/>
      <point x="1747" y="1235"/>
      <point x="1714" y="1276" type="curve"/>
      <point x="1759" y="1366"/>
      <point x="1790" y="1482"/>
      <point x="1790" y="1564" type="curve" smooth="yes"/>
      <point x="1790" y="1657"/>
      <point x="1775" y="1770"/>
      <point x="1636" y="1864" type="curve" smooth="yes"/>
      <point x="1625" y="1871"/>
      <point x="1606" y="1875"/>
      <point x="1595" y="1875" type="curve" smooth="yes"/>
      <point x="1538" y="1875"/>
      <point x="1508" y="1864"/>
      <point x="1493" y="1796" type="curve"/>
      <point x="1493" y="1762"/>
      <point x="1501" y="1717"/>
      <point x="1531" y="1695" type="curve" smooth="yes"/>
      <point x="1606" y="1639"/>
      <point x="1625" y="1560"/>
      <point x="1625" y="1492" type="curve" smooth="yes"/>
      <point x="1625" y="1450"/>
      <point x="1616" y="1405"/>
      <point x="1606" y="1371" type="curve"/>
      <point x="1542" y="1411"/>
      <point x="1461" y="1440"/>
      <point x="1372" y="1440" type="curve" smooth="yes"/>
      <point x="1274" y="1440"/>
      <point x="1135" y="1402"/>
      <point x="1047" y="1360" type="curve"/>
      <point x="988" y="1408"/>
      <point x="894" y="1440"/>
      <point x="750" y="1440" type="curve" smooth="yes"/>
      <point x="409" y="1440"/>
      <point x="225" y="1256"/>
      <point x="225" y="990" type="curve" smooth="yes"/>
      <point x="225" y="727"/>
      <point x="487" y="520"/>
    </contour>
    <contour>
      <point x="880" y="650" type="line"/>
      <point x="880" y="700" type="line" smooth="yes"/>
      <point x="880" y="743"/>
      <point x="899" y="765"/>
      <point x="936" y="765" type="curve" smooth="yes"/>
      <point x="974" y="765"/>
      <point x="995" y="745"/>
      <point x="995" y="708" type="curve" smooth="yes"/>
      <point x="995" y="673"/>
      <point x="960" y="652"/>
      <point x="929" y="651" type="curve" smooth="yes"/>
    </contour>
  </outline>
</glyph>
<glyph name="uni179517C5.right" format="2">
  <advance width="2100"/>
  <anchor x="1200" y="0" name="L"/>
  <anchor x="1200" y="1440" name="U"/>
  <outline>
    <contour>
      <point x="1200" y="1372" type="curve" smooth="yes"/>
      <point x="1200" y="1474"/>
      <point x="1185" y="1526"/>
      <point x="1130" y="1602" type="curve" smooth="yes"/>
      <point x="1069" y="1687"/>
      <point x="1001" y="1740"/>
      <point x="915" y="1740" type="curve" smooth="yes"/>
      <point x="844" y="1740"/>
      <point x="817" y="1702"/>
      <point x="817" y="1657" type="curve" smooth="yes"/>
      <point x="817" y="1556"/>
      <point x="967" y="1537"/>
      <point x="1016" y="1496" type="curve"/>
      <point x="1072" y="1455"/>
      <point x="1087" y="1414"/>
      <point x="1087" y="1372" type="curve" smooth="yes"/>
      <point x="1087" y="1324"/>
      <point x="1035" y="1252"/>
      <point x="911" y="1252" type="curve" smooth="yes"/>
      <point x="780" y="1252"/>
      <point x="619" y="1440"/>
      <point x="397" y="1440" type="curve" smooth="yes"/>
      <point x="277" y="1440"/>
      <point x="169" y="1320"/>
      <point x="169" y="1196" type="curve" smooth="yes"/>
      <point x="169" y="1107"/>
      <point x="245" y="1051"/>
      <point x="300" y="1025" type="curve"/>
      <point x="300" y="67" type="line" smooth="yes"/>
      <point x="300" y="34"/>
      <point x="334" y="0"/>
      <point x="368" y="0" type="curve" smooth="yes"/>
      <point x="450" y="0" type="line" smooth="yes"/>
      <point x="495" y="0"/>
      <point x="557" y="46"/>
      <point x="588" y="71" type="curve" smooth="yes"/>
      <point x="658" y="127"/>
      <point x="725" y="180"/>
      <point x="750" y="180" type="curve" smooth="yes"/>
      <point x="775" y="180"/>
      <point x="842" y="127"/>
      <point x="912" y="71" type="curve" smooth="yes"/>
      <point x="944" y="46"/>
      <point x="1005" y="0"/>
      <point x="1050" y="0" type="curve" smooth="yes"/>
      <point x="1133" y="0" type="line" smooth="yes"/>
      <point x="1167" y="0"/>
      <point x="1200" y="34"/>
      <point x="1200" y="67" type="curve" smooth="yes"/>
      <point x="1200" y="911" type="line"/>
      <point x="1193" y="928"/>
      <point x="1182" y="942"/>
      <point x="1170" y="953" type="curve"/>
      <point x="1222" y="1114"/>
      <point x="1448" y="1327"/>
      <point x="1582" y="1327" type="curve" smooth="yes"/>
      <point x="1679" y="1327"/>
      <point x="1725" y="1200"/>
      <point x="1725" y="1144" type="curve" smooth="yes"/>
      <point x="1725" y="0" type="line"/>
      <point x="1875" y="0" type="line"/>
      <point x="1875" y="1162" type="line" smooth="yes"/>
      <point x="1875" y="1198"/>
      <point x="1860" y="1246"/>
      <point x="1831" y="1292" type="curve"/>
      <point x="1872" y="1379"/>
      <point x="1900" y="1486"/>
      <point x="1900" y="1564" type="curve" smooth="yes"/>
      <point x="1900" y="1657"/>
      <point x="1885" y="1770"/>
      <point x="1746" y="1864" type="curve" smooth="yes"/>
      <point x="1735" y="1871"/>
      <point x="1716" y="1875"/>
      <point x="1705" y="1875" type="curve" smooth="yes"/>
      <point x="1648" y="1875"/>
      <point x="1618" y="1864"/>
      <point x="1603" y="1796" type="curve"/>
      <point x="1603" y="1762"/>
      <point x="1611" y="1717"/>
      <point x="1641" y="1695" type="curve" smooth="yes"/>
      <point x="1716" y="1639"/>
      <point x="1735" y="1560"/>
      <point x="1735" y="1492" type="curve" smooth="yes"/>
      <point x="1735" y="1461"/>
      <point x="1730" y="1429"/>
      <point x="1723" y="1400" type="curve"/>
      <point x="1683" y="1424"/>
      <point x="1636" y="1440"/>
      <point x="1582" y="1440" type="curve" smooth="yes"/>
      <point x="1380" y="1440"/>
      <point x="1150" y="1195"/>
      <point x="1076" y="989" type="curve"/>
      <point x="1067" y="990"/>
      <point x="1058" y="990"/>
      <point x="1050" y="990" type="curve"/>
      <point x="896" y="960"/>
      <point x="825" y="821"/>
      <point x="825" y="742" type="curve" smooth="yes"/>
      <point x="825" y="611"/>
      <point x="926" y="544"/>
      <point x="1050" y="540" type="curve"/>
      <point x="1050" y="214" type="line" smooth="yes"/>
      <point x="1050" y="172"/>
      <point x="1032" y="150"/>
      <point x="998" y="150" type="curve" smooth="yes"/>
      <point x="979" y="150"/>
      <point x="923" y="188"/>
      <point x="848" y="247" type="curve" smooth="yes"/>
      <point x="817" y="271"/>
      <point x="780" y="300"/>
      <point x="750" y="300" type="curve" smooth="yes"/>
      <point x="720" y="300"/>
      <point x="683" y="271"/>
      <point x="652" y="247" type="curve" smooth="yes"/>
      <point x="577" y="188"/>
      <point x="522" y="150"/>
      <point x="503" y="150" type="curve" smooth="yes"/>
      <point x="469" y="150"/>
      <point x="450" y="172"/>
      <point x="450" y="214" type="curve" smooth="yes"/>
      <point x="450" y="1046" type="line"/>
      <point x="409" y="1046"/>
      <point x="266" y="1110"/>
      <point x="266" y="1170" type="curve" smooth="yes"/>
      <point x="266" y="1256"/>
      <point x="337" y="1290"/>
      <point x="424" y="1290" type="curve" smooth="yes"/>
      <point x="529" y="1290"/>
      <point x="709" y="1102"/>
      <point x="926" y="1102" type="curve" smooth="yes"/>
      <point x="1042" y="1102"/>
      <point x="1200" y="1215"/>
    </contour>
    <contour>
      <point x="955" y="739" type="curve" smooth="yes"/>
      <point x="955" y="802"/>
      <point x="994" y="833"/>
      <point x="1050" y="860" type="curve"/>
      <point x="1050" y="670" type="line"/>
      <point x="1001" y="670"/>
      <point x="955" y="709"/>
    </contour>
  </outline>
</glyph>
<glyph name="uni17B6.lig.right" format="2">
  <advance width="700"/>
  <anchor x="-142" y="-151" name="L"/>
  <anchor x="-142" y="1440" name="U"/>
  <outline>
    <contour>
      <point x="-318" y="1258" type="curve"/>
      <point x="-297" y="1057" type="line"/>
      <point x="-281" y="1057"/>
      <point x="-262" y="1060"/>
      <point x="-250" y="1070" type="curve" smooth="yes"/>
      <point x="-118" y="1180" type="line" smooth="yes"/>
      <point x="-99" y="1196"/>
      <point x="-82" y="1210"/>
      <point x="-62" y="1210" type="curve" smooth="yes"/>
      <point x="-32" y="1210"/>
      <point x="-20" y="1200"/>
      <point x="3" y="1181" type="curve" smooth="yes"/>
      <point x="217" y="1006" type="line" smooth="yes"/>
      <point x="246" y="983"/>
      <point x="260" y="969"/>
      <point x="260" y="945" type="curve" smooth="yes"/>
      <point x="260" y="171" type="line" smooth="yes"/>
      <point x="260" y="152"/>
      <point x="256" y="122"/>
      <point x="233" y="103" type="curve" smooth="yes"/>
      <point x="213" y="86"/>
      <point x="187" y="91"/>
      <point x="187" y="76" type="curve" smooth="yes"/>
      <point x="187" y="15"/>
      <point x="270" y="1"/>
      <point x="310" y="1" type="curve" smooth="yes"/>
      <point x="384" y="1"/>
      <point x="440" y="65"/>
      <point x="440" y="121" type="curve" smooth="yes"/>
      <point x="440" y="980" type="line" smooth="yes"/>
      <point x="440" y="1013"/>
      <point x="438" y="1060"/>
      <point x="390" y="1099" type="curve" smooth="yes"/>
      <point x="-7" y="1420" type="line" smooth="yes"/>
      <point x="-21" y="1431"/>
      <point x="-40" y="1440"/>
      <point x="-60" y="1440" type="curve" smooth="yes"/>
      <point x="-80" y="1440"/>
      <point x="-92" y="1438"/>
      <point x="-112" y="1421" type="curve" smooth="yes"/>
      <point x="-291" y="1269" type="line" smooth="yes"/>
      <point x="-299" y="1262"/>
      <point x="-306" y="1258"/>
    </contour>
  </outline>
</glyph>
<glyph name="uni17B7.narrow" format="2">
  <anchor x="-338" y="2062" name="MA"/>
  <anchor x="-225" y="2062" name="U"/>
  <anchor x="-225" y="1440" name="_U"/>
  <outline>
    <contour>
      <point x="-416" y="1676" type="curve" smooth="yes"/>
      <point x="-221" y="1676"/>
      <point x="-188" y="1590"/>
      <point x="-60" y="1590" type="curve" smooth="yes"/>
      <point x="-26" y="1590"/>
      <point x="0" y="1635"/>
      <point x="0" y="1669" type="curve" smooth="yes"/>
      <point x="0" y="1691"/>
      <point x="-4" y="1706"/>
      <point x="-8" y="1714" type="curve" smooth="yes"/>
      <point x="-109" y="1905"/>
      <point x="-206" y="2062"/>
      <point x="-405" y="2062" type="curve" smooth="yes"/>
      <point x="-593" y="2062"/>
      <point x="-713" y="1935"/>
      <point x="-713" y="1804" type="curve" smooth="yes"/>
      <point x="-713" y="1717"/>
      <point x="-656" y="1665"/>
      <point x="-578" y="1665" type="curve" smooth="yes"/>
      <point x="-506" y="1665"/>
      <point x="-461" y="1676"/>
    </contour>
    <contour>
      <point x="-173" y="1751" type="curve"/>
      <point x="-206" y="1774"/>
      <point x="-278" y="1807"/>
      <point x="-398" y="1807" type="curve" smooth="yes"/>
      <point x="-454" y="1807"/>
      <point x="-469" y="1796"/>
      <point x="-514" y="1796" type="curve" smooth="yes"/>
      <point x="-540" y="1796"/>
      <point x="-555" y="1819"/>
      <point x="-555" y="1834" type="curve" smooth="yes"/>
      <point x="-555" y="1882"/>
      <point x="-514" y="1931"/>
      <point x="-413" y="1931" type="curve" smooth="yes"/>
      <point x="-278" y="1931"/>
      <point x="-210" y="1804"/>
    </contour>
  </outline>
</glyph>
<glyph name="uni17B717CD.ms.high" format="2">
  <anchor x="-619" y="2482" name="MA"/>
  <anchor x="-225" y="2482" name="U"/>
  <anchor x="-225" y="1440" name="_U"/>
  <outline>
    <contour>
      <point x="-176" y="2146" type="curve" smooth="yes"/>
      <point x="-83" y="2146"/>
      <point x="-11" y="2225"/>
      <point x="-11" y="2289" type="curve" smooth="yes"/>
      <point x="-11" y="2315"/>
      <point x="-34" y="2337"/>
      <point x="-68" y="2337" type="curve" smooth="yes"/>
      <point x="-98" y="2337"/>
      <point x="-115" y="2322"/>
      <point x="-123" y="2296" type="curve"/>
      <point x="-127" y="2277"/>
      <point x="-150" y="2258"/>
      <point x="-176" y="2258" type="curve" smooth="yes"/>
      <point x="-206" y="2258"/>
      <point x="-233" y="2285"/>
      <point x="-233" y="2315" type="curve" smooth="yes"/>
      <point x="-233" y="2345"/>
      <point x="-206" y="2390"/>
      <point x="-143" y="2401" type="curve"/>
      <point x="-8" y="2416"/>
      <point x="75" y="2480"/>
      <point x="75" y="2596" type="curve" smooth="yes"/>
      <point x="75" y="2660"/>
      <point x="37" y="2731"/>
      <point x="-83" y="2742" type="curve"/>
      <point x="-45" y="2712"/>
      <point x="-26" y="2671"/>
      <point x="-26" y="2622" type="curve" smooth="yes"/>
      <point x="-26" y="2559"/>
      <point x="-71" y="2525"/>
      <point x="-158" y="2513" type="curve" smooth="yes"/>
      <point x="-296" y="2495"/>
      <point x="-345" y="2386"/>
      <point x="-345" y="2315" type="curve" smooth="yes"/>
      <point x="-345" y="2221"/>
      <point x="-270" y="2146"/>
    </contour>
    <contour>
      <point x="-773" y="1966" type="curve" smooth="yes"/>
      <point x="-521" y="1966"/>
      <point x="-338" y="1880"/>
      <point x="-210" y="1880" type="curve" smooth="yes"/>
      <point x="-176" y="1880"/>
      <point x="-150" y="1925"/>
      <point x="-150" y="1959" type="curve" smooth="yes"/>
      <point x="-150" y="1988"/>
      <point x="-154" y="1996"/>
      <point x="-158" y="2004" type="curve"/>
      <point x="-270" y="2195"/>
      <point x="-544" y="2352"/>
      <point x="-743" y="2352" type="curve" smooth="yes"/>
      <point x="-938" y="2352"/>
      <point x="-1125" y="2225"/>
      <point x="-1125" y="2094" type="curve" smooth="yes"/>
      <point x="-1125" y="2007"/>
      <point x="-1069" y="1955"/>
      <point x="-990" y="1955" type="curve" smooth="yes"/>
      <point x="-919" y="1955"/>
      <point x="-818" y="1966"/>
    </contour>
    <contour>
      <point x="-345" y="2034" type="curve"/>
      <point x="-386" y="2034"/>
      <point x="-578" y="2096"/>
      <point x="-754" y="2096" type="curve" smooth="yes"/>
      <point x="-810" y="2096"/>
      <point x="-861" y="2086"/>
      <point x="-919" y="2086" type="curve" smooth="yes"/>
      <point x="-945" y="2086"/>
      <point x="-960" y="2094"/>
      <point x="-960" y="2109" type="curve" smooth="yes"/>
      <point x="-960" y="2165"/>
      <point x="-829" y="2222"/>
      <point x="-731" y="2222" type="curve" smooth="yes"/>
      <point x="-589" y="2222"/>
      <point x="-413" y="2112"/>
    </contour>
  </outline>
</glyph>
<glyph name="uni17B717CD.ms.narrowhigh" format="2">
  <anchor x="-225" y="2482" name="U"/>
  <anchor x="-225" y="1440" name="_U"/>
  <outline>
    <contour>
      <point x="-416" y="1967" type="curve" smooth="yes"/>
      <point x="-221" y="1967"/>
      <point x="-188" y="1880"/>
      <point x="-60" y="1880" type="curve" smooth="yes"/>
      <point x="-26" y="1880"/>
      <point x="0" y="1925"/>
      <point x="0" y="1959" type="curve" smooth="yes"/>
      <point x="0" y="1982"/>
      <point x="-4" y="1997"/>
      <point x="-8" y="2004" type="curve" smooth="yes"/>
      <point x="-53" y="2089"/>
      <point x="-97" y="2167"/>
      <point x="-149" y="2228" type="curve"/>
      <point x="-69" y="2241"/>
      <point x="-11" y="2311"/>
      <point x="-11" y="2369" type="curve" smooth="yes"/>
      <point x="-11" y="2395"/>
      <point x="-34" y="2417"/>
      <point x="-68" y="2417" type="curve" smooth="yes"/>
      <point x="-98" y="2417"/>
      <point x="-115" y="2402"/>
      <point x="-123" y="2376" type="curve"/>
      <point x="-127" y="2357"/>
      <point x="-150" y="2338"/>
      <point x="-176" y="2338" type="curve" smooth="yes"/>
      <point x="-206" y="2338"/>
      <point x="-233" y="2365"/>
      <point x="-233" y="2395" type="curve" smooth="yes"/>
      <point x="-233" y="2425"/>
      <point x="-206" y="2470"/>
      <point x="-143" y="2481" type="curve"/>
      <point x="-8" y="2496"/>
      <point x="75" y="2560"/>
      <point x="75" y="2676" type="curve" smooth="yes"/>
      <point x="75" y="2740"/>
      <point x="37" y="2811"/>
      <point x="-83" y="2822" type="curve"/>
      <point x="-45" y="2792"/>
      <point x="-26" y="2751"/>
      <point x="-26" y="2702" type="curve" smooth="yes"/>
      <point x="-26" y="2639"/>
      <point x="-71" y="2605"/>
      <point x="-158" y="2593" type="curve" smooth="yes"/>
      <point x="-296" y="2575"/>
      <point x="-345" y="2466"/>
      <point x="-345" y="2395" type="curve" smooth="yes"/>
      <point x="-345" y="2378"/>
      <point x="-342" y="2362"/>
      <point x="-338" y="2346" type="curve"/>
      <point x="-359" y="2351"/>
      <point x="-381" y="2353"/>
      <point x="-405" y="2353" type="curve" smooth="yes"/>
      <point x="-593" y="2353"/>
      <point x="-713" y="2225"/>
      <point x="-713" y="2094" type="curve" smooth="yes"/>
      <point x="-713" y="2008"/>
      <point x="-656" y="1955"/>
      <point x="-578" y="1955" type="curve" smooth="yes"/>
      <point x="-506" y="1955"/>
      <point x="-461" y="1967"/>
    </contour>
    <contour>
      <point x="-173" y="2042" type="curve"/>
      <point x="-206" y="2064"/>
      <point x="-278" y="2098"/>
      <point x="-398" y="2098" type="curve" smooth="yes"/>
      <point x="-454" y="2098"/>
      <point x="-469" y="2087"/>
      <point x="-514" y="2087" type="curve" smooth="yes"/>
      <point x="-540" y="2087"/>
      <point x="-555" y="2109"/>
      <point x="-555" y="2124" type="curve" smooth="yes"/>
      <point x="-555" y="2173"/>
      <point x="-514" y="2222"/>
      <point x="-413" y="2222" type="curve" smooth="yes"/>
      <point x="-278" y="2222"/>
      <point x="-210" y="2094"/>
    </contour>
  </outline>
</glyph>
<glyph name="uni17BA.ms.narrowhigh2" format="2">
  <anchor x="-225" y="2737" name="U"/>
  <anchor x="-225" y="1440" name="_U"/>
  <outline>
    <contour>
      <point x="-416" y="2197" type="curve" smooth="yes"/>
      <point x="-221" y="2197"/>
      <point x="-188" y="2110"/>
      <point x="-60" y="2110" type="curve" smooth="yes"/>
      <point x="-40" y="2110"/>
      <point x="-24" y="2124"/>
      <point x="-13" y="2143" type="curve"/>
      <point x="74" y="2234"/>
      <point x="150" y="2331"/>
      <point x="150" y="2459" type="curve" smooth="yes"/>
      <point x="150" y="2500"/>
      <point x="142" y="2545"/>
      <point x="101" y="2602" type="curve"/>
      <point x="75" y="2620"/>
      <point x="60" y="2628"/>
      <point x="30" y="2628" type="curve" smooth="yes"/>
      <point x="-11" y="2628"/>
      <point x="-38" y="2594"/>
      <point x="-38" y="2549" type="curve" smooth="yes"/>
      <point x="-38" y="2530"/>
      <point x="-34" y="2515"/>
      <point x="-26" y="2504" type="curve"/>
      <point x="-8" y="2470"/>
      <point x="4" y="2437"/>
      <point x="4" y="2399" type="curve" smooth="yes"/>
      <point x="4" y="2363"/>
      <point x="-11" y="2314"/>
      <point x="-29" y="2275" type="curve"/>
      <point x="-65" y="2340"/>
      <point x="-101" y="2401"/>
      <point x="-143" y="2450" type="curve"/>
      <point x="-125" y="2491"/>
      <point x="-113" y="2535"/>
      <point x="-113" y="2579" type="curve" smooth="yes"/>
      <point x="-113" y="2624"/>
      <point x="-120" y="2662"/>
      <point x="-161" y="2718" type="curve"/>
      <point x="-188" y="2737"/>
      <point x="-210" y="2748"/>
      <point x="-233" y="2748" type="curve" smooth="yes"/>
      <point x="-278" y="2748"/>
      <point x="-300" y="2722"/>
      <point x="-300" y="2673" type="curve" smooth="yes"/>
      <point x="-300" y="2654"/>
      <point x="-296" y="2639"/>
      <point x="-289" y="2628" type="curve" smooth="yes"/>
      <point x="-275" y="2603"/>
      <point x="-265" y="2577"/>
      <point x="-261" y="2549" type="curve"/>
      <point x="-302" y="2571"/>
      <point x="-350" y="2583"/>
      <point x="-405" y="2583" type="curve" smooth="yes"/>
      <point x="-593" y="2583"/>
      <point x="-713" y="2455"/>
      <point x="-713" y="2324" type="curve" smooth="yes"/>
      <point x="-713" y="2238"/>
      <point x="-656" y="2185"/>
      <point x="-578" y="2185" type="curve" smooth="yes"/>
      <point x="-506" y="2185"/>
      <point x="-461" y="2197"/>
    </contour>
    <contour>
      <point x="-173" y="2272" type="curve"/>
      <point x="-206" y="2294"/>
      <point x="-278" y="2328"/>
      <point x="-398" y="2328" type="curve" smooth="yes"/>
      <point x="-454" y="2328"/>
      <point x="-469" y="2317"/>
      <point x="-514" y="2317" type="curve" smooth="yes"/>
      <point x="-540" y="2317"/>
      <point x="-555" y="2339"/>
      <point x="-555" y="2354" type="curve" smooth="yes"/>
      <point x="-555" y="2403"/>
      <point x="-514" y="2452"/>
      <point x="-413" y="2452" type="curve" smooth="yes"/>
      <point x="-278" y="2452"/>
      <point x="-210" y="2324"/>
    </contour>
  </outline>
</glyph>
<glyph name="uni17BB.low" format="2">
  <anchor x="-225" y="-713" name="_L"/>
  <outline>
    <contour>
      <point x="-356" y="-1091" type="line"/>
      <point x="-356" y="-1151" type="line" smooth="yes"/>
      <point x="-356" y="-1193"/>
      <point x="-364" y="-1226"/>
      <point x="-405" y="-1238" type="curve"/>
      <point x="-255" y="-1238"/>
      <point x="-225" y="-1230"/>
      <point x="-225" y="-1144" type="curve" smooth="yes"/>
      <point x="-225" y="-904" type="line"/>
      <point x="-236" y="-844"/>
      <point x="-296" y="-825"/>
      <point x="-356" y="-825" type="curve"/>
      <point x="-416" y="-836"/>
      <point x="-450" y="-863"/>
      <point x="-450" y="-934" type="curve" smooth="yes"/>
      <point x="-450" y="-968"/>
      <point x="-416" y="-1009"/>
      <point x="-356" y="-1013" type="curve"/>
    </contour>
  </outline>
</glyph>
